<?xml version="1.0" standalone="no"?>
<!DOCTYPE svg PUBLIC "-//W3C//DTD SVG 1.1//EN" "http://www.w3.org/Graphics/SVG/1.1/DTD/svg11.dtd" >
<svg>
<metadata>
Created by FontForge 20090622 at Sat Jul 25 07:46:08 2015
 By deploy user
Copyright 1990-1993 Bitstream Inc.  All rights reserved.
</metadata>
<defs>
<font id="NuptialBT-Regular" horiz-adv-x="1024" >
  <font-face 
    font-family="Nuptial BT"
    font-weight="400"
    font-style="italic"
    font-stretch="normal"
    units-per-em="2048"
    panose-1="3 3 6 2 4 4 5 8 11 3"
    ascent="1638"
    descent="-410"
    x-height="508"
    cap-height="1174"
    bbox="-537 -516 2013 1653"
    underline-thickness="63"
    underline-position="-196"
    slope="-27"
    unicode-range="U+0020-U+F002"
  />
<missing-glyph horiz-adv-x="1229" 
d="M102 -362v1806h1024v-1806h-1024zM217 -248h795v1577h-795v-1577z" />
    <glyph glyph-name=".notdef" horiz-adv-x="1229" 
d="M102 -362v1806h1024v-1806h-1024zM217 -248h795v1577h-795v-1577z" />
    <glyph glyph-name=".null" horiz-adv-x="0" 
 />
    <glyph glyph-name="nonmarkingreturn" horiz-adv-x="373" 
 />
    <glyph glyph-name="space" unicode=" " horiz-adv-x="373" 
 />
    <glyph glyph-name="exclam" unicode="!" horiz-adv-x="426" 
d="M31 74q22 0 38.5 -17.5t16.5 -40.5q0 -22 -16 -38.5t-39 -16.5q-22 0 -39 16.5t-17 38.5q0 23 17.5 40.5t38.5 17.5zM612 1171q19 0 30 -10t11 -28q0 -71 -285 -533l-96 -156q-33 -54 -73 -128q-38 -70 -49 -70q-7 0 -12 5t-5 11q0 10 24 54l3 6q74 138 148.5 312
l78.5 183q80 175 137 264.5t88 89.5z" />
    <glyph glyph-name="quotedbl" unicode="&#x22;" horiz-adv-x="666" 
d="M508 870h-29l-57 453q-2 12 -3 23.5t-1 21.5q0 47 19 70.5t57 23.5q37 0 57 -24.5t20 -69.5q0 -7 -0.5 -15.5t-3.5 -29.5zM186 870h-28l-60 453q-2 12 -3 23.5t-1 21.5q0 46 20 70t58 24q37 0 56.5 -24t19.5 -70q0 -7 -1 -16l-3 -28z" />
    <glyph glyph-name="numbersign" unicode="#" horiz-adv-x="1575" 
d="M700 877l-108 -304h301l106 304h-299zM809 1454h94l-174 -498h299l176 498h96l-176 -498h322l-27 -79h-323l-107 -304h348l-28 -79h-348l-175 -494h-96l174 494h-301l-174 -494h-94l174 494h-340l31 79h338l106 304h-368l28 79h369z" />
    <glyph glyph-name="dollar" unicode="$" horiz-adv-x="573" 
d="M252 389l-213 -381q10 -1 18 -1.5t19 -0.5q89 0 151 68t62 168q0 31 -9 66t-28 81zM295 512l137 237q-15 4 -24.5 5.5t-16.5 1.5q-51 0 -85 -39t-34 -99q0 -25 6 -51.5t17 -54.5zM-51 -141h-21l-2 12l60 113q-44 15 -70.5 52.5t-26.5 84.5q0 21 8 32t23 11t21 -9.5
t6 -35.5q0 -43 12 -65t43 -38l234 412q-23 52 -33 89.5t-10 68.5q0 88 57 148.5t139 60.5q16 0 32.5 -3.5t31.5 -9.5l49 90l12 11h29l4 -11l-66 -106q31 -22 45.5 -53t14.5 -76q0 -22 -7.5 -32.5t-23.5 -10.5t-21.5 8t-5.5 29q0 1 1 7q1 20 1 38q0 12 -5.5 25.5t-16.5 29.5
l-150 -260q30 -68 43 -116t13 -89q0 -127 -83 -213t-206 -86q-13 0 -26.5 1t-34.5 4l-56 -107z" />
    <glyph glyph-name="percent" unicode="%" horiz-adv-x="1010" 
d="M770 432q54 0 85.5 -34.5t31.5 -94.5q0 -121 -78.5 -229.5t-167.5 -108.5q-53 0 -87 39.5t-34 99.5q0 106 85 217t165 111zM569 76q0 -36 18 -57t48 -21q31 0 60.5 26t64.5 87q40 67 61 123.5t21 95.5q0 31 -17.5 49t-46.5 18q-22 0 -46 -14.5t-46 -42.5
q-46 -58 -81.5 -142t-35.5 -122zM90 436q0 -36 18 -57t48 -21t60 27t65 86q38 66 58.5 122.5t20.5 96.5q0 32 -16.5 50t-44.5 18q-22 0 -47 -15.5t-47 -44.5q-46 -57 -80.5 -140t-34.5 -122zM403 713q1 -6 2 -14q3 -21 3 -27q0 -126 -79 -237t-173 -111q-53 0 -85 39
t-32 104q0 104 85 214t165 110q15 0 105 -35t188 -35q49 0 116.5 8.5t141.5 24.5q-102 -105 -192.5 -210.5t-172.5 -213.5l-37 -50q-204 -275 -370 -319q120 102 325.5 370.5t356.5 377.5q-54 -11 -96.5 -16t-75.5 -5q-38 0 -79.5 6t-95.5 19z" />
    <glyph glyph-name="ampersand" unicode="&#x26;" horiz-adv-x="827" 
d="M246 528q-125 -82 -182.5 -166t-57.5 -186q0 -83 35 -125.5t102 -42.5q34 0 61.5 11.5t51.5 35.5q-22 42 -32.5 93t-10.5 120q0 67 8 131.5t25 128.5zM332 129q166 247 232.5 312t125.5 65q37 0 60.5 -22.5t23.5 -57.5t-25.5 -59.5t-74.5 -36.5q23 18 33 34t10 35
q0 23 -15 38.5t-38 15.5q-60 0 -211 -212l-111 -153q20 -45 64.5 -72.5t97.5 -27.5q110 0 200 124q18 25 23 25t9.5 -5t4.5 -11q0 -47 -87 -110.5t-191 -63.5q-58 0 -106.5 21.5t-77.5 60.5q-41 -33 -84 -49.5t-89 -16.5q-86 0 -135 52t-49 145q0 122 87 229t259 197
q51 172 147 274.5t203 102.5q67 0 106.5 -39.5t39.5 -106.5q0 -64 -45.5 -126t-71.5 -62q-4 0 -7 3.5t-3 8.5q0 4 13 21q61 80 61 163q0 49 -23.5 74t-69.5 25q-125 0 -214 -182t-89 -466q0 -60 4 -90.5t13 -56.5z" />
    <glyph glyph-name="quotesingle" unicode="'" horiz-adv-x="342" 
d="M184 870h-28l-60 454q-1 6 -1.5 15t-0.5 29q0 47 19 70.5t57 23.5q37 0 57.5 -24.5t20.5 -69.5q0 -7 -1 -16l-3 -28z" />
    <glyph glyph-name="parenleft" unicode="(" horiz-adv-x="498" 
d="M-14 -18q0 315 131 578t389 464q85 65 163 107.5t105 42.5q9 0 14 -4t5 -11q0 -13 -70.5 -56t-126.5 -89q-255 -211 -402 -514t-147 -619q0 -84 7 -165q1 -13 1 -17q0 -9 -4.5 -15t-11.5 -6q-29 0 -41 68.5t-12 235.5z" />
    <glyph glyph-name="parenright" unicode=")" horiz-adv-x="498" 
d="M475 870q0 -314 -131 -576.5t-389 -463.5q-84 -64 -163.5 -106.5t-104.5 -42.5q-8 -1 -11.5 2t-5.5 12q0 13 70 56.5t125 88.5q255 211 402 514t147 619q0 86 -7 165q-1 13 -1 15q0 9 4.5 15t11.5 6q29 0 41 -68.5t12 -235.5z" />
    <glyph glyph-name="asterisk" unicode="*" horiz-adv-x="664" 
d="M217 1018q38 0 108.5 -48t88.5 -48q14 0 19 8t5 37v28q0 105 11.5 142t39.5 37q14 0 24.5 -13.5t10.5 -30.5q0 -43 -31.5 -115.5t-31.5 -84.5q0 -9 5 -15t11 -6q5 0 75 27t114 27q20 0 32.5 -9t12.5 -22q0 -22 -33 -32.5t-98 -10.5h-64q-26 0 -35.5 -5.5t-9.5 -19.5
q0 -12 50 -70t50 -104q0 -17 -9.5 -29t-22.5 -12q-17 0 -37 30t-37 83q-6 19 -10 47q-5 35 -23 35q-26 0 -60 -66q-12 -23 -20 -37q-23 -39 -51.5 -65.5t-44.5 -26.5q-11 0 -19 11.5t-8 27.5q0 40 86 106t86 83q0 24 -64 37q-23 4 -37 7q-63 15 -91.5 32t-28.5 38
q0 12 10.5 19.5t26.5 7.5z" />
    <glyph glyph-name="plus" unicode="+" horiz-adv-x="1706" 
d="M813 1221h80v-570h559v-82h-559v-569h-80v569h-559v82h559v570z" />
    <glyph glyph-name="comma" unicode="," horiz-adv-x="295" 
d="M45 70q33 0 52.5 -24.5t19.5 -68.5q0 -88 -78.5 -192t-118.5 -104q-7 -1 -11 2.5t-5 11.5q0 7 30 38q107 108 107 189q0 22 -30.5 36t-30.5 52q0 25 18.5 42.5t46.5 17.5z" />
    <glyph glyph-name="hyphen" unicode="-" horiz-adv-x="797" 
d="M61 188l39 84q7 15 17 21t30 6h512q26 0 46 7t40 24l-39 -85q-5 -11 -15 -16.5t-32 -5.5h-512q-29 0 -47.5 -7.5t-38.5 -27.5z" />
    <glyph glyph-name="period" unicode="." horiz-adv-x="242" 
d="M31 76q22 0 38.5 -16.5t16.5 -39.5q0 -22 -16 -38.5t-39 -16.5q-22 0 -39 16.5t-17 38.5t17.5 39t38.5 17z" />
    <glyph glyph-name="slash" unicode="/" horiz-adv-x="569" 
d="M-117 -190l-4 14l758 1333l20 14h45l9 -16l-758 -1333l-16 -12h-54z" />
    <glyph glyph-name="zero" unicode="0" horiz-adv-x="711" 
d="M49 129q0 -56 33 -91.5t84 -35.5q55 0 112 47t117 141q83 129 130.5 245t47.5 183q0 65 -31.5 102.5t-86.5 37.5q-54 0 -107.5 -45.5t-114.5 -143.5q-86 -137 -135 -255t-49 -185zM-20 186q0 85 36.5 182.5t106.5 198.5q75 112 159 169t173 57t139.5 -61t50.5 -169
q0 -70 -30.5 -154.5t-98.5 -199.5q-25 -43 -52 -78t-52 -59q-52 -50 -113.5 -77.5t-122.5 -27.5q-94 0 -145 57.5t-51 161.5z" />
    <glyph glyph-name="one" unicode="1" horiz-adv-x="508" 
d="M467 793l-344 -721q-7 -14 -9.5 -22.5t-2.5 -16.5q0 -15 9 -23t25 -8q7 0 16 1t13 1q12 0 17.5 -3.5t5.5 -10.5q0 -11 -12.5 -17t-34.5 -6q-12 0 -45 7.5t-54 7.5q-22 0 -56.5 -6.5t-45.5 -6.5q-12 0 -18.5 4.5t-6.5 12.5q2 9 5.5 13t9.5 3q37 0 56.5 13.5t47.5 72.5
l309 635l-96 -23h-10q-6 0 -10.5 5t-4.5 12q0 8 5 12.5t17 7.5z" />
    <glyph glyph-name="two" unicode="2" horiz-adv-x="635" 
d="M4 41q50 9 71 11.5t38 2.5q21 0 84 -12t104 -12q83 0 138 46q11 9 14 9t5 -2.5t3 -7.5q0 -43 -52 -75t-135 -32q-48 0 -120.5 15.5t-96.5 15.5q-55 0 -116 -26q-15 -7 -19 -7q-8 0 -11.5 3t-4.5 12q0 14 47 70l10 11q85 106 254 242q57 46 82 68q91 80 117 127.5
t26 107.5q0 65 -35.5 103.5t-95.5 38.5q-63 0 -106 -43.5t-43 -106.5q0 -15 2 -33.5t2 -21.5q0 -17 -4 -21t-15 -4q-14 0 -25 25t-11 57q0 86 56.5 137.5t149.5 51.5q99 0 160.5 -56t61.5 -143q0 -122 -224 -283l-50 -36q-80 -57 -146 -116t-115 -116z" />
    <glyph glyph-name="three" unicode="3" horiz-adv-x="711" 
d="M-104 197l81 -4q13 -93 73 -146t153 -53q69 0 115.5 29t82.5 96q31 54 48.5 118t17.5 117q0 54 -19.5 77.5t-64.5 23.5q-14 0 -33 -2h-6q-8 0 -12 3t-4 9q0 17 32 26q15 4 23 7q84 27 116.5 57.5t32.5 79.5q0 50 -36 81.5t-95 31.5q-98 0 -164 -87.5t-67 -87.5
q-8 0 -12 6.5t-4 20.5q0 56 77 124.5t179 68.5q99 0 165 -49t66 -121q0 -66 -49.5 -108.5t-134.5 -49.5q48 -30 73 -76.5t25 -105.5q0 -131 -97 -225.5t-239 -94.5q-127 0 -216 64.5t-107 169.5z" />
    <glyph glyph-name="four" unicode="4" horiz-adv-x="743" 
d="M614 707q-92 -33 -275.5 -209.5t-313.5 -259.5q33 3 65.5 4.5t67.5 1.5q58 0 116 -4t115 -13zM733 791l-270 -572h22q36 0 77 8t93 25q-29 -48 -83 -74t-123 -26h-21l-39 -95q-3 -7 -4.5 -13.5t-1.5 -10.5q0 -11 5 -15t20 -4t34.5 12.5t26.5 12.5q5 0 7.5 -2t2.5 -6
q0 -25 -21.5 -40.5t-56.5 -15.5q-13 0 -39.5 3.5t-39.5 3.5q-18 0 -53 -3.5t-52 -3.5q-37 1 -45.5 2.5t-7.5 6.5q0 7 5.5 12.5t12.5 5.5q3 0 10.5 -1t12.5 -1q52 0 91 40.5t62 119.5q-69 12 -166.5 18t-224.5 6h-8q-13 0 -17.5 4t-4.5 15q0 17 69.5 67t124.5 97
q60 50 165 152q258 252 437 272z" />
    <glyph glyph-name="five" unicode="5" horiz-adv-x="711" 
d="M-4 178q0 -8 -2 -22q-2 -22 -2 -29q0 -67 29.5 -96t99.5 -29q40 0 81 15.5t79 43.5q78 61 130 154t52 170q0 84 -47 127t-139 43q-15 0 -49 -3q-5 -1 -7 -1l109 240h325q20 0 28.5 -4t8.5 -13q0 -38 -57 -58t-166 -20h-145l-41 -98h16q121 0 185.5 -61t64.5 -177
q0 -149 -133.5 -271t-302.5 -122q-99 0 -158.5 47.5t-63.5 131.5z" />
    <glyph glyph-name="six" unicode="6" horiz-adv-x="711" 
d="M14 186q0 112 108.5 260t272.5 248q69 43 133 71t84 28q5 0 8 -4t3 -9q0 -6 -83.5 -57t-158.5 -121q-128 -120 -211.5 -263.5t-83.5 -229.5q0 -52 26.5 -81.5t71.5 -29.5q33 0 76 25.5t80 68.5q52 60 81.5 128t29.5 130q0 42 -16 62t-48 20q-39 0 -83.5 -42t-51.5 -42
q-6 0 -10 4t-4 10q0 26 54.5 63.5t110.5 37.5q64 0 96.5 -38t32.5 -112q0 -136 -95.5 -241t-221.5 -105q-98 0 -149.5 56.5t-51.5 162.5z" />
    <glyph glyph-name="seven" unicode="7" horiz-adv-x="674" 
d="M641 735q-93 -17 -181 -26t-175 -9h-15q-64 0 -90 -13t-47 -46q-5 -9 -12 -23q-13 -26 -23 -26q-7 0 -12.5 5.5t-5.5 12.5q0 11 21.5 62t52.5 107q4 7 8 9t14 3q7 0 40 -5q157 -22 306 -22q94 0 173 18q11 2 14 2q6 0 10 -3.5t4 -8.5q0 -9 -78.5 -89t-142.5 -159
q-142 -172 -233 -312t-91 -177q0 -16 9.5 -23.5t27.5 -7.5q21 0 45.5 19.5t30.5 19.5q9 0 13.5 -3.5t4.5 -10.5q0 -16 -32.5 -39t-73.5 -23q-20 0 -60 12.5t-59 12.5q-16 0 -45 -9.5t-49 -9.5h-6q-7 0 -12 4.5t-5 10.5q0 11 30.5 22.5t47.5 28.5q14 14 60 82
q234 342 536 614z" />
    <glyph glyph-name="eight" unicode="8" horiz-adv-x="711" 
d="M340 440q-147 -55 -226 -131t-79 -162q0 -64 40.5 -103.5t106.5 -39.5q89 0 152 73.5t63 178.5q0 45 -14 90.5t-43 93.5zM414 506q88 25 136 69t48 99q0 40 -23.5 62t-66.5 22q-56 0 -90.5 -38t-34.5 -99q0 -21 7 -47.5t24 -67.5zM322 475q-14 31 -20.5 57t-6.5 50
q0 89 58 150t147 61q68 0 107.5 -36.5t39.5 -97.5q0 -63 -57 -113t-160 -75q33 -53 48.5 -104.5t15.5 -108.5q0 -123 -83.5 -207t-205.5 -84q-100 0 -156.5 52.5t-56.5 144.5q0 103 78.5 177.5t251.5 133.5z" />
    <glyph glyph-name="nine" unicode="9" horiz-adv-x="711" 
d="M432 793q82 0 124 -48t42 -141q0 -84 -42.5 -192.5t-117.5 -214.5q-84 -119 -172 -174.5t-192 -55.5q-51 0 -93 14t-42 27q1 10 3.5 14t6.5 3q5 0 45.5 -11.5t75.5 -11.5q81 0 156.5 55.5t138.5 161.5q66 112 114.5 253t48.5 192q0 40 -21.5 64t-57.5 24
q-33 0 -68.5 -27.5t-79.5 -85.5q-57 -76 -93 -160t-36 -129q0 -36 18.5 -57t51.5 -21q38 0 78.5 33t44.5 33q6 0 9 -3t3 -9q0 -25 -48 -61t-100 -36q-63 0 -100 42t-37 114q0 65 36.5 143t100.5 150q53 59 102 87t101 28z" />
    <glyph glyph-name="colon" unicode=":" horiz-adv-x="356" 
d="M33 76q23 0 40 -17t17 -39t-17 -38.5t-40 -16.5q-22 0 -37.5 16.5t-15.5 38.5q0 23 16 39.5t37 16.5zM221 526q23 0 40.5 -16.5t17.5 -38.5t-17 -38.5t-41 -16.5q-22 0 -37.5 16t-15.5 39t16 39t37 16z" />
    <glyph glyph-name="semicolon" unicode=";" horiz-adv-x="356" 
d="M221 526q23 0 40.5 -16.5t17.5 -38.5t-17 -38.5t-41 -16.5q-22 0 -37.5 16t-15.5 39t16 39t37 16zM51 104q32 0 51 -24.5t19 -67.5q0 -89 -77.5 -192t-117.5 -103q-8 0 -12 3.5t-4 9.5q0 7 30 38q107 108 107 189q0 22 -30.5 36.5t-30.5 47.5q0 28 18 45.5t47 17.5z" />
    <glyph glyph-name="less" unicode="&#x3c;" horiz-adv-x="1706" 
d="M1442 1124v-90l-1045 -424l1045 -424v-88l-1178 482v61z" />
    <glyph glyph-name="equal" unicode="=" horiz-adv-x="1706" 
d="M254 469h1198v-82h-1198v82zM254 831h1198v-79h-1198v79z" />
    <glyph glyph-name="greater" unicode="&#x3e;" horiz-adv-x="1706" 
d="M264 1124l1178 -483v-61l-1178 -482v88l1045 424l-1045 424v90z" />
    <glyph glyph-name="question" unicode="?" horiz-adv-x="631" 
d="M20 74q23 0 39.5 -17.5t16.5 -40.5q0 -22 -16 -38.5t-40 -16.5q-22 0 -38.5 16.5t-16.5 38.5q0 23 17.5 40.5t37.5 17.5zM420 809q-25 18 -37 49t-12 74q0 102 63.5 169.5t159.5 67.5q86 0 133 -56.5t47 -160.5q0 -119 -73.5 -206t-342.5 -222q-125 -63 -178 -106
t-53 -80q0 -22 12 -31.5t41 -9.5q20 0 26.5 -4t6.5 -14q0 -16 -13.5 -22.5t-45.5 -6.5q-37 0 -58.5 23t-21.5 63q0 43 36.5 82t161.5 114q285 172 360 260t75 195q0 62 -26.5 96.5t-72.5 34.5q-78 0 -131.5 -86t-56.5 -223z" />
    <glyph glyph-name="at" unicode="@" horiz-adv-x="2019" 
d="M1194 344q-59 -108 -138.5 -162.5t-178.5 -54.5q-115 0 -188 92t-73 240q0 106 49 214t136 193q65 65 142 101.5t151 36.5q83 0 139.5 -52t79.5 -149l57 184h121l-168 -604l-2 -6q-18 -68 -18 -103q0 -52 27.5 -81t76.5 -29q48 0 108 29t113 79q96 90 150.5 221.5
t54.5 274.5q0 291 -194.5 467t-516.5 176q-175 0 -327 -57.5t-271 -167.5q-137 -128 -206.5 -300t-69.5 -382q0 -175 55.5 -301t177.5 -232q118 -102 268 -155.5t320 -53.5q173 0 331 53.5t292 155.5l26 -30q-146 -109 -309 -164.5t-340 -55.5q-191 0 -342.5 45.5
t-271.5 139.5q-151 115 -228 275t-77 356q0 203 85 378.5t250 313.5q132 109 290.5 165t338.5 56q345 0 551.5 -186.5t206.5 -497.5q0 -156 -58 -295.5t-163 -234.5q-60 -55 -123.5 -83t-128.5 -28q-97 0 -148 55t-57 164zM1090 971q-58 0 -104.5 -31t-94.5 -102
q-74 -109 -117 -234t-43 -223q0 -100 44 -157.5t120 -57.5q67 0 131 45.5t123 134.5q59 91 93 198.5t34 198.5q0 96 -54.5 162t-131.5 66z" />
    <glyph glyph-name="A" unicode="A" horiz-adv-x="1305" 
d="M1180 1157q-64 -66 -146 -96.5t-190 -30.5q-92 0 -224 23.5t-171 23.5q-124 0 -196.5 -72t-72.5 -194q0 -51 15.5 -105t15.5 -59q0 -7 -3 -10.5t-9 -3.5q-14 0 -35 63.5t-21 126.5q0 152 104.5 250t266.5 98q55 0 192.5 -26.5t217.5 -26.5q49 0 112 9.5t144 29.5z
M1333 1104q-169 -33 -463 -494l-71 -110h8q34 0 97 -11.5t93 -11.5q23 0 34.5 0.5t23.5 2.5q83 266 144 397.5t134 226.5zM1405 1143q-75 -97 -159 -392q-47 -164 -79 -253q-40 -114 -110 -260t-70 -183q0 -21 11.5 -31t37.5 -10q17 0 35 8.5t21 8.5q6 0 10 -5.5t4 -13.5
q0 -13 -27 -30t-57 -17q-9 0 -56 11.5t-94 11.5q-33 0 -67 -16q-10 -5 -12 -5q-4 1 -5.5 4t-1.5 9q0 3 16 17q147 143 236 449q-8 -1 -15.5 -1.5t-23.5 -0.5q-31 0 -100 11.5t-106 11.5h-17q-162 -263 -312.5 -383.5t-316.5 -120.5q-117 0 -194.5 61.5t-77.5 149.5
q2 7 6.5 10t12.5 2q12 0 14 -20l2 -15q13 -64 75 -106.5t146 -42.5q89 0 172 46.5t168 144.5q28 31 157 221l232 334q145 204 272 300.5t248 96.5q4 0 12.5 -1t12.5 -1z" />
    <glyph glyph-name="B" unicode="B" horiz-adv-x="1352" 
d="M975 934q-99 -92 -217 -369q-48 -113 -76 -172q-106 -220 -235.5 -326t-292.5 -106q-107 0 -197 66t-90 112q0 5 4 10t8 5t20 -21q105 -137 248 -137q122 0 230 104.5t209 321.5l33 73q181 396 356 439zM586 1171q71 0 230.5 -30.5t256.5 -30.5q68 0 140 22.5t87 22.5
q47 0 71 -33.5t24 -97.5q0 -94 -50.5 -166t-150.5 -121q-36 -17 -90.5 -33t-54.5 -32q0 -4 23 -17.5t42 -29.5q60 -51 95.5 -130t35.5 -159q0 -157 -106.5 -262t-266.5 -105q-93 0 -183.5 46.5t-90.5 76.5q0 7 3 10.5t9 3.5q5 0 25 -15q103 -77 217 -77q134 0 219.5 92.5
t85.5 233.5q0 82 -26.5 146t-88.5 128q-2 3 -7 8q-36 35 -36 50q0 38 65 70q50 25 79 46q89 66 138.5 140t49.5 139q0 29 -9.5 43t-29.5 14l-100.5 -53t-226.5 -53q-89 0 -237 34.5t-208 34.5q-144 0 -239 -88t-95 -219q0 -40 20 -80q5 -11 5 -14q-1 -7 -4 -9.5t-10 -2.5
q-20 0 -38 43.5t-18 99.5q0 157 122 255.5t323 98.5z" />
    <glyph glyph-name="C" unicode="C" horiz-adv-x="1176" 
d="M1145 1178q43 -53 64.5 -107t21.5 -110q0 -74 -40.5 -117t-109.5 -43q-42 0 -73 18t-50 53q26 -18 46.5 -26t42.5 -8q42 0 65 26.5t23 77.5t-21 96.5t-63 85.5q-29 -3 -47 -4.5t-29 -1.5q-39 0 -91 4t-65 4q-248 0 -420 -196t-172 -469q0 -204 112.5 -331.5t289.5 -127.5
q167 0 283 132.5t116 320.5q0 67 -35 138q-8 17 -8 21q0 8 4.5 12.5t11.5 4.5q19 0 46.5 -72.5t27.5 -150.5q0 -195 -130.5 -321t-340.5 -126q-218 0 -351.5 138.5t-133.5 367.5q0 287 191 495.5t452 208.5q40 0 113.5 -6t107.5 -6q39 0 78 4.5t84 14.5z" />
    <glyph glyph-name="D" unicode="D" horiz-adv-x="1245" 
d="M782 1012q7 -1 11.5 -3t5.5 -5q0 -10 -26 -32l-1 -1q-61 -56 -103.5 -130t-96.5 -240l-2 -5q-100 -300 -222 -408q-38 -33 -82 -57.5t-57 -24.5q-6 1 -9 4t-3 7q0 7 23 21q10 6 16 9q85 56 192 361l6 18l3 8q71 196 138 293q52 75 117 130t90 55zM119 768q0 177 129 290
t336 113q246 0 418 -159.5t172 -384.5q0 -288 -188 -476t-484 -188q-168 0 -317.5 78.5t-149.5 124.5q0 7 3.5 10.5t10.5 3.5q5 0 31 -21q185 -151 405 -151q140 0 242.5 45t183.5 142q78 93 121 211.5t43 238.5q0 221 -140 353t-374 132q-179 0 -292 -104t-113 -266
q0 -42 11 -81.5l11 -39.5q0 -7 -3.5 -10.5t-10.5 -3.5q-16 0 -30.5 43t-14.5 100z" />
    <glyph glyph-name="E" unicode="E" horiz-adv-x="1174" 
d="M547 762q-64 23 -98.5 69.5t-34.5 108.5q0 106 86 168.5t233 62.5q138 0 235 -68t97 -157q0 -53 -29.5 -84t-81.5 -31q-54 0 -99.5 44t-45.5 79q0 8 3.5 11.5t10.5 3.5q1 0 32.5 -33t72.5 -33q29 0 45 17t16 49q0 65 -68.5 114.5t-164.5 49.5q-108 0 -170 -49t-62 -134
q0 -72 50.5 -130.5t50.5 -67.5q0 -20 -48 -31q-46 -11 -78 -25q-145 -63 -214.5 -152.5t-69.5 -215.5q0 -148 105.5 -237t279.5 -89q205 0 334 129.5t129 327.5q0 11 -1 30t-1 27q0 6 4 10t10 4q12 0 16.5 -17.5t4.5 -74.5q0 -206 -142.5 -340.5t-371.5 -134.5
q-223 0 -355.5 104.5t-132.5 276.5q0 164 123 278.5t330 139.5z" />
    <glyph glyph-name="F" unicode="F" horiz-adv-x="1057" 
d="M877 541q-152 -323 -296 -451.5t-341 -128.5q-147 0 -250 72t-103 166q2 5 5 7.5t8 2.5q6 0 16 -27t21 -43q39 -60 119 -98.5t165 -38.5q142 0 256.5 103t259.5 376q-77 -42 -155 -99.5t-88 -57.5q-7 0 -11 3t-4 9q0 14 79 71t212 138q93 192 174.5 315t163.5 195
q-62 -29 -110 -42.5t-93 -13.5q-69 0 -196 42t-185 42q-108 0 -182 -69.5t-74 -171.5q0 -74 49 -152q13 -21 13 -26q0 -8 -2 -11.5t-6 -3.5q-21 0 -56 74t-35 143q0 130 96 217.5t240 87.5q76 0 226 -47t215 -47q88 0 178 52q14 8 16 8q8 -1 11 -3.5t4 -9.5q0 -6 -35 -53
q-167 -223 -291 -487q27 10 53.5 15t54.5 5q53 0 85 -20.5t32 -53.5q0 -22 -14 -35.5t-39 -13.5q-23 0 -62.5 34t-80.5 34q-8 0 -16.5 -1.5t-26.5 -6.5z" />
    <glyph glyph-name="G" unicode="G" horiz-adv-x="999" 
d="M1042 588q-40 -42 -91.5 -135t-71.5 -123q-128 -199 -260 -283t-314 -84q-156 0 -295 76t-139 131q0 5 4.5 9t9.5 3q3 0 19 -16q157 -164 377 -164q113 0 200.5 42t178.5 143q13 15 93.5 132.5l151.5 214.5q-55 -8 -202 -44.5t-230 -36.5q-155 0 -246.5 79t-91.5 213
q0 195 166 310.5t451 115.5q185 0 291 -59.5t106 -161.5q0 -66 -37.5 -107.5t-95.5 -41.5q-53 0 -90 32.5t-37 75.5q0 10 3.5 21.5t10.5 25.5q8 -33 26.5 -50t47.5 -17q37 0 61.5 25.5t24.5 64.5q0 70 -79.5 112t-215.5 42q-235 0 -383.5 -111t-148.5 -279q0 -117 73 -182
t205 -65q52 0 226 42t302 50z" />
    <glyph glyph-name="H" unicode="H" horiz-adv-x="1460" 
d="M873 -35q109 59 245 417q41 110 66 171q-139 21 -239.5 30t-184.5 9q-126 -324 -278.5 -476.5t-350.5 -152.5q-112 0 -203.5 64t-91.5 112q2 9 4.5 12t7.5 3q6 0 27 -24q113 -128 250 -128q149 0 284 148t242 427q-20 -3 -46 -11.5t-34 -8.5q-7 0 -12.5 5.5t-5.5 12.5
q0 20 74 39q30 8 47 13q95 216 160 322t131 157q-48 -23 -93.5 -34t-93.5 -11q-71 0 -182.5 33.5t-149.5 33.5q-92 0 -187 -120q-25 -31 -32 -31t-11.5 5t-4.5 13q0 44 89.5 111.5t193.5 67.5q49 0 160 -29t171 -29q89 0 186 45q22 10 27 10q10 0 15.5 -3t5.5 -9
q0 -5 -23 -34q-157 -200 -264 -492q95 -2 200.5 -13t229.5 -32q151 375 238 480.5t202 105.5q61 0 114.5 -27.5t53.5 -50.5q0 -7 -5.5 -12t-12.5 -5q-4 0 -20 11q-62 38 -119 38q-86 0 -149.5 -90t-190.5 -454h12q29 0 61 5t35 5q10 0 14 -2.5t5 -9.5q0 -16 -33 -25
t-113 -15q-89 -210 -134.5 -333t-45.5 -154q0 -27 15.5 -39t50.5 -12q29 0 57 11.5t31 11.5q6 0 10 -3t4 -8q0 -19 -38 -36t-87 -17q-22 0 -76 10.5t-86 10.5q-26 0 -57 -5t-65 -14z" />
    <glyph glyph-name="I" unicode="I" horiz-adv-x="930" 
d="M1067 1108q-132 -25 -290 -34.5t-183 -14.5q-157 -33 -246.5 -128.5t-89.5 -228.5q0 -75 33.5 -139t91.5 -102q16 -10 42 -22q30 -14 30 -25q-1 -7 -4 -9.5t-11 -3.5q-63 0 -142 90.5t-79 210.5q0 186 160 329t379 143q62 0 158 -10.5t131 -10.5q29 0 58 6t30 6
q7 0 10 -2.5t4 -9.5q0 -5 -22 -33q-129 -167 -226 -407l-40 -106q-100 -264 -183 -380q-93 -129 -220 -199.5t-268 -70.5q-107 0 -186.5 49.5t-79.5 97.5q0 7 4 11t11 4q4 0 17 -18q90 -115 255 -115q131 0 257.5 124.5t242.5 368.5q24 51 68 155q142 333 288 474z" />
    <glyph glyph-name="J" unicode="J" horiz-adv-x="770" 
d="M948 1112q-55 -33 -136 -52.5t-167 -19.5q-60 0 -151.5 15.5t-120.5 15.5q-95 0 -151 -56t-56 -151q0 -10 5 -28.5t5 -26.5t-4 -12t-10 -4q-14 0 -24.5 27.5t-10.5 68.5q0 124 87 203t224 79q39 0 149 -19t181 -19q167 0 269 76q10 8 12 8q3 0 6.5 -4t3.5 -7
q0 -8 -35 -54.5t-61 -88.5q-96 -156 -222 -463l-53 -127q-169 -398 -339 -585t-361 -187q-103 0 -172.5 62t-69.5 149q0 54 32.5 89.5t80.5 35.5q41 0 63.5 -20t22.5 -56q0 -40 -30.5 -63t-82.5 -23q-2 0 -12 1t-17 1q13 -66 61 -103.5t122 -37.5q124 0 242 129.5t255 419.5
l85 184q208 461 380 643z" />
    <glyph glyph-name="K" unicode="K" horiz-adv-x="1479" 
d="M1155 1130q-103 -159 -189 -320.5t-159 -332.5q373 361 594 515.5t360 154.5q67 0 103.5 -32.5t36.5 -92.5q0 -18 -6 -28.5t-15 -10.5q-6 0 -9 7.5t-3 21.5q0 54 -26.5 77t-88.5 23q-90 0 -226.5 -79.5t-312.5 -233.5q-89 -234 -132.5 -394.5t-43.5 -257.5
q0 -71 33.5 -108t97.5 -37q98 0 159 101q15 26 22 26q5 0 9.5 -3.5t4.5 -8.5q0 -47 -65.5 -102.5t-155.5 -55.5q-98 0 -147.5 58.5t-49.5 172.5q0 84 29.5 205t85.5 271q-251 -212 -419 -432q-13 -18 -18 -24q-117 -140 -218 -194.5t-232 -54.5q-136 0 -236 66t-100 123
q2 6 5 9.5t5 2.5q5 0 22 -21q119 -139 286 -139q139 0 247 90t289 391q34 55 96 170q159 294 285 424q-69 -27 -128 -40t-114 -13q-73 0 -187.5 27.5t-149.5 27.5q-96 0 -146.5 -48t-50.5 -138q0 -59 26 -108q5 -9 5 -11q0 -4 -4 -8t-9 -4q-15 0 -35 51t-20 107
q0 114 74 182.5t198 68.5q66 0 200 -35.5t206 -35.5q32 0 80.5 6.5t136.5 23.5z" />
    <glyph glyph-name="L" unicode="L" horiz-adv-x="1057" 
d="M807 1169q126 0 210.5 -73.5t84.5 -184.5q0 -72 -50.5 -127t-93.5 -55q-7 1 -10 3.5t-4 8.5q0 8 27 24q92 53 92 138q0 98 -67 158.5t-175 60.5q-233 0 -504 -522l-71 -137q-56 -107 -113.5 -192.5t-114.5 -145.5q-38 -42 -88.5 -75.5t-50.5 -45.5q2 -6 6 -8.5t11 -1.5
l97 46t210 46q33 0 160.5 -17.5t220.5 -17.5q158 0 255 82t97 213q0 90 -59.5 144.5t-155.5 54.5q-56 0 -115.5 -13.5t-62.5 -13.5q-10 1 -14 4.5t-5 12.5q0 16 52.5 28t125.5 12q128 0 195.5 -63t67.5 -182q0 -165 -119 -264t-320 -99q-94 0 -234.5 28t-182.5 28
q-71 0 -144 -32t-84 -32q-18 0 -29.5 10t-11.5 27q0 14 43 62q33 37 54 63q45 55 96.5 139.5t134.5 243.5l62 122q102 204 167 298q89 128 187.5 186.5t222.5 58.5z" />
    <glyph glyph-name="M" unicode="M" horiz-adv-x="1493" 
d="M1133 922l-388 -844q-3 -8 -5.5 -16.5t-2.5 -16.5q0 -21 9.5 -32t27.5 -11t39 18.5t29 18.5q5 0 7.5 -5t2.5 -14q0 -19 -31.5 -38t-70.5 -19q-12 0 -50.5 7t-64.5 7q-29 0 -68 -7t-49 -7q-17 0 -23 4t-6 13q0 13 63.5 42.5t100.5 83.5l375 816h105zM809 948l-281 -596
q-99 -211 -212.5 -300t-276.5 -89q-82 0 -142.5 33t-60.5 61q0 6 4 10.5t10 4.5q2 0 8 -7q68 -63 167 -63q118 0 220 94t189 283l230 498l-54 -11q-4 -1 -8 -1.5t-10 -0.5t-10 5t-4 12q0 8 5 13t23 11zM1511 948q15 -2 30 -3t38 -1q77 0 150 48.5t73 88.5q0 16 -11.5 27.5
t-27.5 11.5q-53 0 -126.5 -48t-125.5 -124zM1444 975q79 88 158 135t145 47q42 0 66 -21.5t24 -60.5q0 -73 -69 -122.5t-177 -49.5q-19 0 -47 2.5t-78 7.5q-166 -255 -251 -444.5t-85 -304.5q0 -74 35 -118t92 -44q60 0 118 54q17 16 22 16t9.5 -4.5t4.5 -10.5
q0 -22 -57 -58t-117 -36q-87 0 -135.5 58.5t-48.5 162.5q0 118 63.5 261.5t288.5 480.5q-105 22 -298 72q-359 94 -517 94q-192 0 -314 -89t-122 -223q0 -68 44 -150q13 -22 13 -28q-1 -6 -6.5 -10t-11.5 -4q-23 0 -48.5 63t-25.5 140q0 173 130 275.5t355 102.5
q149 0 365 -50t475 -144z" />
    <glyph glyph-name="N" unicode="N" horiz-adv-x="1403" 
d="M709 657q-69 -378 -181 -536t-307 -158q-91 0 -146 46t-55 122q0 41 9 63.5t24 22.5q2 0 5 -4.5t3 -9.5q0 -3 -5 -24t-5 -40q0 -69 48 -107t134 -38q181 0 289.5 180.5t165.5 581.5q-47 185 -116.5 271.5t-170.5 86.5q-114 0 -179.5 -72t-65.5 -198q0 -114 64 -221
q11 -19 11 -23q0 -6 -4 -10t-10 -4q-23 0 -60.5 88t-37.5 180q0 145 80.5 231t214.5 86q125 0 197 -65.5t128 -243.5l41 -131q106 -348 181 -498q34 399 188 644t360 245q80 0 152 -39t72 -65q0 -5 -5.5 -9.5t-11.5 -4.5q-3 0 -16 10q-79 59 -174 59q-99 0 -192 -68
t-167 -194q-76 -132 -121 -281.5t-45 -271.5q0 -127 39.5 -195.5t112.5 -68.5q66 0 102.5 51t40.5 51q5 0 9.5 -5t5.5 -11q0 -34 -49.5 -75.5t-114.5 -41.5q-133 0 -240 169t-198 525z" />
    <glyph glyph-name="O" unicode="O" horiz-adv-x="1253" 
d="M829 1135q-101 0 -182 -62t-125 -174q-8 -21 -19 -57q-16 -51 -28 -51q-7 0 -10.5 5t-3.5 15q0 131 110.5 245.5t259.5 114.5q158 0 255.5 -122t97.5 -324q0 -143 -49.5 -287.5t-135.5 -253.5q-87 -111 -199 -167t-245 -56q-203 0 -319.5 120t-116.5 329q0 148 68 304
t190 287q54 58 102.5 97t63.5 39q4 0 7 -2.5t3 -6.5q0 -13 -40 -55q-35 -37 -56 -63q-109 -133 -169.5 -295.5t-60.5 -321.5q0 -186 81.5 -288.5t228.5 -102.5q118 0 217.5 70.5t189.5 218.5q73 121 112.5 250t39.5 247q0 165 -70 256t-197 91z" />
    <glyph glyph-name="P" unicode="P" horiz-adv-x="1161" 
d="M889 961q-81 -111 -176 -370q-42 -113 -66 -169q-108 -253 -221.5 -356t-278.5 -103q-94 0 -168.5 36t-74.5 64q0 6 3 10.5t7 4.5q3 -1 15 -10q94 -72 202 -72q55 0 112 23t105 65q67 60 163 281q24 56 38 86q99 223 176.5 337t163.5 173zM788 532h13q235 0 363 112.5
t128 318.5q0 80 -15.5 123.5t-43.5 43.5q-11 0 -46 -18q-136 -74 -290 -74q-91 0 -220 20.5t-167 20.5q-152 0 -255 -92t-103 -229q0 -34 7 -69.5t7 -37.5q0 -4 -3.5 -7t-8.5 -3q-15 0 -25 39t-10 100q0 173 137.5 283.5t353.5 110.5q88 0 228.5 -27t191.5 -27
q61 0 135.5 21.5t87.5 21.5q47 0 89 -94t42 -197q0 -159 -124 -265.5t-312 -106.5q-46 0 -85.5 8t-74.5 24z" />
    <glyph glyph-name="Q" unicode="Q" horiz-adv-x="1042" 
d="M238 82q45 3 78 4.5t53 1.5q77 0 193.5 -22.5t154.5 -22.5q76 0 129.5 42t54.5 42q9 0 13 -2t4 -6q0 -43 -98 -99.5t-212 -56.5q-41 0 -166 20.5t-206 20.5q-89 0 -171 -24q-15 -5 -18 -5q-6 0 -12 5.5t-6 11.5q0 8 82.5 52t169.5 106l42 29q590 415 590 644
q0 139 -89 227.5t-230 88.5q-173 0 -284 -116t-111 -302q0 -76 23.5 -131.5t70.5 -87.5q17 -13 42 -22t25 -17t-3.5 -12t-10.5 -5q-83 0 -155 86.5t-72 206.5q0 187 134.5 309.5t342.5 122.5q184 0 301 -102t117 -260q0 -267 -745 -708z" />
    <glyph glyph-name="R" unicode="R" horiz-adv-x="1298" 
d="M961 985q-61 -44 -121.5 -138.5t-165.5 -322.5l-55 -121q-117 -264 -201 -337q-57 -50 -125.5 -76.5t-138.5 -26.5q-108 0 -184 62.5t-76 121.5q0 7 4 12t10 5q11 0 21 -29q4 -12 8 -21q26 -56 81 -90t121 -34q59 0 129.5 43.5t120.5 113.5q50 68 190 363l74 154
q86 178 153 245.5t155 75.5zM913 580l80 -465q0 -2 1 -4q14 -84 55 -84q27 0 61.5 30.5t38.5 30.5q5 0 9.5 -5.5t4.5 -12.5q0 -24 -49.5 -65.5t-99.5 -41.5q-48 0 -72.5 29.5t-38.5 109.5l-88 500h8q84 0 171.5 34.5t166.5 98.5q78 63 129 149.5t51 147.5q0 41 -19.5 66.5
t-49.5 25.5q-13 0 -59 -18q-156 -64 -300 -64q-89 0 -223.5 27t-179.5 27q-153 0 -253.5 -95t-100.5 -241q0 -81 43 -167q8 -15 8 -18q-1 -3 -4 -6t-6 -4q-19 0 -48.5 69t-29.5 140q0 174 132.5 285.5t338.5 111.5q85 0 236 -31.5t216 -31.5q61 0 141 23.5t101 23.5
q47 0 74.5 -45.5t27.5 -124.5q0 -165 -128 -275.5t-345 -129.5z" />
    <glyph glyph-name="S" unicode="S" horiz-adv-x="1204" 
d="M561 467q-42 15 -75.5 22t-61.5 7q-84 0 -136 -57.5t-52 -149.5q0 -127 111.5 -209t287.5 -82q165 0 271 92t106 234q0 63 -34 135.5t-97 142.5q-33 37 -99 99q-157 147 -157 257q0 95 72 154t190 59q114 0 190 -52t76 -128q0 -36 -22.5 -58t-61.5 -22q-40 0 -63.5 25.5
t-26.5 70.5q15 -10 29 -16t24 -6q20 0 32.5 13t12.5 34q0 44 -50 75.5t-124 31.5q-102 0 -161.5 -42.5t-59.5 -113.5q0 -84 147 -211q48 -41 74 -65q120 -111 160.5 -183.5t40.5 -158.5q0 -171 -135 -286.5t-336 -115.5q-221 0 -351 93t-130 247q0 109 65.5 176.5
t171.5 67.5q59 0 102.5 -20.5t69.5 -59.5z" />
    <glyph glyph-name="T" unicode="T" horiz-adv-x="909" 
d="M1063 1077q-51 -14 -103.5 -21t-109.5 -7q-86 0 -209.5 16t-159.5 16q-151 0 -239 -71t-88 -191q0 -85 59 -149q14 -16 14 -21q0 -4 -3 -7t-7 -3q-26 0 -62 62.5t-36 136.5q0 149 117.5 240t312.5 91q67 0 219 -29.5t231 -29.5q44 0 87 13.5t47 13.5q10 -1 14 -5t4 -16
q0 -7 -31 -49q-132 -176 -223 -387l-72 -175q-94 -237 -151 -337q-60 -105 -155 -156t-228 -51q-131 0 -222.5 71t-91.5 156q0 10 4.5 15.5t12.5 5.5q6 0 10 -22t10 -35q34 -69 105.5 -109.5t161.5 -40.5q98 0 164.5 36t123.5 122q49 72 125 271q40 103 64 159
q65 158 137.5 272.5t167.5 214.5z" />
    <glyph glyph-name="U" unicode="U" horiz-adv-x="1313" 
d="M1536 1165q-100 -106 -201.5 -303t-187.5 -452l-106 -317q-2 -6 -7 -19q-8 -24 -8 -35q0 -15 8 -23t23 -8q16 0 37.5 21.5t27.5 21.5t10.5 -4t4.5 -10q0 -26 -29.5 -50t-67.5 -24q-13 0 -51 9.5t-63 9.5q-11 0 -55.5 -8.5t-77.5 -8.5q-15 0 -22 3.5t-7 11.5q0 7 4.5 12.5
t9.5 5.5q8 0 19 -1t16 -1q49 0 78.5 25.5t56.5 99.5l90 239l98 255l72 178l-151 -242q-366 -588 -551 -588q-59 0 -91 31.5t-32 89.5q0 57 44 178.5t122 276.5q32 64 91 172q110 198 110 270q0 69 -42.5 112.5t-109.5 43.5q-141 0 -263 -163t-122 -353q0 -141 106 -227
q15 -12 15 -15q0 -5 -3 -7.5t-9 -2.5t-28.5 12.5t-43.5 30.5q-70 55 -100.5 116t-30.5 144q0 191 141.5 345t319.5 154q105 0 166 -63.5t61 -173.5q0 -112 -150 -401l-12 -23q-100 -193 -139 -288.5t-39 -141.5q0 -37 17 -54.5t53 -17.5q69 0 169.5 100t211.5 279l12 21
q411 671 606 757z" />
    <glyph glyph-name="V" unicode="V" horiz-adv-x="1006" 
d="M453 1075q-31 -13 -61 -19.5t-62 -6.5q-44 0 -111.5 21.5t-93.5 21.5q-45 0 -69.5 -25.5t-24.5 -71.5q0 -49 30 -86q9 -10 9 -14q-1 -5 -4.5 -7.5t-8.5 -2.5q-16 0 -37.5 40t-21.5 87q0 70 48 114.5t124 44.5q40 0 122.5 -24.5t123.5 -24.5q59 0 112 39q11 8 15 8
q6 0 10 -4t4 -10q0 -11 -60 -107.5t-106 -189.5q-81 -168 -125.5 -329.5t-44.5 -284.5q0 -119 51.5 -185.5t141.5 -66.5q94 0 198 83t207 242q97 151 152 301t55 261q0 115 -31 187.5t-80 72.5q-11 0 -24.5 -5.5t-16.5 -5.5q-6 0 -10 3.5t-4 9.5q0 9 16 15.5t39 6.5
q63 0 102.5 -78.5t39.5 -207.5q0 -147 -51 -302t-146 -296q-109 -163 -220.5 -240.5t-236.5 -77.5q-134 0 -209 89.5t-75 250.5q0 163 79.5 348t254.5 426z" />
    <glyph glyph-name="W" unicode="W" horiz-adv-x="1305" 
d="M612 123q114 141 178 294.5t64 278.5q0 64 -24 99.5t-66 35.5q-75 0 -137 -147t-62 -336q0 -64 11.5 -119t35.5 -106zM539 1108q-38 -24 -70.5 -35.5t-65.5 -11.5q-41 0 -109 21.5t-89 21.5q-48 0 -85 -38t-38 -38q-4 0 -7 3.5t-3 8.5q0 30 59 77.5t131 47.5q26 0 96 -14
t113 -14q69 0 128 30q12 7 15 7q5 0 10 -4t5 -9q0 -2 -72 -102t-137 -213q-99 -174 -152 -340.5t-53 -302.5q0 -101 39.5 -151t118.5 -50q55 0 111 24t100 66q-27 64 -40.5 131t-13.5 135q0 212 73.5 363t166.5 151q59 0 89 -44.5t30 -131.5q0 -145 -70 -309t-192 -299
q23 -34 51.5 -49.5t66.5 -15.5q84 0 177.5 85t177.5 240q78 146 123 304.5t45 283.5q0 171 -98 309q-17 23 -17 29q0 4 4 8t8 4q40 0 106 -143.5t66 -298.5q0 -116 -40.5 -256.5t-110.5 -265.5q-93 -165 -200 -249.5t-222 -84.5q-56 0 -94 17.5t-66 55.5q-57 -48 -120 -73
t-126 -25q-109 0 -174 77.5t-65 207.5q0 253 396 825z" />
    <glyph glyph-name="X" unicode="X" horiz-adv-x="1081" 
d="M651 566l-20 96q-101 471 -209 471q-56 0 -96 -56.5t-41 -56.5q-5 0 -8.5 4t-4.5 10q0 36 53 86.5t115 50.5q83 0 144 -97t143 -382q168 265 283 369t231 104q42 0 76.5 -12.5t34.5 -24.5q0 -6 -4.5 -10t-10.5 -4q-1 0 -10 3q-39 13 -78 13q-111 0 -231.5 -120.5
t-269.5 -384.5l104 -492q18 -83 35.5 -105t54.5 -22q14 0 29.5 5t17.5 5q5 0 9.5 -4t5.5 -8q0 -14 -23.5 -26.5t-54.5 -12.5q-26 0 -58.5 7.5t-40.5 7.5q-28 0 -68 -9.5t-54 -9.5q-19 0 -29 5.5t-10 15.5q0 6 5.5 9t16.5 3q2 0 12.5 -1t20.5 -1q21 0 34 13.5t13 35.5
q0 7 -8 46q-4 21 -6 33l-82 382q-200 -299 -349.5 -420t-308.5 -121q-76 0 -114.5 29t-38.5 86q0 43 29 86t42 43q7 -1 10 -3.5t3 -6.5t-25.5 -41.5t-25.5 -75.5q0 -37 27 -58.5t75 -21.5q153 0 314.5 140t340.5 428z" />
    <glyph glyph-name="Y" unicode="Y" horiz-adv-x="1034" 
d="M365 1098q-40 -21 -73 -30t-67 -9q-46 0 -112.5 20.5t-85.5 20.5q-39 0 -72 -31t-35 -31q-4 0 -8 5t-4 10q0 30 64 74t143 44q32 0 97 -17t95 -17q42 0 88 18.5t49 18.5q6 0 10.5 -5t4.5 -12q0 -6 -36.5 -65t-66.5 -113q-71 -133 -107 -255.5t-36 -236.5
q0 -137 57 -215.5t156 -78.5q96 0 190 92t179 268q67 141 103 297t36 307v37q0 12 3.5 18t10.5 7q19 0 30 -73.5t11 -205.5q0 -198 -49.5 -400t-142.5 -382q-138 -268 -328.5 -422t-382.5 -154q-120 0 -203.5 72.5t-83.5 167.5q1 13 5 19.5t10 4.5q11 -7 17 -33.5t14 -45.5
q27 -66 82 -99t141 -33q237 0 476 290t335 720q-123 -279 -246 -412t-258 -133q-122 0 -189 87t-67 245q0 145 51.5 290.5t194.5 375.5z" />
    <glyph glyph-name="Z" unicode="Z" horiz-adv-x="1157" 
d="M821 1012q-7 -1 -22 -4q-57 -9 -82 -9q-88 0 -231.5 51.5t-194.5 51.5q-55 0 -94 -38.5t-39 -92.5q0 -51 25 -99q5 -11 5 -14q0 -6 -5 -11t-11 -5q-17 0 -35 36.5t-18 79.5q0 98 65 155.5t176 57.5q70 0 220 -43t231 -43q32 0 75 6.5t115 22.5q-223 -184 -443 -463
l-36 -45l-2 -2q-355 -436 -514 -557q57 22 114 32.5t113 10.5q100 0 252 -40t207 -40q139 0 234.5 107.5t95.5 259.5q0 28 -6 57.5t-6 30.5q0 4 4 7t10 3q13 0 22 -36t9 -89q0 -175 -118 -281t-319 -106q-69 0 -217.5 22.5t-226.5 22.5q-128 0 -256 -37q-27 -8 -33 -8
q-3 0 -5.5 3t-4.5 9q0 4 23 25q136 125 282 324l20 26q358 488 621 662z" />
    <glyph glyph-name="bracketleft" unicode="[" horiz-adv-x="498" 
d="M-143 -268h186q19 0 26 -6t7 -19q-1 -14 -7 -18t-28 -4h-301l696 1486h301q23 0 30 -4.5t7 -17.5t-7 -18.5t-28 -6.5h-221z" />
    <glyph glyph-name="backslash" unicode="\" horiz-adv-x="569" 
d="M102 1171h56l12 -10l221 -1331l-6 -20h-53l-15 16l-223 1333z" />
    <glyph glyph-name="bracketright" unicode="]" horiz-adv-x="498" 
d="M655 1124h-184q-23 0 -29 6t-6 21q1 12 8 16t29 4h301l-698 -1486h-301q-21 -1 -27.5 3.5t-7.5 18.5q1 14 8 19.5t27 5.5h219z" />
    <glyph glyph-name="asciicircum" unicode="^" horiz-adv-x="2048" 
d="M946 1462h152l534 -565h-84l-526 465l-530 -465h-80z" />
    <glyph glyph-name="underscore" unicode="_" 
d="M0 -403h1024v-80h-1024v80z" />
    <glyph glyph-name="grave" unicode="`" 
d="M481 823q0 22 10.5 33.5t28.5 11.5q34 0 60 -65q13 -33 22 -47q28 -47 74.5 -80t46.5 -37q0 -5 -3 -7.5t-9 -2.5q-42 0 -136 71t-94 123z" />
    <glyph glyph-name="a" unicode="a" horiz-adv-x="735" 
d="M559 496h-33q-195 0 -325.5 -98.5t-130.5 -233.5q0 -70 37.5 -107t109.5 -37q35 0 68.5 13t70.5 41q31 108 81 212t122 210zM659 512q-98 -177 -150 -296t-52 -165q0 -28 14.5 -45.5t38.5 -17.5q47 0 63 39t23 39q5 0 7.5 -3t2.5 -8q0 -36 -27.5 -63t-70.5 -27
q-11 0 -51 7.5t-70 7.5q-15 0 -23 -0.5t-16 -1.5l-12 55q-48 -35 -91 -51.5t-85 -16.5q-82 0 -130 49t-48 131q0 149 156.5 264t371.5 115q49 0 84 -3t65 -9z" />
    <glyph glyph-name="b" unicode="b" horiz-adv-x="688" 
d="M53 76q16 -34 50 -52t83 -18q118 0 221 116t103 238q0 65 -33.5 99.5t-97.5 34.5q-32 0 -71.5 -15t-84.5 -43q-36 -93 -144 -310zM-14 135l248.5 543.5t162.5 349.5q43 75 90.5 109t108.5 34q38 0 67 -12t29 -24q0 -6 -3.5 -10.5t-8.5 -4.5q-2 0 -11 4q-34 15 -67 15
q-111 0 -217 -284l-6 -17l-127 -344q46 17 86 25.5t76 8.5q91 0 144.5 -50t53.5 -136q0 -144 -116 -259.5t-267 -115.5q-91 0 -149.5 40t-93.5 128z" />
    <glyph glyph-name="c" unicode="c" horiz-adv-x="592" 
d="M504 522q10 -22 15 -40t5 -31q0 -52 -31 -84.5t-77 -32.5q-30 0 -49 16.5t-25 46.5q2 0 7 -1q29 -7 38 -7q31 0 47.5 16.5t16.5 47.5q0 7 -3 22q-1 5 -2 8q-28 3 -50 4.5t-31 1.5q-116 0 -197.5 -92t-81.5 -215q0 -80 40.5 -128t106.5 -48q104 0 182 113q15 22 19 22
q5 0 7.5 -2t2.5 -6q0 -48 -77 -106t-181 -58q-90 0 -145 61t-55 160q0 132 96 234t221 102q25 0 72 -6t67 -6q18 0 53 7q6 1 9 1z" />
    <glyph glyph-name="d" unicode="d" horiz-adv-x="711" 
d="M70 125q0 -65 32.5 -101t92.5 -36q42 0 89.5 30.5t88.5 83.5q46 62 75 138t29 131q0 52 -33 85t-84 33q-106 0 -198 -118.5t-92 -245.5zM508 410q61 136 150 355q167 406 264 406q25 0 47 -18t22 -31q0 -4 -4.5 -9t-9.5 -5q-3 0 -22 14.5t-35 14.5q-46 0 -122 -231
q-48 -147 -83 -242q-171 -464 -273 -583.5t-247 -119.5q-101 0 -156 53t-55 150q0 142 105.5 254t240.5 112q72 0 119 -31.5t59 -88.5z" />
    <glyph glyph-name="e" unicode="e" horiz-adv-x="639" 
d="M90 252q26 -14 51.5 -20.5t55.5 -6.5q106 0 195 58.5t89 119.5q0 42 -26.5 65.5t-73.5 23.5q-95 0 -177.5 -67t-113.5 -173zM90 217q-2 -6 -2 -22q0 -82 51 -131.5t135 -49.5q73 0 164 47q21 11 25 11q3 -1 5.5 -4t2.5 -7q0 -22 -88 -58t-178 -36q-102 0 -160.5 58
t-58.5 157q0 140 130.5 242t311.5 102q72 0 108.5 -27.5t36.5 -82.5q0 -89 -106.5 -160.5t-241.5 -71.5q-40 0 -72.5 8t-62.5 25z" />
    <glyph glyph-name="f" unicode="f" horiz-adv-x="451" 
d="M299 510q26 11 46 15.5t40 4.5q31 0 49.5 -14.5t18.5 -38.5q0 -20 -11.5 -31.5t-31.5 -11.5q-25 0 -37.5 25.5t-30.5 25.5q-23 0 -41.5 -13t-32.5 -40l-90.5 -200t-200.5 -363q-116 -173 -261 -279t-238 -106q-4 0 -6.5 2.5t-3.5 9.5q0 6 29 15q179 56 321 243
q162 216 390 755q91 215 140 322q76 168 152 253t149 85q37 0 59.5 -19.5t22.5 -51.5q0 -21 -10.5 -32t-30.5 -11q-19 0 -28 8t-9 24q0 6 2 15.5t2 11.5q0 16 -6.5 23.5t-21.5 7.5q-73 0 -217 -361z" />
    <glyph glyph-name="g" unicode="g" horiz-adv-x="653" 
d="M569 489h-28q-200 0 -331.5 -103t-131.5 -249q0 -59 27.5 -91t78.5 -32q27 0 57.5 12.5t63.5 36.5q49 143 113.5 246.5t150.5 179.5zM290 26q-33 -21 -69 -31.5t-76 -10.5q-77 0 -117 40t-40 117q0 161 147.5 272t374.5 111q29 0 61.5 -4t36.5 -4q26 0 50 7q4 1 6 1
q3 0 5 -3.5t3 -8.5q0 -2 -10 -11q-108 -95 -207 -313q-53 -114 -126 -291t-102 -221q-53 -81 -129 -125.5t-164 -44.5q-51 0 -95 21t-44 39q0 2 3 4t7 2q2 0 11 -6q48 -31 98 -31q195 0 374 484z" />
    <glyph glyph-name="h" unicode="h" horiz-adv-x="797" 
d="M236 383q118 76 195 108.5t134 32.5q60 0 94.5 -28.5t34.5 -77.5q0 -46 -27 -100q-2 -4 -3 -7l-107 -227q-5 -10 -7.5 -21.5t-2.5 -23.5q0 -23 12.5 -35t36.5 -12q26 0 54.5 15.5t29.5 15.5q3 0 5.5 -3t2.5 -8q0 -16 -33.5 -33.5t-70.5 -17.5q-13 0 -48.5 8t-56.5 8
q-18 0 -53.5 -6t-52.5 -6q-30 0 -51 7.5t-21 17.5q1 7 4 10.5t8 3.5q4 0 20 -5t27 -5q62 0 106 101l5 12l104 245q9 22 13 36.5t4 23.5q0 29 -20.5 47t-55.5 18q-58 0 -142 -43t-145 -104q-51 -53 -98 -155.5t-47 -141.5q0 -20 9.5 -30.5t27.5 -10.5q19 0 46 15.5t30 15.5
q3 -1 5 -3.5t3 -5.5q0 -15 -33.5 -34t-71.5 -19q-12 0 -48 8t-58 8q-14 0 -49.5 -6t-57.5 -6q-26 0 -47.5 8.5t-21.5 16.5q0 7 2.5 10.5t7.5 3.5q3 0 16.5 -4t22.5 -4q89 0 195 229q28 62 44 94l275 553q81 165 145.5 232t139.5 67q32 0 61 -17.5t29 -31.5q0 -4 -3.5 -7
t-7.5 -3q-1 0 -25 14.5t-48 14.5q-49 0 -90 -46t-113 -200z" />
    <glyph glyph-name="i" unicode="i" horiz-adv-x="403" 
d="M313 762q0 25 21 45t49 20q27 0 46.5 -20t19.5 -49q0 -27 -21 -46.5t-47 -19.5q-25 0 -46.5 21.5t-21.5 48.5zM201 451l-100 -35q-2 -1 -5 -1.5t-6 -0.5q-6 0 -9 4.5t-3 11.5q0 6 6 10.5t17 8.5l223 75l-205 -438q-9 -20 -13 -31.5t-4 -19.5q0 -17 9.5 -25t27.5 -8
t36 11.5t20 11.5q3 -1 6 -4.5t4 -8.5q0 -11 -31.5 -26t-64.5 -15q-16 0 -46.5 6.5t-46.5 6.5h-4q-8 0 -38 -6.5t-52 -6.5q-15 0 -22 3.5t-9 11.5q0 4 4 8.5t7 3.5q7 0 15 -2h3q69 0 188 260z" />
    <glyph glyph-name="j" unicode="j" horiz-adv-x="375" 
d="M340 760q0 27 19 46t47 19q27 0 47 -19t20 -46t-20 -46.5t-47 -19.5t-46.5 20t-19.5 46zM295 471l-166 -49q-10 -3 -18 -4.5t-13 -1.5q-4 0 -7 4t-3 10q0 8 6.5 12.5t26.5 10.5l225 63q-143 -234 -287 -575q-41 -98 -59 -136q-66 -137 -165.5 -218t-201.5 -81
q-51 0 -93 24.5t-42 43.5q0 5 3 8.5t7 3.5q5 -2 14 -10q45 -45 109 -45q52 0 100.5 35.5t88.5 101.5q25 42 173 330t302 473z" />
    <glyph glyph-name="k" unicode="k" horiz-adv-x="692" 
d="M49 217l291 598q101 210 163.5 284.5t127.5 74.5q21 0 39 -11.5t18 -21.5q0 -4 -3 -7.5t-7 -3.5q-2 0 -9 4q-25 13 -46 13q-53 0 -153 -225l-3 -7l-221 -493q51 48 118.5 76t129.5 28q70 0 107.5 -24.5t37.5 -71.5q0 -64 -76 -125t-201 -92q26 -55 39 -128t43 -73
q14 0 30 12.5t22 12.5q4 0 8 -3.5t4 -6.5q0 -17 -20.5 -33.5t-43.5 -16.5q-8 0 -32 5.5t-39 5.5q-12 0 -31.5 -5t-52.5 -16q10 17 15 34.5t5 37.5q0 74 -55 188q-11 23 -16 35q29 -6 55 -9t49 -3q76 0 138.5 48t62.5 103q0 32 -27.5 53t-71.5 21q-80 0 -147 -51t-125 -156
q-42 -77 -70 -147.5t-28 -89.5q0 -14 6.5 -20.5t21.5 -6.5q9 0 21 3t14 3q4 0 7 -3.5t3 -8.5q0 -11 -20 -22t-45 -11q-13 0 -43 9.5t-47 9.5q-9 0 -38.5 -7.5t-53.5 -7.5q-25 0 -42.5 7t-17.5 16q0 8 4 13t11 5q8 0 22 -3t21 -3q50 0 127 162z" />
    <glyph glyph-name="l" unicode="l" horiz-adv-x="375" 
d="M80 217l291 598q101 210 163 284.5t128 74.5q20 0 38.5 -11.5t18.5 -21.5q0 -4 -3.5 -7.5t-6.5 -3.5q-2 0 -10 4q-24 13 -46 13q-49 0 -142 -202l-13 -29l-365 -799q-15 -33 -23 -56t-8 -34q0 -13 8.5 -22t20.5 -9q11 0 22 6t13 6q4 0 8 -3.5t4 -6.5q0 -9 -21 -21
t-44 -12q-13 0 -43 9.5t-47 9.5q-9 0 -39.5 -7.5t-53.5 -7.5q-26 0 -43.5 6.5t-17.5 16.5q0 6 5 10t11 4t21.5 -3t25.5 -3q46 0 116 150z" />
    <glyph glyph-name="m" unicode="m" horiz-adv-x="1096" 
d="M153 434q-24 -5 -57 -18t-43 -13q-5 0 -9.5 4t-4.5 9q0 9 86 39t154 57l-46 -123q65 65 138.5 100t142.5 35q59 0 93 -28.5t34 -77.5q0 -8 -0.5 -15t-1.5 -14q56 68 115.5 102.5t119.5 34.5q59 0 92 -34.5t33 -94.5q0 -46 -31.5 -108t-138.5 -209q-9 -14 -25 -33
q-18 -22 -18 -29q0 -5 3 -8.5t8 -3.5q1 0 22.5 12.5t44.5 12.5q7 0 24.5 -2t26.5 -2q17 0 31.5 4t28.5 12q-6 -32 -42.5 -54t-84.5 -22q-13 0 -40.5 7.5t-43.5 7.5q-12 -1 -44 -7q-18 -4 -28 -6q98 121 154.5 228.5t56.5 167.5q0 50 -22 74t-68 24q-54 0 -113 -47.5
t-92 -120.5l-98 -211q-9 -21 -13.5 -35t-4.5 -20q0 -15 11.5 -23t33.5 -8q25 0 55 12.5t31 12.5q3 -1 5 -3.5t3 -7.5q0 -16 -32.5 -33.5t-70.5 -17.5q-12 0 -48 8t-58 8q-15 0 -50 -6t-53 -6q-30 0 -50.5 7.5t-20.5 17.5q0 7 3 10.5t9 3.5q4 0 20 -3t27 -3q63 0 108 102l3 7
l106 245q9 22 13 36.5t4 23.5q0 31 -20.5 48t-57.5 17q-55 0 -115.5 -33.5t-107.5 -91.5q-60 -72 -111 -180.5t-51 -140.5q0 -17 8 -25t25 -8q20 0 39 12.5t20 12.5q4 0 7 -4.5t3 -8.5q0 -11 -32 -27t-66 -16q-21 0 -55 6.5t-47 6.5q-22 0 -52.5 -12.5t-40.5 -12.5
q-4 -1 -7 2.5t-5 11.5q0 5 21.5 12.5t36.5 14.5q54 26 125 210q53 139 95 228z" />
    <glyph glyph-name="n" unicode="n" horiz-adv-x="717" 
d="M162 434q-27 -4 -63.5 -17.5t-47.5 -13.5q-4 0 -8 4t-4 9q0 9 86 39t154 57l-46 -123q63 69 123.5 103t120.5 34q59 0 93 -34t34 -93q0 -48 -35 -115.5t-116 -172.5l-32 -41q-36 -44 -36 -52q0 -4 4 -8t8 -4q2 0 23.5 12.5t44.5 12.5q7 0 23 -2t26 -2q17 0 32.5 4
t28.5 12q-6 -32 -42.5 -54t-83.5 -22q-13 0 -42 6.5t-47 6.5q-11 0 -26.5 -2.5t-34.5 -6.5q94 111 150.5 221t56.5 173q0 53 -22 75.5t-74 22.5q-45 0 -103.5 -43t-99.5 -109q-56 -90 -92.5 -172t-36.5 -106q0 -18 8 -26.5t25 -8.5q20 0 39 12.5t20 12.5q4 0 7 -4.5t3 -8.5
q0 -11 -32 -27t-66 -16q-21 0 -55 6.5t-47 6.5q-22 0 -52.5 -12.5t-40.5 -12.5q-4 -1 -7 2.5t-5 11.5q0 5 22 12.5t36 14.5q52 26 121 198q59 146 108 240z" />
    <glyph glyph-name="o" unicode="o" horiz-adv-x="635" 
d="M340 492q-98 0 -181 -113.5t-83 -243.5q0 -62 32.5 -96.5t90.5 -34.5q94 0 178 116t84 236q0 65 -31.5 100.5t-89.5 35.5zM-16 184q0 138 102 240t242 102q102 0 159.5 -56t57.5 -157q0 -143 -101.5 -245.5t-244.5 -102.5q-99 0 -157 59.5t-58 159.5z" />
    <glyph glyph-name="p" unicode="p" horiz-adv-x="666" 
d="M102 74q21 -38 50 -55t71 -17q104 0 184 104t80 236q0 69 -28.5 108t-77.5 39q-74 0 -139.5 -97t-139.5 -318zM250 514l-17 -86q34 49 78.5 74.5t96.5 25.5q74 0 118.5 -55.5t44.5 -146.5q0 -148 -93.5 -254.5t-227.5 -106.5q-50 0 -91 19t-69 55q-79 -199 -180 -338
t-143 -139q-5 0 -21 -9.5t-25 -9.5q-2 0 -5 2t-5 6q0 7 25 25q101 71 153 182q42 89 120 317.5t136 360.5q-27 -10 -65 -25.5t-43 -15.5q-6 0 -9 2.5t-3 8.5q0 9 79.5 41.5t145.5 66.5z" />
    <glyph glyph-name="q" unicode="q" horiz-adv-x="653" 
d="M549 498h-23q-189 0 -320.5 -106.5t-131.5 -248.5q0 -59 23.5 -89.5t70.5 -30.5q10 0 27.5 4t42.5 12q49 107 125.5 219.5t185.5 239.5zM667 516q-167 -194 -289 -395t-185 -389q-27 -77 -48 -165q-15 -61 -30 -61q-9 0 -13 5t-4 16q0 91 33.5 224t91.5 263
q-26 -9 -50.5 -13.5t-47.5 -4.5q-71 0 -109.5 38.5t-38.5 108.5q0 159 153.5 271t385.5 112q29 0 66 -2.5t85 -7.5z" />
    <glyph glyph-name="r" unicode="r" horiz-adv-x="664" 
d="M229 442l-86 -18q-5 -1 -9 -1.5t-9 -0.5q-4 0 -6 3.5t-2 8.5q0 9 5 14t20 9l214 53l-61 -117q69 67 128.5 99t115.5 32q51 0 80.5 -26.5t29.5 -71.5q0 -37 -21.5 -59.5t-58.5 -22.5q-20 0 -36.5 8.5t-28.5 24.5q22 9 34.5 24t12.5 33q0 22 -12.5 32.5t-38.5 10.5
q-44 0 -99.5 -34t-107.5 -95q-65 -76 -113.5 -174.5t-48.5 -130.5q0 -20 10.5 -30.5t30.5 -10.5q18 0 43.5 13.5t28.5 13.5q3 -1 5 -3.5t3 -5.5q0 -15 -32.5 -34t-69.5 -19q-12 0 -47.5 8.5t-59.5 8.5q-15 0 -49 -6.5t-53 -6.5q-24 0 -44 8.5t-20 16.5q0 6 3 10t7 4
q3 0 16.5 -4t22.5 -4q77 0 129 102l4 8z" />
    <glyph glyph-name="s" unicode="s" horiz-adv-x="494" 
d="M256 530q64 0 111 -37t47 -83q0 -24 -15.5 -38t-42.5 -14q-23 0 -38 15.5t-15 38.5q0 60 -11 77t-36 17q-33 0 -51.5 -18.5t-18.5 -51.5q0 -36 63.5 -138.5t63.5 -172.5q0 -71 -53 -114.5t-139 -43.5q-76 0 -130 39t-54 90q0 22 12.5 35.5t32.5 13.5t31.5 -13.5
t11.5 -39.5l-1 -5.5t-1 -10.5q0 -38 22.5 -58t65.5 -20q46 0 76 32t30 81q0 48 -52 143.5t-52 140.5q0 57 42 96t101 39z" />
    <glyph glyph-name="t" unicode="t" horiz-adv-x="426" 
d="M-76 -24q63 38 175 287q60 135 100 214h-86q-8 0 -12.5 3t-4.5 7q1 11 24 13q11 1 18 2q82 14 133 119l1 2q71 148 133.5 241.5t86.5 93.5q2 0 5 -2.5t3 -5.5q0 -4 -16 -31q-106 -182 -175 -419h86q10 -1 14 -3.5t5 -9.5q0 -5 -3.5 -7.5t-15.5 -2.5h-96
q-97 -231 -244 -402q-26 -31 -26 -36q0 -10 3 -14.5t9 -4.5q9 0 31.5 6.5t36.5 6.5q12 0 32 -3t27 -3q11 0 21.5 4t11.5 4t3.5 -2.5t2.5 -3.5q0 -18 -35.5 -40t-79.5 -22q-18 0 -53 9.5t-53 9.5q-12 0 -26.5 -2.5t-35.5 -7.5z" />
    <glyph glyph-name="u" unicode="u" horiz-adv-x="711" 
d="M657 508l-204 -408q-11 -19 -17 -39t-6 -32q0 -16 10 -25.5t27 -9.5q11 0 26.5 13t20.5 13q3 0 6.5 -3.5t3.5 -6.5q0 -15 -22.5 -29t-52.5 -14q-4 0 -32.5 6.5t-54.5 6.5q-21 -1 -39.5 -4.5t-33.5 -10.5l35 41q8 11 11 16t3 9q0 3 -4 5.5t-8 2.5q-7 0 -30 -16
q-81 -56 -157 -56q-70 0 -111.5 34.5t-41.5 92.5q0 36 28 99q3 6 4 9l113 244l-94 -22h-10q-5 0 -8 3t-3 7q0 5 3.5 8t10.5 4l238 62l-162 -330q-20 -44 -26 -63t-6 -35q0 -35 24 -55.5t66 -20.5q72 0 125.5 41.5t97.5 132.5l131 271l-53 -13l-10 -2q-7 0 -11 3t-4 7
q0 6 5 9.5t14 5.5z" />
    <glyph glyph-name="v" unicode="v" horiz-adv-x="606" 
d="M248 508q-86 -141 -130 -242.5t-44 -161.5q0 -50 33 -79t90 -29q90 0 165.5 114t75.5 255q0 56 -14 119q-4 18 -4 22q0 10 4.5 14t15.5 4q19 0 42.5 -54.5t23.5 -123.5q0 -158 -96.5 -269.5t-233.5 -111.5q-84 0 -137 48.5t-53 125.5q0 100 113 215q28 29 28 35q0 4 -3 7
t-7 3q-3 0 -7 -1.5t-10 -4.5l-44 -22q-3 -2 -7 -3t-12 -1q-6 0 -9 3t-3 9q0 8 20 19l3 2z" />
    <glyph glyph-name="w" unicode="w" horiz-adv-x="891" 
d="M337 507q-125 -127 -197 -239.5t-72 -175.5q0 -35 19.5 -54.5t55.5 -19.5q51 0 104 44.5t103 130.5q51 85 83 151t32 82q0 14 -7.5 22.5t-19.5 8.5q-18 0 -37 -16.5t-24 -16.5q-4 0 -7 4.5t-3 9.5q0 26 51 42t184 28l-160 -305q-26 -49 -40.5 -88t-14.5 -62
q0 -27 16.5 -42t47.5 -15q106 0 195 130t89 310q0 34 -5 67q-1 7 -1 9q0 6 4 10t10 4q20 0 39 -37.5t19 -89.5q0 -162 -118.5 -297t-260.5 -135q-53 0 -89 24.5t-48 69.5q-47 -42 -94 -64t-91 -22q-59 0 -87.5 27.5t-28.5 83.5q0 46 27 103t73 108q11 12 32 33q72 76 72 104
q0 13 -7.5 21t-20.5 8q-18 0 -38.5 -18.5t-25.5 -18.5t-9.5 4.5t-4.5 9.5q0 39 181 59q49 6 74 8z" />
    <glyph glyph-name="x" unicode="x" horiz-adv-x="637" 
d="M260 232q-5 18 -13 51q-54 219 -147 219q-29 0 -67 -25q-9 -6 -10 -6q-4 0 -6.5 2.5t-2.5 5.5q0 14 31 30.5t68 16.5q73 0 127.5 -47.5t91.5 -144.5q81 88 156.5 140t117.5 52q8 0 13.5 -4t5.5 -10q0 -7 -29 -18q-136 -50 -252 -197q16 -54 34 -140q30 -141 79 -141
q13 0 26.5 6.5t16.5 6.5t6.5 -3t3.5 -8q0 -12 -20.5 -22t-49.5 -10q-10 0 -35 4t-40 4q-22 0 -46.5 -6.5t-50.5 -18.5q17 20 25 39.5t8 40.5q0 18 -5 46t-24 102l-39 -45q-150 -170 -229 -170q-33 0 -60.5 17.5t-27.5 39.5q0 10 7 16t20 6q9 0 37 -18t47 -18q65 0 233 206v1
z" />
    <glyph glyph-name="y" unicode="y" horiz-adv-x="659" 
d="M274 508l-184 -395q-11 -23 -16.5 -38t-5.5 -22q0 -17 12 -27t33 -10q60 0 133 55t168 173q64 81 130.5 181.5t80.5 100.5q7 0 10.5 -3t3.5 -11q0 -5 -95 -184l-214 -391q-142 -250 -243.5 -339.5t-223.5 -89.5q-68 0 -115 25.5t-47 52.5q0 6 3 9.5t9 3.5q5 0 17 -13
q48 -47 106 -47q119 0 236.5 136.5t230.5 406.5q-60 -49 -111.5 -72.5t-95.5 -23.5q-52 0 -81 25t-29 71q0 22 15.5 64t43.5 96l100 188l-73 -20l-15 -2q-4 0 -7 3.5t-3 8.5t5 9t11 5z" />
    <glyph glyph-name="z" unicode="z" horiz-adv-x="545" 
d="M393 459q-50 19 -91.5 29t-72.5 10q-87 0 -171 -74q-21 -18 -27 -18q-4 0 -7 4.5t-4 9.5q0 22 70 64t135 42q43 0 98.5 -14t67.5 -14q37 0 72 21q9 5 12 5q5 0 7.5 -2.5t2.5 -7.5q0 -7 -68.5 -100t-131.5 -160q-56 -59 -144 -125t-88 -74q0 -5 3 -8t7 -4q9 0 46.5 10
t66.5 10q36 0 82.5 -12t56.5 -12q65 0 84.5 44t22.5 44q6 0 10 -3t4 -7q0 -68 -47 -109t-127 -41q-30 0 -104 16.5t-119 16.5q-37 0 -78 -14q-12 -4 -16 -4q-5 -1 -7 1.5t-4 10.5q0 1 30.5 31.5t64.5 72.5q12 16 35 44q197 247 329 317z" />
    <glyph glyph-name="braceleft" unicode="{" 
d="M844 1516l-1 -48q-152 -1 -206.5 -54t-54.5 -210v-147q0 -225 -64.5 -308t-238.5 -114q174 -30 238.5 -112.5t64.5 -309.5v-147q0 -157 54.5 -210t206.5 -55l1 -45h-10q-213 0 -293 73t-80 273v222q0 154 -59.5 212.5t-225.5 71.5v56q169 15 227 72.5t58 211.5v221
q0 200 80 273.5t293 73.5h10z" />
    <glyph glyph-name="bar" unicode="|" 
d="M467 1565h90v-2048h-90v2048z" />
    <glyph glyph-name="braceright" unicode="}" 
d="M178 1516h10q214 0 294.5 -74t80.5 -273v-221q0 -155 58 -212t227 -72v-56q-166 -13 -225.5 -71.5t-59.5 -212.5v-222q0 -198 -80.5 -272t-294.5 -74h-10l1 45q153 2 208 55t55 210v147q0 226 64 308t239 114q-174 31 -238.5 114t-64.5 308v147q0 156 -55 209.5
t-208 54.5z" />
    <glyph glyph-name="asciitilde" unicode="~" horiz-adv-x="1706" 
d="M1530 739v-92q-106 -74 -202 -110.5t-185 -36.5q-99 0 -266 61q-16 6 -22 8q-12 4 -33 12q-167 60 -257 60q-83 0 -175 -37.5t-212 -122.5v92q105 74 201 110t186 36q100 0 271 -61q12 -5 19 -7l27 -10q168 -61 261 -61q83 0 175 37.5t212 121.5z" />
    <glyph glyph-name="Adieresis" unicode="&#xc4;" horiz-adv-x="1305" 
d="M1180 1157q-64 -66 -146 -96.5t-190 -30.5q-92 0 -224 23.5t-171 23.5q-124 0 -196.5 -72t-72.5 -194q0 -51 15.5 -105t15.5 -59q0 -7 -3 -10.5t-9 -3.5q-14 0 -35 63.5t-21 126.5q0 152 104.5 250t266.5 98q55 0 192.5 -26.5t217.5 -26.5q49 0 112 9.5t144 29.5z
M1333 1104q-169 -33 -463 -494l-71 -110h8q34 0 97 -11.5t93 -11.5q23 0 34.5 0.5t23.5 2.5q83 266 144 397.5t134 226.5zM1405 1143q-75 -97 -159 -392q-47 -164 -79 -253q-40 -114 -110 -260t-70 -183q0 -21 11.5 -31t37.5 -10q17 0 35 8.5t21 8.5q6 0 10 -5.5t4 -13.5
q0 -13 -27 -30t-57 -17q-9 0 -56 11.5t-94 11.5q-33 0 -67 -16q-10 -5 -12 -5q-4 1 -5.5 4t-1.5 9q0 3 16 17q147 143 236 449q-8 -1 -15.5 -1.5t-23.5 -0.5q-31 0 -100 11.5t-106 11.5h-17q-162 -263 -312.5 -383.5t-316.5 -120.5q-117 0 -194.5 61.5t-77.5 149.5
q2 7 6.5 10t12.5 2q12 0 14 -20l2 -15q13 -64 75 -106.5t146 -42.5q89 0 172 46.5t168 144.5q28 31 157 221l232 334q145 204 272 300.5t248 96.5q4 0 12.5 -1t12.5 -1zM1366 1307q0 33 19 54.5t48 21.5q25 0 38.5 -14.5t13.5 -41.5q0 -29 -19 -49t-47 -20q-25 0 -39 13
t-14 36zM1100 1309q0 30 19.5 52t47.5 22q25 0 39 -15t14 -41q0 -29 -19 -49t-48 -20q-25 0 -39 13.5t-14 37.5z" />
    <glyph glyph-name="Aring" unicode="&#xc5;" horiz-adv-x="1305" 
d="M1262 1423q0 -52 34 -87.5t86 -35.5t87.5 36t35.5 87t-36 86t-87 35q-52 0 -86 -34t-34 -87zM1208 1421q0 73 50.5 123.5t123.5 50.5t123.5 -50.5t50.5 -123.5t-50.5 -123.5t-123.5 -50.5q-72 0 -123 50.5t-51 123.5zM1180 1157q-64 -66 -146 -96.5t-190 -30.5
q-92 0 -224 23.5t-171 23.5q-124 0 -196.5 -72t-72.5 -194q0 -51 15.5 -105t15.5 -59q0 -7 -3 -10.5t-9 -3.5q-14 0 -35 63.5t-21 126.5q0 152 104.5 250t266.5 98q55 0 192.5 -26.5t217.5 -26.5q49 0 112 9.5t144 29.5zM1333 1104q-169 -33 -463 -494l-71 -110h8
q34 0 97 -11.5t93 -11.5q23 0 34.5 0.5t23.5 2.5q83 266 144 397.5t134 226.5zM1405 1143q-75 -97 -159 -392q-47 -164 -79 -253q-40 -114 -110 -260t-70 -183q0 -21 11.5 -31t37.5 -10q17 0 35 8.5t21 8.5q5 0 9.5 -5t4.5 -12q0 -14 -27 -31.5t-57 -17.5q-9 0 -56 11.5
t-94 11.5q-33 0 -67 -16q-10 -5 -12 -5q-4 1 -5.5 4t-1.5 9q0 3 16 17q147 143 236 449q-8 -1 -15.5 -1.5t-23.5 -0.5q-31 0 -100 11.5t-106 11.5h-17q-162 -263 -312.5 -383.5t-316.5 -120.5q-117 0 -194.5 61.5t-77.5 149.5q2 7 6.5 10t12.5 2q12 0 14 -20l2 -15
q13 -64 75 -106.5t146 -42.5q89 0 172 46.5t168 144.5q25 29 154.5 218.5l234.5 336.5q146 202 272.5 299.5t243.5 97.5q5 0 14.5 -1t14.5 -1z" />
    <glyph glyph-name="Ccedilla" unicode="&#xc7;" horiz-adv-x="1176" 
d="M1145 1178q43 -53 64.5 -107t21.5 -110q0 -74 -40.5 -117t-109.5 -43q-42 0 -73 18t-50 53q26 -18 46.5 -26t42.5 -8q42 0 65 26.5t23 77.5t-21 96.5t-63 85.5q-29 -3 -47 -4.5t-29 -1.5q-39 0 -91 4t-65 4q-248 0 -420 -196t-172 -469q0 -204 112.5 -331.5t289.5 -127.5
q167 0 283 132.5t116 320.5q0 67 -35 138q-8 17 -8 21q0 8 4.5 12.5t11.5 4.5q19 0 46.5 -72.5t27.5 -150.5q0 -195 -130.5 -321t-340.5 -126q-218 0 -351.5 138.5t-133.5 367.5q0 287 191 495.5t452 208.5q40 0 113.5 -6t107.5 -6q39 0 78 4.5t84 14.5zM420 -133l83 133h35
l-65 -106q26 7 47 10.5t41 3.5q50 0 82.5 -32t32.5 -85q0 -67 -48.5 -103t-138.5 -36q-86 0 -160.5 29.5t-74.5 50.5q0 6 5 11t11 5q3 0 65 -29.5t134 -29.5q66 0 101.5 23.5t35.5 68.5q0 42 -22 62t-68 20q-11 0 -27.5 -3t-33.5 -7z" />
    <glyph glyph-name="Eacute" unicode="&#xc9;" horiz-adv-x="1174" 
d="M547 762q-64 23 -98.5 69.5t-34.5 108.5q0 106 86 168.5t233 62.5q138 0 235 -68t97 -157q0 -53 -29.5 -84t-81.5 -31q-54 0 -99.5 44t-45.5 79q0 8 3.5 11.5t10.5 3.5q1 0 32.5 -33t72.5 -33q29 0 45 17t16 49q0 65 -68.5 114.5t-164.5 49.5q-108 0 -170 -49t-62 -134
q0 -72 50.5 -130.5t50.5 -67.5q0 -20 -48 -31q-46 -11 -78 -25q-145 -63 -214.5 -152.5t-69.5 -215.5q0 -148 105.5 -237t279.5 -89q205 0 334 129.5t129 327.5q0 11 -1 30t-1 27q0 6 4 10t10 4q12 0 16.5 -17.5t4.5 -74.5q0 -206 -142.5 -340.5t-371.5 -134.5
q-223 0 -355.5 104.5t-132.5 276.5q0 164 123 278.5t330 139.5zM719 1262q-8 0 -11 2t-3 8q0 8 52 37.5t77 69.5q12 18 26 60q24 75 66 75q16 0 26.5 -13t10.5 -32q0 -60 -94 -133.5t-150 -73.5z" />
    <glyph glyph-name="Ntilde" unicode="&#xd1;" horiz-adv-x="1403" 
d="M709 657q-69 -378 -181 -536t-307 -158q-91 0 -146 46t-55 122q0 41 9 63.5t24 22.5q2 0 5 -4.5t3 -9.5q0 -3 -5 -24t-5 -40q0 -69 48 -107t134 -38q181 0 289.5 180.5t165.5 581.5q-47 185 -116.5 271.5t-170.5 86.5q-114 0 -179.5 -72t-65.5 -198q0 -114 64 -221
q11 -19 11 -23q0 -6 -4 -10t-10 -4q-23 0 -60.5 88t-37.5 180q0 145 80.5 231t214.5 86q125 0 197 -65.5t128 -243.5l41 -131q106 -348 181 -498q34 399 188 644t360 245q80 0 152 -39t72 -65q0 -5 -5.5 -9.5t-11.5 -4.5q-3 0 -16 10q-79 59 -174 59q-99 0 -192 -68
t-167 -194q-76 -132 -121 -281.5t-45 -271.5q0 -127 39.5 -195.5t112.5 -68.5q66 0 102.5 51t40.5 51q5 0 9.5 -5t5.5 -11q0 -34 -49.5 -75.5t-114.5 -41.5q-133 0 -240 169t-198 525zM829 1309q0 42 32.5 83.5t74.5 41.5q39 0 101.5 -24.5t88.5 -24.5q36 0 58.5 30.5
t27.5 30.5t9 -3t4 -7q0 -37 -34.5 -80t-80.5 -43q-30 0 -92.5 24.5t-89.5 24.5q-34 0 -58 -31.5t-28 -31.5q-5 0 -8.5 2.5t-4.5 7.5z" />
    <glyph glyph-name="Odieresis" unicode="&#xd6;" horiz-adv-x="1253" 
d="M829 1135q-101 0 -182 -62t-125 -174q-8 -21 -19 -57q-16 -51 -28 -51q-7 0 -10.5 5t-3.5 15q0 131 110.5 245.5t259.5 114.5q158 0 255.5 -122t97.5 -324q0 -143 -49.5 -287.5t-135.5 -253.5q-87 -111 -199 -167t-245 -56q-203 0 -319.5 120t-116.5 329q0 148 68 304
t190 287q54 58 102.5 97t63.5 39q4 0 7 -2.5t3 -6.5q0 -13 -40 -55q-35 -37 -56 -63q-109 -133 -169.5 -295.5t-60.5 -321.5q0 -186 81.5 -288.5t228.5 -102.5q118 0 217.5 70.5t189.5 218.5q73 121 112.5 250t39.5 247q0 165 -70 256t-197 91zM914 1307q0 33 19 54.5
t48 21.5q25 0 38.5 -14.5t13.5 -41.5q0 -29 -19 -49t-47 -20q-25 0 -39 13t-14 36zM648 1309q0 30 19.5 52t47.5 22q25 0 39 -15t14 -41q0 -29 -19 -49t-48 -20q-25 0 -39 13.5t-14 37.5z" />
    <glyph glyph-name="Udieresis" unicode="&#xdc;" horiz-adv-x="1313" 
d="M1536 1165q-100 -106 -201.5 -303t-187.5 -452l-106 -317q-2 -6 -7 -19q-8 -24 -8 -35q0 -15 8 -23t23 -8q16 0 37.5 21.5t27.5 21.5t10.5 -4t4.5 -10q0 -26 -29.5 -50t-67.5 -24q-13 0 -51 9.5t-63 9.5q-11 0 -55.5 -8.5t-77.5 -8.5q-15 0 -22 3.5t-7 11.5q0 7 4.5 12.5
t9.5 5.5q8 0 19 -1t16 -1q49 0 78.5 25.5t56.5 99.5l90 239l98 255l72 178l-151 -242q-366 -588 -551 -588q-59 0 -91 31.5t-32 89.5q0 57 44 178.5t122 276.5q32 64 91 172q110 198 110 270q0 69 -42.5 112.5t-109.5 43.5q-141 0 -263 -163t-122 -353q0 -141 106 -227
q15 -12 15 -15q0 -5 -3 -7.5t-9 -2.5t-28.5 12.5t-43.5 30.5q-70 55 -100.5 116t-30.5 144q0 191 141.5 345t319.5 154q105 0 166 -63.5t61 -173.5q0 -112 -150 -401l-12 -23q-100 -193 -139 -288.5t-39 -141.5q0 -37 17 -54.5t53 -17.5q69 0 169.5 100t211.5 279l12 21
q411 671 606 757zM1204 1307q0 33 19 54.5t48 21.5q25 0 38.5 -14.5t13.5 -41.5q0 -29 -19 -49t-47 -20q-25 0 -39 13t-14 36zM938 1309q0 30 19.5 52t47.5 22q25 0 39 -15t14 -41q0 -29 -19 -49t-48 -20q-25 0 -39 13.5t-14 37.5z" />
    <glyph glyph-name="aacute" unicode="&#xe1;" horiz-adv-x="735" 
d="M559 496h-33q-195 0 -325.5 -98.5t-130.5 -233.5q0 -70 37.5 -107t109.5 -37q35 0 68.5 13t70.5 41q31 108 81 212t122 210zM659 512q-98 -177 -150 -296t-52 -165q0 -28 14.5 -45.5t38.5 -17.5q47 0 63 39t23 39q5 0 7.5 -3t2.5 -8q0 -36 -27.5 -63t-70.5 -27
q-11 0 -51 7.5t-70 7.5q-15 0 -23 -0.5t-16 -1.5l-12 55q-48 -35 -91 -51.5t-85 -16.5q-82 0 -130 49t-48 131q0 149 156.5 264t371.5 115q49 0 84 -3t65 -9zM424 631q-8 0 -11 2t-3 8q0 8 52 37.5t77 69.5q12 18 26 60q24 75 66 75q16 0 26.5 -13t10.5 -32
q0 -60 -94 -133.5t-150 -73.5z" />
    <glyph glyph-name="agrave" unicode="&#xe0;" horiz-adv-x="735" 
d="M559 496h-33q-195 0 -325.5 -98.5t-130.5 -233.5q0 -70 37.5 -107t109.5 -37q35 0 68.5 13t70.5 41q31 108 81 212t122 210zM659 512q-98 -177 -150 -296t-52 -165q0 -28 14.5 -45.5t38.5 -17.5q47 0 63 39t23 39q5 0 7.5 -3t2.5 -8q0 -36 -27.5 -63t-70.5 -27
q-11 0 -51 7.5t-70 7.5q-15 0 -23 -0.5t-16 -1.5l-12 55q-48 -35 -91 -51.5t-85 -16.5q-82 0 -130 49t-48 131q0 149 156.5 264t371.5 115q49 0 84 -3t65 -9zM338 823q0 22 10.5 33.5t28.5 11.5q34 0 60 -65q13 -33 22 -47q28 -47 74.5 -80t46.5 -37q0 -5 -3 -7.5t-9 -2.5
q-42 0 -136 71t-94 123z" />
    <glyph glyph-name="acircumflex" unicode="&#xe2;" horiz-adv-x="735" 
d="M559 496h-33q-195 0 -325.5 -98.5t-130.5 -233.5q0 -70 37.5 -107t109.5 -37q35 0 68.5 13t70.5 41q31 108 81 212t122 210zM659 512q-98 -177 -150 -296t-52 -165q0 -28 14.5 -45.5t38.5 -17.5q47 0 63 39t23 39q5 0 7.5 -3t2.5 -8q0 -36 -27.5 -63t-70.5 -27
q-11 0 -51 7.5t-70 7.5q-15 0 -23 -0.5t-16 -1.5l-12 55q-48 -35 -91 -51.5t-85 -16.5q-82 0 -130 49t-48 131q0 149 156.5 264t371.5 115q49 0 84 -3t65 -9zM492 768q-76 -66 -142.5 -112t-80.5 -46q-10 0 -13.5 2.5t-3.5 8.5t42 38t77 66q52 50 95 106t50 56
q11 0 18 -31.5t19 -60.5q22 -55 56 -110t34 -60q0 -7 -3 -11t-9 -4q-17 0 -52 40t-87 118z" />
    <glyph glyph-name="adieresis" unicode="&#xe4;" horiz-adv-x="735" 
d="M559 496h-33q-195 0 -325.5 -98.5t-130.5 -233.5q0 -70 37.5 -107t109.5 -37q35 0 68.5 13t70.5 41q31 108 81 212t122 210zM659 512q-98 -177 -150 -296t-52 -165q0 -28 14.5 -45.5t38.5 -17.5q47 0 63 39t23 39q5 0 7.5 -3t2.5 -8q0 -36 -27.5 -63t-70.5 -27
q-11 0 -51 7.5t-70 7.5q-15 0 -23 -0.5t-16 -1.5l-12 55q-48 -35 -91 -51.5t-85 -16.5q-82 0 -130 49t-48 131q0 149 156.5 264t371.5 115q49 0 84 -3t65 -9zM572 676q0 33 19 54.5t48 21.5q25 0 38.5 -14.5t13.5 -41.5q0 -29 -19 -49t-47 -20q-25 0 -39 13t-14 36zM306 678
q0 30 19.5 52t47.5 22q25 0 39 -15t14 -41q0 -29 -19 -49t-48 -20q-25 0 -39 13.5t-14 37.5z" />
    <glyph glyph-name="atilde" unicode="&#xe3;" horiz-adv-x="735" 
d="M559 496h-33q-195 0 -325.5 -98.5t-130.5 -233.5q0 -70 37.5 -107t109.5 -37q35 0 68.5 13t70.5 41q31 108 81 212t122 210zM659 512q-98 -177 -150 -296t-52 -165q0 -28 14.5 -45.5t38.5 -17.5q47 0 63 39t23 39q5 0 7.5 -3t2.5 -8q0 -36 -27.5 -63t-70.5 -27
q-11 0 -51 7.5t-70 7.5q-15 0 -23 -0.5t-16 -1.5l-12 55q-48 -35 -91 -51.5t-85 -16.5q-82 0 -130 49t-48 131q0 149 156.5 264t371.5 115q49 0 84 -3t65 -9zM301 678q0 42 32.5 83.5t74.5 41.5q39 0 101.5 -24.5t88.5 -24.5q36 0 58.5 30.5t27.5 30.5t9 -3t4 -7
q0 -37 -34.5 -80t-80.5 -43q-30 0 -92.5 24.5t-89.5 24.5q-34 0 -58 -31.5t-28 -31.5q-5 0 -8.5 2.5t-4.5 7.5z" />
    <glyph glyph-name="aring" unicode="&#xe5;" horiz-adv-x="735" 
d="M422 766q0 -53 34.5 -88t86.5 -35q51 0 87 35.5t36 87.5q0 50 -36 85.5t-87 35.5q-53 0 -87 -34.5t-34 -86.5zM369 764q0 73 50.5 123.5t123.5 50.5t123.5 -50.5t50.5 -123.5t-50.5 -123.5t-123.5 -50.5t-123.5 50.5t-50.5 123.5zM559 496h-33q-195 0 -325.5 -98.5
t-130.5 -233.5q0 -70 37.5 -107t109.5 -37q35 0 68.5 13t70.5 41q31 108 81 212t122 210zM659 512q-98 -177 -150 -296t-52 -165q0 -28 14.5 -45.5t38.5 -17.5q47 0 63 39t23 39q5 0 7.5 -3t2.5 -8q0 -36 -27.5 -63t-70.5 -27q-11 0 -51 7.5t-70 7.5q-15 0 -23 -0.5
t-16 -1.5l-12 55q-48 -35 -91 -51.5t-85 -16.5q-82 0 -130 49t-48 131q0 149 156.5 264t371.5 115q49 0 84 -3t65 -9z" />
    <glyph glyph-name="ccedilla" unicode="&#xe7;" horiz-adv-x="592" 
d="M504 522q10 -22 15 -40t5 -31q0 -52 -31 -84.5t-77 -32.5q-30 0 -49 16.5t-25 46.5q2 0 7 -1q29 -7 38 -7q31 0 47.5 16.5t16.5 47.5q0 7 -3 22q-1 5 -2 8q-28 3 -50 4.5t-31 1.5q-116 0 -197.5 -92t-81.5 -215q0 -80 40.5 -128t106.5 -48q104 0 182 113q15 22 19 22
q5 0 7.5 -2t2.5 -6q0 -48 -77 -106t-181 -58q-90 0 -145 61t-55 160q0 132 96 234t221 102q25 0 72 -6t67 -6q18 0 53 7q6 1 9 1zM21 -133l83 133h35l-65 -106q26 7 47 10.5t41 3.5q50 0 82.5 -32t32.5 -85q0 -67 -48.5 -103t-138.5 -36q-86 0 -160.5 29.5t-74.5 50.5
q0 6 5 11t11 5q3 0 65 -29.5t134 -29.5q66 0 101.5 23.5t35.5 68.5q0 42 -22 62t-68 20q-11 0 -27.5 -3t-33.5 -7z" />
    <glyph glyph-name="eacute" unicode="&#xe9;" horiz-adv-x="639" 
d="M90 252q26 -14 51.5 -20.5t55.5 -6.5q106 0 195 58.5t89 119.5q0 42 -26.5 65.5t-73.5 23.5q-95 0 -177.5 -67t-113.5 -173zM90 217q-2 -6 -2 -22q0 -82 51 -131.5t135 -49.5q73 0 164 47q21 11 25 11q3 -1 5.5 -4t2.5 -7q0 -22 -88 -58t-178 -36q-102 0 -160.5 58
t-58.5 157q0 140 130.5 242t311.5 102q72 0 108.5 -27.5t36.5 -82.5q0 -89 -106.5 -160.5t-241.5 -71.5q-40 0 -72.5 8t-62.5 25zM374 631q-8 0 -11 2t-3 8q0 8 52 37.5t77 69.5q12 18 26 60q24 75 66 75q16 0 26.5 -13t10.5 -32q0 -60 -94 -133.5t-150 -73.5z" />
    <glyph glyph-name="egrave" unicode="&#xe8;" horiz-adv-x="639" 
d="M90 252q26 -14 51.5 -20.5t55.5 -6.5q106 0 195 58.5t89 119.5q0 42 -26.5 65.5t-73.5 23.5q-95 0 -177.5 -67t-113.5 -173zM90 217q-2 -6 -2 -22q0 -82 51 -131.5t135 -49.5q73 0 164 47q21 11 25 11q3 -1 5.5 -4t2.5 -7q0 -22 -88 -58t-178 -36q-102 0 -160.5 58
t-58.5 157q0 140 130.5 242t311.5 102q72 0 108.5 -27.5t36.5 -82.5q0 -89 -106.5 -160.5t-241.5 -71.5q-40 0 -72.5 8t-62.5 25zM288 823q0 22 10.5 33.5t28.5 11.5q34 0 60 -65q13 -33 22 -47q28 -47 74.5 -80t46.5 -37q0 -5 -3 -7.5t-9 -2.5q-42 0 -136 71t-94 123z" />
    <glyph glyph-name="ecircumflex" unicode="&#xea;" horiz-adv-x="639" 
d="M90 252q26 -14 51.5 -20.5t55.5 -6.5q106 0 195 58.5t89 119.5q0 42 -26.5 65.5t-73.5 23.5q-95 0 -177.5 -67t-113.5 -173zM90 217q-2 -6 -2 -22q0 -82 51 -131.5t135 -49.5q73 0 164 47q21 11 25 11q3 -1 5.5 -4t2.5 -7q0 -22 -88 -58t-178 -36q-102 0 -160.5 58
t-58.5 157q0 140 130.5 242t311.5 102q72 0 108.5 -27.5t36.5 -82.5q0 -89 -106.5 -160.5t-241.5 -71.5q-40 0 -72.5 8t-62.5 25zM442 768q-76 -66 -142.5 -112t-80.5 -46q-10 0 -13.5 2.5t-3.5 8.5t42 38t77 66q52 50 95 106t50 56q11 0 18 -31.5t19 -60.5q22 -55 56 -110
t34 -60q0 -7 -3 -11t-9 -4q-17 0 -52 40t-87 118z" />
    <glyph glyph-name="edieresis" unicode="&#xeb;" horiz-adv-x="639" 
d="M90 252q26 -14 51.5 -20.5t55.5 -6.5q106 0 195 58.5t89 119.5q0 42 -26.5 65.5t-73.5 23.5q-95 0 -177.5 -67t-113.5 -173zM90 217q-2 -6 -2 -22q0 -82 51 -131.5t135 -49.5q73 0 164 47q21 11 25 11q3 -1 5.5 -4t2.5 -7q0 -22 -88 -58t-178 -36q-102 0 -160.5 58
t-58.5 157q0 140 130.5 242t311.5 102q72 0 108.5 -27.5t36.5 -82.5q0 -89 -106.5 -160.5t-241.5 -71.5q-40 0 -72.5 8t-62.5 25zM522 676q0 33 19 54.5t48 21.5q25 0 38.5 -14.5t13.5 -41.5q0 -29 -19 -49t-47 -20q-25 0 -39 13t-14 36zM256 678q0 30 19.5 52t47.5 22
q25 0 39 -15t14 -41q0 -29 -19 -49t-48 -20q-25 0 -39 13.5t-14 37.5z" />
    <glyph glyph-name="iacute" unicode="&#xed;" horiz-adv-x="403" 
d="M201 451l-100 -35q-2 -1 -5 -1.5t-6 -0.5q-6 0 -9 4.5t-3 11.5q0 6 6 10.5t17 8.5l223 75l-205 -438q-9 -20 -13 -31.5t-4 -19.5q0 -17 9.5 -25t27.5 -8t36 11.5t20 11.5q3 -1 6 -4.5t4 -8.5q0 -11 -31.5 -26t-64.5 -15q-16 0 -46.5 6.5t-46.5 6.5h-4q-8 0 -38 -6.5
t-52 -6.5q-15 0 -22 3.5t-9 11.5q0 4 4 8.5t7 3.5q7 0 15 -2h3q69 0 188 260zM258 631q-8 0 -11 2t-3 8q0 8 52 37.5t77 69.5q12 18 26 60q24 75 66 75q16 0 26.5 -13t10.5 -32q0 -60 -94 -133.5t-150 -73.5z" />
    <glyph glyph-name="igrave" unicode="&#xec;" horiz-adv-x="403" 
d="M201 451l-100 -35q-2 -1 -5 -1.5t-6 -0.5q-6 0 -9 4.5t-3 11.5q0 6 6 10.5t17 8.5l223 75l-205 -438q-9 -20 -13 -31.5t-4 -19.5q0 -17 9.5 -25t27.5 -8t36 11.5t20 11.5q3 -1 6 -4.5t4 -8.5q0 -11 -31.5 -26t-64.5 -15q-16 0 -46.5 6.5t-46.5 6.5h-4q-8 0 -38 -6.5
t-52 -6.5q-15 0 -22 3.5t-9 11.5q0 4 4 8.5t7 3.5q7 0 15 -2h3q69 0 188 260zM172 823q0 22 10.5 33.5t28.5 11.5q34 0 60 -65q13 -33 22 -47q28 -47 74.5 -80t46.5 -37q0 -5 -3 -7.5t-9 -2.5q-42 0 -136 71t-94 123z" />
    <glyph glyph-name="icircumflex" unicode="&#xee;" horiz-adv-x="403" 
d="M201 451l-100 -35q-2 -1 -5 -1.5t-6 -0.5q-6 0 -9 4.5t-3 11.5q0 6 6 10.5t17 8.5l223 75l-205 -438q-9 -20 -13 -31.5t-4 -19.5q0 -17 9.5 -25t27.5 -8t36 11.5t20 11.5q3 -1 6 -4.5t4 -8.5q0 -11 -31.5 -26t-64.5 -15q-16 0 -46.5 6.5t-46.5 6.5h-4q-8 0 -38 -6.5
t-52 -6.5q-15 0 -22 3.5t-9 11.5q0 4 4 8.5t7 3.5q7 0 15 -2h3q69 0 188 260zM326 768q-76 -66 -142.5 -112t-80.5 -46q-10 0 -13.5 2.5t-3.5 8.5t42 38t77 66q52 50 95 106t50 56q11 0 18 -31.5t19 -60.5q22 -55 56 -110t34 -60q0 -7 -3 -11t-9 -4q-17 0 -52 40t-87 118z
" />
    <glyph glyph-name="idieresis" unicode="&#xef;" horiz-adv-x="403" 
d="M201 451l-100 -35q-2 -1 -5 -1.5t-6 -0.5q-6 0 -9 4.5t-3 11.5q0 6 6 10.5t17 8.5l223 75l-205 -438q-9 -20 -13 -31.5t-4 -19.5q0 -17 9.5 -25t27.5 -8t36 11.5t20 11.5q3 -1 6 -4.5t4 -8.5q0 -11 -31.5 -26t-64.5 -15q-16 0 -46.5 6.5t-46.5 6.5h-4q-8 0 -38 -6.5
t-52 -6.5q-15 0 -22 3.5t-9 11.5q0 4 4 8.5t7 3.5q7 0 15 -2h3q69 0 188 260zM406 676q0 33 19 54.5t48 21.5q25 0 38.5 -14.5t13.5 -41.5q0 -29 -19 -49t-47 -20q-25 0 -39 13t-14 36zM140 678q0 30 19.5 52t47.5 22q25 0 39 -15t14 -41q0 -29 -19 -49t-48 -20
q-25 0 -39 13.5t-14 37.5z" />
    <glyph glyph-name="ntilde" unicode="&#xf1;" horiz-adv-x="717" 
d="M162 434q-27 -4 -63.5 -17.5t-47.5 -13.5q-4 0 -8 4t-4 9q0 9 86 39t154 57l-46 -123q63 69 123.5 103t120.5 34q59 0 93 -34t34 -93q0 -48 -35 -115.5t-116 -172.5l-32 -41q-36 -44 -36 -52q0 -4 4 -8t8 -4q2 0 23.5 12.5t44.5 12.5q7 0 23 -2t26 -2q17 0 32.5 4
t28.5 12q-6 -32 -42.5 -54t-83.5 -22q-13 0 -42 6.5t-47 6.5q-11 0 -26.5 -2.5t-34.5 -6.5q94 111 150.5 221t56.5 173q0 53 -22 75.5t-74 22.5q-45 0 -103.5 -43t-99.5 -109q-56 -90 -92.5 -172t-36.5 -106q0 -18 8 -26.5t25 -8.5q20 0 39 12.5t20 12.5q4 0 7 -4.5t3 -8.5
q0 -11 -32 -27t-66 -16q-21 0 -55 6.5t-47 6.5q-22 0 -52.5 -12.5t-40.5 -12.5q-4 -1 -7 2.5t-5 11.5q0 5 22 12.5t36 14.5q52 26 121 198q59 146 108 240zM290 678q0 42 32.5 83.5t74.5 41.5q39 0 101.5 -24.5t88.5 -24.5q36 0 58.5 30.5t27.5 30.5t9 -3t4 -7
q0 -37 -34.5 -80t-80.5 -43q-30 0 -92.5 24.5t-89.5 24.5q-34 0 -58 -31.5t-28 -31.5q-5 0 -8.5 2.5t-4.5 7.5z" />
    <glyph glyph-name="oacute" unicode="&#xf3;" horiz-adv-x="635" 
d="M340 492q-98 0 -181 -113.5t-83 -243.5q0 -62 32.5 -96.5t90.5 -34.5q94 0 178 116t84 236q0 65 -31.5 100.5t-89.5 35.5zM-16 184q0 138 102 240t242 102q102 0 159.5 -56t57.5 -157q0 -143 -101.5 -245.5t-244.5 -102.5q-99 0 -157 59.5t-58 159.5zM372 631q-8 0 -11 2
t-3 8q0 8 52 37.5t77 69.5q12 18 26 60q24 75 66 75q16 0 26.5 -13t10.5 -32q0 -60 -94 -133.5t-150 -73.5z" />
    <glyph glyph-name="ograve" unicode="&#xf2;" horiz-adv-x="635" 
d="M340 492q-98 0 -181 -113.5t-83 -243.5q0 -62 32.5 -96.5t90.5 -34.5q94 0 178 116t84 236q0 65 -31.5 100.5t-89.5 35.5zM-16 184q0 138 102 240t242 102q102 0 159.5 -56t57.5 -157q0 -143 -101.5 -245.5t-244.5 -102.5q-99 0 -157 59.5t-58 159.5zM286 823
q0 22 10.5 33.5t28.5 11.5q34 0 60 -65q13 -33 22 -47q28 -47 74.5 -80t46.5 -37q0 -5 -3 -7.5t-9 -2.5q-42 0 -136 71t-94 123z" />
    <glyph glyph-name="ocircumflex" unicode="&#xf4;" horiz-adv-x="635" 
d="M340 492q-98 0 -181 -113.5t-83 -243.5q0 -62 32.5 -96.5t90.5 -34.5q94 0 178 116t84 236q0 65 -31.5 100.5t-89.5 35.5zM-16 184q0 138 102 240t242 102q102 0 159.5 -56t57.5 -157q0 -143 -101.5 -245.5t-244.5 -102.5q-99 0 -157 59.5t-58 159.5zM440 768
q-76 -66 -142.5 -112t-80.5 -46q-10 0 -13.5 2.5t-3.5 8.5t42 38t77 66q52 50 95 106t50 56q11 0 18 -31.5t19 -60.5q22 -55 56 -110t34 -60q0 -7 -3 -11t-9 -4q-17 0 -52 40t-87 118z" />
    <glyph glyph-name="odieresis" unicode="&#xf6;" horiz-adv-x="635" 
d="M340 492q-98 0 -181 -113.5t-83 -243.5q0 -62 32.5 -96.5t90.5 -34.5q94 0 178 116t84 236q0 65 -31.5 100.5t-89.5 35.5zM-16 184q0 138 102 240t242 102q102 0 159.5 -56t57.5 -157q0 -143 -101.5 -245.5t-244.5 -102.5q-99 0 -157 59.5t-58 159.5zM520 676
q0 33 19 54.5t48 21.5q25 0 38.5 -14.5t13.5 -41.5q0 -29 -19 -49t-47 -20q-25 0 -39 13t-14 36zM254 678q0 30 19.5 52t47.5 22q25 0 39 -15t14 -41q0 -29 -19 -49t-48 -20q-25 0 -39 13.5t-14 37.5z" />
    <glyph glyph-name="otilde" unicode="&#xf5;" horiz-adv-x="635" 
d="M340 492q-98 0 -181 -113.5t-83 -243.5q0 -62 32.5 -96.5t90.5 -34.5q94 0 178 116t84 236q0 65 -31.5 100.5t-89.5 35.5zM-16 184q0 138 102 240t242 102q102 0 159.5 -56t57.5 -157q0 -143 -101.5 -245.5t-244.5 -102.5q-99 0 -157 59.5t-58 159.5zM249 678
q0 42 32.5 83.5t74.5 41.5q39 0 101.5 -24.5t88.5 -24.5q36 0 58.5 30.5t27.5 30.5t9 -3t4 -7q0 -37 -34.5 -80t-80.5 -43q-30 0 -92.5 24.5t-89.5 24.5q-34 0 -58 -31.5t-28 -31.5q-5 0 -8.5 2.5t-4.5 7.5z" />
    <glyph glyph-name="uacute" unicode="&#xfa;" horiz-adv-x="711" 
d="M657 508l-204 -408q-11 -19 -17 -39t-6 -32q0 -16 10 -25.5t27 -9.5q11 0 26.5 13t20.5 13q3 0 6.5 -3.5t3.5 -6.5q0 -15 -22.5 -29t-52.5 -14q-4 0 -32.5 6.5t-54.5 6.5q-21 -1 -39.5 -4.5t-33.5 -10.5l35 41q8 11 11 16t3 9q0 3 -4 5.5t-8 2.5q-7 0 -30 -16
q-81 -56 -157 -56q-70 0 -111.5 34.5t-41.5 92.5q0 36 28 99q3 6 4 9l113 244l-94 -22h-10q-5 0 -8 3t-3 7q0 5 3.5 8t10.5 4l238 62l-162 -330q-20 -44 -26 -63t-6 -35q0 -35 24 -55.5t66 -20.5q72 0 125.5 41.5t97.5 132.5l131 271l-53 -13l-10 -2q-7 0 -11 3t-4 7
q0 6 5 9.5t14 5.5zM411 631q-8 0 -11 2t-3 8q0 8 52 37.5t77 69.5q12 18 26 60q24 75 66 75q16 0 26.5 -13t10.5 -32q0 -60 -94 -133.5t-150 -73.5z" />
    <glyph glyph-name="ugrave" unicode="&#xf9;" horiz-adv-x="711" 
d="M657 508l-204 -408q-11 -19 -17 -39t-6 -32q0 -16 10 -25.5t27 -9.5q11 0 26.5 13t20.5 13q3 0 6.5 -3.5t3.5 -6.5q0 -15 -22.5 -29t-52.5 -14q-4 0 -32.5 6.5t-54.5 6.5q-21 -1 -39.5 -4.5t-33.5 -10.5l35 41q8 11 11 16t3 9q0 3 -4 5.5t-8 2.5q-7 0 -30 -16
q-81 -56 -157 -56q-70 0 -111.5 34.5t-41.5 92.5q0 36 28 99q3 6 4 9l113 244l-94 -22h-10q-5 0 -8 3t-3 7q0 5 3.5 8t10.5 4l238 62l-162 -330q-20 -44 -26 -63t-6 -35q0 -35 24 -55.5t66 -20.5q72 0 125.5 41.5t97.5 132.5l131 271l-53 -13l-10 -2q-7 0 -11 3t-4 7
q0 6 5 9.5t14 5.5zM325 823q0 22 10.5 33.5t28.5 11.5q34 0 60 -65q13 -33 22 -47q28 -47 74.5 -80t46.5 -37q0 -5 -3 -7.5t-9 -2.5q-42 0 -136 71t-94 123z" />
    <glyph glyph-name="ucircumflex" unicode="&#xfb;" horiz-adv-x="711" 
d="M657 508l-204 -408q-11 -19 -17 -39t-6 -32q0 -16 10 -25.5t27 -9.5q11 0 26.5 13t20.5 13q3 0 6.5 -3.5t3.5 -6.5q0 -15 -22.5 -29t-52.5 -14q-4 0 -32.5 6.5t-54.5 6.5q-21 -1 -39.5 -4.5t-33.5 -10.5l35 41q8 11 11 16t3 9q0 3 -4 5.5t-8 2.5q-7 0 -30 -16
q-81 -56 -157 -56q-70 0 -111.5 34.5t-41.5 92.5q0 36 28 99q3 6 4 9l113 244l-94 -22h-10q-5 0 -8 3t-3 7q0 5 3.5 8t10.5 4l238 62l-162 -330q-20 -44 -26 -63t-6 -35q0 -35 24 -55.5t66 -20.5q72 0 125.5 41.5t97.5 132.5l131 271l-53 -13l-10 -2q-7 0 -11 3t-4 7
q0 6 5 9.5t14 5.5zM479 768q-76 -66 -142.5 -112t-80.5 -46q-10 0 -13.5 2.5t-3.5 8.5t42 38t77 66q52 50 95 106t50 56q11 0 18 -31.5t19 -60.5q22 -55 56 -110t34 -60q0 -7 -3 -11t-9 -4q-17 0 -52 40t-87 118z" />
    <glyph glyph-name="udieresis" unicode="&#xfc;" horiz-adv-x="711" 
d="M657 508l-204 -408q-11 -19 -17 -39t-6 -32q0 -16 10 -25.5t27 -9.5q11 0 26.5 13t20.5 13q3 0 6.5 -3.5t3.5 -6.5q0 -15 -22.5 -29t-52.5 -14q-4 0 -32.5 6.5t-54.5 6.5q-21 -1 -39.5 -4.5t-33.5 -10.5l35 41q8 11 11 16t3 9q0 3 -4 5.5t-8 2.5q-7 0 -30 -16
q-81 -56 -157 -56q-70 0 -111.5 34.5t-41.5 92.5q0 36 28 99q3 6 4 9l113 244l-94 -22h-10q-5 0 -8 3t-3 7q0 5 3.5 8t10.5 4l238 62l-162 -330q-20 -44 -26 -63t-6 -35q0 -35 24 -55.5t66 -20.5q72 0 125.5 41.5t97.5 132.5l131 271l-53 -13l-10 -2q-7 0 -11 3t-4 7
q0 6 5 9.5t14 5.5zM559 676q0 33 19 54.5t48 21.5q25 0 38.5 -14.5t13.5 -41.5q0 -29 -19 -49t-47 -20q-25 0 -39 13t-14 36zM293 678q0 30 19.5 52t47.5 22q25 0 39 -15t14 -41q0 -29 -19 -49t-48 -20q-25 0 -39 13.5t-14 37.5z" />
    <glyph glyph-name="dagger" unicode="&#x2020;" horiz-adv-x="825" 
d="M537 737l-185 -16q-20 -2 -40.5 -3t-45.5 -1q-34 0 -48.5 9.5t-14.5 31.5q0 25 21 38t63 13l98 -12l172 -19l90 236q40 106 59.5 133t45.5 27q20 0 33.5 -12.5t13.5 -31.5q0 -28 -52 -109q-16 -24 -24 -38l-131 -209l205 29q22 3 42 4.5t44 1.5q34 0 48.5 -11t14.5 -36
q0 -21 -19.5 -33t-56.5 -12q-10 0 -37.5 1.5t-66.5 4.5l-188 14l-3 -114l-226 -436.5l-234 -485.5h-49l24 54q253 564 359 868z" />
    <glyph glyph-name="degree" unicode="&#xb0;" horiz-adv-x="674" 
d="M338 1389q-89 0 -151 -62t-62 -151t62.5 -151t150.5 -62t150.5 62t62.5 151q0 88 -62.5 150.5t-150.5 62.5zM338 1450q112 0 192 -80.5t80 -193.5q0 -114 -80 -193.5t-194 -79.5q-115 0 -194 79t-79 194q0 114 80.5 194t194.5 80z" />
    <glyph glyph-name="cent" unicode="&#xa2;" horiz-adv-x="711" 
d="M401 489h-12q-110 0 -190 -93.5t-80 -217.5q0 -35 9 -64.5t28 -56.5zM485 631h27l4 -10l-59 -107h18q20 0 36.5 2t32.5 6q10 -18 14.5 -38.5t4.5 -41.5q0 -48 -27.5 -78t-72.5 -30q-28 0 -47 16.5t-25 46.5q2 0 9 -2q27 -6 36 -6q31 0 47.5 16.5t16.5 47.5q0 8 -3 22
q-1 6 -1 8q-13 1 -24.5 1.5t-20.5 0.5q-1 0 -4 1t-7 1l-256 -450q19 -16 40 -23.5t46 -7.5q115 0 193 118q11 17 14 17q2 0 4 -3t2 -7q0 -47 -75.5 -105.5t-171.5 -58.5q-23 0 -43 3.5t-39 11.5l-64 -115l-8 -8h-31l-2 10l72 127q-44 26 -69 78.5t-25 115.5q0 133 96 234.5
t221 101.5q2 0 26.5 -3t47.5 -5l57 107z" />
    <glyph glyph-name="sterling" unicode="&#xa3;" horiz-adv-x="772" 
d="M141 360h-135q-12 1 -22.5 -3t-20.5 -9l25 50q3 6 11.5 10t18.5 4h150q124 231 207.5 305t195.5 74q68 0 127.5 -38t59.5 -71q-1 -6 -3.5 -9t-6.5 -3q-5 0 -20 17q-59 71 -132 71q-94 0 -172.5 -80t-163.5 -266h135q15 0 27 4.5t22 13.5l-26 -53q-4 -7 -13 -12t-20 -5
h-147q-132 -250 -268 -354q-17 -13 -17 -16q1 -5 3.5 -7t6.5 -1q6 0 64.5 31.5t122.5 31.5q31 0 107.5 -12.5t121.5 -12.5q87 0 149 40t78 104q6 22 10 52q2 21 11 22q7 -1 8.5 -3t1.5 -14v-10q0 -112 -79 -179t-212 -67q-57 0 -140 17.5t-110 17.5q-43 0 -92.5 -22.5
t-58.5 -22.5q-17 0 -26 8t-9 23q1 4 18 26q111 141 213 348z" />
    <glyph glyph-name="section" unicode="&#xa7;" horiz-adv-x="1157" 
d="M567 764q-4 0 -13 1t-13 1q-111 0 -180.5 -78t-69.5 -201q0 -81 40 -166.5t175 -261.5q7 -1 15 -1.5t24 -0.5q106 0 171.5 79.5t65.5 209.5q0 88 -49 184t-166 234zM539 807q-28 40 -41 76.5t-13 72.5q0 97 79.5 157.5t209.5 60.5q119 0 192.5 -56t73.5 -143
q0 -47 -23.5 -75t-62.5 -28q-41 0 -66.5 29.5t-25.5 77.5v10q16 -15 30 -23t28 -8q21 0 34 15t13 41q0 54 -53 88.5t-140 34.5q-99 0 -158 -41.5t-59 -110.5q0 -67 99 -190l26 -33q118 -151 160.5 -240t42.5 -174q0 -146 -93.5 -239t-242.5 -93h-12q27 -41 40 -77.5
t13 -75.5q0 -95 -79.5 -154t-209.5 -59q-119 0 -192.5 56t-73.5 142q0 47 23.5 75t62.5 28q41 0 66.5 -29.5t25.5 -77.5v-10q-16 16 -30 23.5t-27 7.5q-22 0 -34.5 -15t-12.5 -40q0 -55 52.5 -89t139.5 -34q98 0 156.5 41.5t58.5 109.5q0 71 -108 208l-46 58
q-97 130 -135.5 214t-38.5 161q0 142 95 235t243 93h13z" />
    <glyph glyph-name="bullet" unicode="&#x2022;" horiz-adv-x="1208" 
d="M307 762q0 123 87 209t210 86q122 0 208.5 -86.5t86.5 -208.5t-87.5 -209.5t-209.5 -87.5q-123 0 -209 87t-86 210z" />
    <glyph glyph-name="paragraph" unicode="&#xb6;" 
d="M932 1479v-64h-129v-1415h-70v1415h-192v-1415h-70v782q-175 8 -278 102.5t-103 245.5q0 157 108.5 253t286.5 96h447z" />
    <glyph glyph-name="germandbls" unicode="&#xdf;" horiz-adv-x="735" 
d="M635 1137q-50 0 -93.5 -58.5t-105.5 -218.5q-79 -202 -159.5 -388t-159.5 -349q-97 -200 -222 -353t-237 -214q-58 -32 -111.5 -52t-74.5 -20q-4 0 -6.5 3.5t-2.5 8.5q0 6 29 14q176 54 313 242q184 250 423 815l108 250q89 198 158 275t151 77q60 0 95.5 -37.5
t35.5 -101.5q0 -51 -24.5 -103t-77.5 -112l-49 -52q-140 -146 -140 -261q0 -79 61.5 -198.5t61.5 -178.5q0 -66 -56.5 -112t-139.5 -46q-77 0 -133 41.5t-56 95.5q0 23 13 36.5t34 13.5q18 0 28.5 -12.5t10.5 -32.5v-27q0 -36 23 -57t61 -21q50 0 80.5 30.5t30.5 82.5
q0 38 -48 148.5t-48 185.5q0 130 165 347l33 44q44 55 70 120.5t26 116.5q0 23 -20 40.5t-47 17.5z" />
    <glyph glyph-name="registered" unicode="&#xae;" horiz-adv-x="1683" 
d="M717 717q12 -1 26.5 -1.5t40.5 -0.5q128 0 195.5 45t67.5 131q0 76 -58.5 121t-159.5 45q-54 0 -83 -20t-29 -56v-264zM469 1087h391q147 0 231.5 -52.5t84.5 -143.5q0 -75 -70 -122.5t-221 -76.5q92 -30 139.5 -78.5t71.5 -136.5q5 -20 12 -59q15 -88 55 -88
q41 0 60 30.5t20 97.5l37 1v-8q0 -88 -37.5 -132.5t-112.5 -44.5q-46 0 -79 18.5t-45 51.5q-16 39 -17.5 113.5t-9.5 99.5q-23 66 -76 96.5t-147 30.5q-6 0 -19 -1t-20 -1v-248q0 -56 29 -78t108 -24v-39h-385v39q79 2 108 24t29 78v512q0 57 -30 80t-107 25v36zM844 1298
q-123 0 -235.5 -47t-198.5 -135q-88 -89 -134.5 -201.5t-46.5 -236.5q0 -126 46.5 -238.5t134.5 -199.5q88 -89 198 -135t234 -46q126 0 236.5 46.5t195.5 134.5q88 91 135 203.5t47 234.5q0 123 -48 240.5t-132 201.5q-85 85 -198 131.5t-234 46.5zM844 1370
q134 0 261 -52.5t224 -148.5q96 -95 149.5 -225t53.5 -266q0 -135 -53 -261t-152 -227q-97 -98 -221.5 -150t-263.5 -52q-138 0 -262.5 51.5t-225.5 150.5q-99 100 -150.5 224t-51.5 264q0 138 51 263t149 224q97 98 225 151.5t267 53.5z" />
    <glyph glyph-name="copyright" unicode="&#xa9;" horiz-adv-x="1683" 
d="M1118 1093l31 1v-308h-37q-32 136 -104 205.5t-181 69.5q-127 0 -192.5 -95.5t-65.5 -281.5q0 -190 70 -286.5t207 -96.5q90 0 161 42.5t126 129.5l30 -20q-55 -102 -140.5 -154.5t-195.5 -52.5q-164 0 -279.5 122t-115.5 296q0 184 113.5 310t277.5 126q71 0 145 -34
t85 -34q28 0 44.5 16t20.5 45zM844 1298q-123 0 -235.5 -47t-198.5 -135q-88 -89 -134.5 -201.5t-46.5 -236.5q0 -126 46.5 -238.5t134.5 -199.5q88 -89 198 -135t234 -46q126 0 236.5 46.5t195.5 134.5q88 91 135 203.5t47 234.5q0 123 -48 240.5t-132 201.5
q-85 85 -198 131.5t-234 46.5zM844 1370q134 0 261 -52.5t224 -148.5q96 -95 149.5 -225t53.5 -266q0 -135 -53 -261t-152 -227q-97 -98 -221.5 -150t-263.5 -52q-138 0 -262.5 51.5t-225.5 150.5q-99 100 -150.5 224t-51.5 264q0 138 51 263t149 224q97 98 225 151.5
t267 53.5z" />
    <glyph glyph-name="trademark" unicode="&#x2122;" horiz-adv-x="1683" 
d="M801 1432h170l145 -414l158 414h162v-25h-31q-22 0 -35.5 -15t-13.5 -40v-369q0 -24 13.5 -39.5t35.5 -15.5h31v-25h-228v25h31q22 0 35.5 15.5t13.5 39.5v406l-186 -490h-8l-174 487v-403q0 -24 13.5 -39.5t35.5 -15.5h30v-25h-198v23h30q22 0 36 15.5t14 41.5v367
q0 24 -14 40.5t-36 16.5h-30v25zM264 1432h436l11 -175h-23q-8 81 -41.5 116.5t-101.5 35.5h-23v-426q0 -24 14 -39.5t35 -15.5h31v-25h-242v25h33q22 0 35.5 15.5t13.5 39.5v426h-22q-69 0 -102.5 -35.5t-41.5 -116.5h-22z" />
    <glyph glyph-name="acute" unicode="&#xb4;" 
d="M567 631q-8 0 -11 2t-3 8q0 8 52 37.5t77 69.5q12 18 26 60q24 75 66 75q16 0 26.5 -13t10.5 -32q0 -60 -94 -133.5t-150 -73.5z" />
    <glyph glyph-name="dieresis" unicode="&#xa8;" 
d="M715 676q0 33 19 54.5t48 21.5q25 0 38.5 -14.5t13.5 -41.5q0 -29 -19 -49t-47 -20q-25 0 -39 13t-14 36zM449 678q0 30 19.5 52t47.5 22q25 0 39 -15t14 -41q0 -29 -19 -49t-48 -20q-25 0 -39 13.5t-14 37.5z" />
    <glyph glyph-name="notequal" unicode="&#x2260;" horiz-adv-x="1706" 
d="M1217 1157l63 -49l-217 -277h389v-79h-440l-219 -283h659v-82h-711l-254 -324l-61 48l215 276h-387v82h436l221 283h-657v79h709z" />
    <glyph glyph-name="AE" unicode="&#xc6;" horiz-adv-x="2099" 
d="M1206 668q49 37 113 59.5t154 34.5q-63 22 -97.5 68.5t-34.5 109.5q0 105 84 168t226 63q136 0 231.5 -68t95.5 -157q0 -54 -28 -84.5t-78 -30.5q-55 0 -101.5 44.5t-46.5 78.5q1 8 4.5 11t12.5 4q4 0 16 -15q41 -51 90 -51q33 0 49.5 16.5t16.5 49.5q0 68 -70.5 116
t-179.5 48q-107 0 -169 -49t-62 -134q0 -73 50 -131.5t50 -66.5q0 -20 -49 -32q-46 -11 -77 -24q-145 -63 -214.5 -152.5t-69.5 -215.5q0 -148 106 -237t279 -89q211 0 342 128.5t131 328.5q0 11 -2 30t-2 27q0 6 5 10t12 4q11 0 15.5 -17.5t4.5 -74.5q0 -202 -143.5 -338.5
t-366.5 -136.5q-176 0 -296 71t-158 197l-10 -22q-52 -124 -52 -154q0 -21 11.5 -31t37.5 -10q17 0 35 8.5t21 8.5q5 0 9.5 -5t4.5 -12q0 -15 -27 -33t-57 -18q-9 0 -56 12.5t-94 12.5q-33 0 -67 -16q-10 -5 -12 -5q-4 1 -5.5 4t-1.5 9q0 9 35.5 36t57.5 58
q39 55 81.5 151.5t81.5 220.5h-14q-49 0 -133 10t-119 11q-211 -303 -343 -403.5t-286 -100.5q-117 0 -194.5 61.5t-77.5 149.5q2 7 6.5 10t12.5 2q12 0 16 -25q2 -20 4 -24q20 -61 79.5 -98t137.5 -37q103 0 188.5 53.5t176.5 173.5l154 221t261 357q132 168 249.5 253
t219.5 85q4 0 12.5 -1t12.5 -1q-50 -50 -93 -149.5t-106 -325.5zM1202 1157q-88 -61 -164 -87t-170 -26q-95 0 -228.5 24t-170.5 24q-125 0 -196.5 -73t-71.5 -200q0 -55 16 -112t16 -60q0 -7 -3.5 -10.5t-10.5 -3.5q-13 0 -33 63t-20 127q0 152 103.5 250t265.5 98
q55 0 193 -26.5t218 -26.5q49 0 112.5 9.5t143.5 29.5zM799 500q42 -3 112 -12t97 -9h51q84 267 144.5 398.5t133.5 226.5q-171 -28 -473 -502z" />
    <glyph glyph-name="Oslash" unicode="&#xd8;" horiz-adv-x="1253" 
d="M303 106q44 -51 103.5 -77.5t130.5 -26.5q117 0 217 71t190 218q73 120 112.5 249t39.5 246q0 81 -12 134t-37 94zM136 -95q-7 -9 -13.5 -13.5t-11.5 -4.5q-11 0 -17 6.5t-6 16.5q0 5 1.5 8.5t7.5 12.5l128 153q-54 62 -80 139.5t-26 177.5q0 154 67 310t191 288
q54 58 102.5 97t63.5 39q4 0 7 -2.5t3 -6.5q0 -14 -41 -58q-33 -36 -53 -60q-110 -134 -171 -296t-61 -319q0 -64 13 -126.5t39 -121.5l741 902q-43 45 -87 65.5t-102 20.5q-103 0 -184 -62t-125 -174q-9 -24 -20 -62q-13 -46 -25 -47q-7 0 -11.5 6t-4.5 15
q0 131 110.5 246.5t259.5 115.5q62 0 115 -21t107 -67l112 139q7 9 14 14t11 5q10 0 16 -7t6 -17q0 -8 -7 -17q-2 -3 -3 -4l-121 -143q53 -63 78 -142t25 -182q0 -143 -50 -291t-135 -258q-86 -110 -197 -164.5t-251 -54.5q-93 0 -164 22.5t-129 69.5z" />
    <glyph glyph-name="infinity" unicode="&#x221e;" horiz-adv-x="1706" 
d="M889 557q54 -103 125 -154t162 -51q107 0 176 78t69 199q0 119 -63.5 196.5t-159.5 77.5q-87 0 -157.5 -77.5t-151.5 -268.5zM819 670q-52 102 -123.5 153t-163.5 51q-108 0 -176.5 -77.5t-68.5 -198.5q0 -118 63.5 -195t159.5 -77q88 0 158 76t151 268zM870 510
q-70 -138 -147.5 -202t-173.5 -64q-130 0 -220.5 106t-90.5 262q0 166 80 267.5t210 101.5q98 0 172.5 -64.5t135.5 -203.5q66 139 146 206.5t177 67.5q130 0 219.5 -106t89.5 -265q0 -166 -80.5 -269t-209.5 -103q-93 0 -164.5 61t-143.5 205z" />
    <glyph glyph-name="plusminus" unicode="&#xb1;" horiz-adv-x="1706" 
d="M254 141h1198v-82h-1198v82zM813 1161h80v-354h559v-80h-559v-352h-80v352h-559v80h559v354z" />
    <glyph glyph-name="lessequal" unicode="&#x2264;" horiz-adv-x="1706" 
d="M264 129h1178v-80h-1178v80zM1442 1171v-88l-1043 -350l1043 -352v-88l-1178 405v70z" />
    <glyph glyph-name="greaterequal" unicode="&#x2265;" horiz-adv-x="1706" 
d="M264 129h1178v-80h-1178v80zM264 1171l1178 -403v-70l-1178 -405v88l1043 352l-1043 350v88z" />
    <glyph glyph-name="yen" unicode="&#xa5;" horiz-adv-x="840" 
d="M295 98q-12 -26 -19.5 -46.5t-7.5 -28.5q0 -13 7 -21t16 -8t19 5t12 5q3 0 6.5 -2.5t3.5 -5.5q0 -8 -18 -17.5t-38 -9.5q-10 0 -35 7.5t-40 7.5h-6q-2 0 -26.5 -5.5t-47.5 -5.5t-37 5.5t-14 13.5q0 6 2.5 9t7.5 3q8 0 21 -3t18 -3q44 0 123 163l12 23l63 133h-241
q-11 0 -16 3t-5 10q1 6 7.5 10t17.5 4h239l-36 127h-166q-11 0 -15 3t-4 9q1 7 6 9.5t17 3.5h151l-36 139q-25 66 -85.5 93.5t-60.5 37.5q0 12 14 18.5t39 6.5q61 0 103.5 -37.5t60.5 -106.5l78 -285l360 330q57 52 95 74t67 22q20 0 34.5 -7t14.5 -15q0 -4 -3 -6t-9 -2
l-3 1q-9 3 -17 3q-21 0 -50.5 -19.5t-91.5 -74.5l-190 -172h166q12 0 16 -3t4 -10q0 -5 -6.5 -8.5t-17.5 -3.5h-189l-147 -129h215q11 0 15.5 -3t4.5 -9q0 -5 -6 -8.5t-16 -4.5h-234z" />
    <glyph glyph-name="mu" unicode="&#xb5;" horiz-adv-x="1051" 
d="M162 190q-21 -131 -41 -330q-28 -276 -101 -276q-29 0 -49 18t-20 44q0 39 59.5 287t98.5 432l108 520h119l-111 -518q-4 -20 -6 -41.5t-2 -46.5q0 -95 46.5 -153t121.5 -58q99 0 170 85t109 250l110 482h119l-117 -527q-13 -59 -19.5 -104.5t-6.5 -73.5q0 -44 20 -69
t55 -25q43 0 77.5 27t53.5 75q13 30 30 79q25 71 44 71q12 0 19.5 -8.5t7.5 -22.5q0 -30 -15.5 -82.5t-37.5 -93.5q-40 -72 -93.5 -108.5t-117.5 -36.5q-70 0 -107 45t-37 129q0 5 1 16t1 17q-43 -108 -110 -160.5t-160 -52.5t-149 53.5t-70 156.5z" />
    <glyph glyph-name="partialdiff" unicode="&#x2202;" 
d="M750 578q11 69 16.5 144.5t5.5 160.5q0 179 -38 266.5t-116 87.5q-45 0 -99.5 -73.5t-108.5 -73.5q-29 0 -48.5 18.5t-19.5 46.5q0 59 61 102t148 43q160 0 254 -147t94 -401q0 -335 -131.5 -557t-323.5 -222q-139 0 -224 105t-85 280q0 173 107 296.5t258 123.5
q97 0 158.5 -49t91.5 -151zM713 459q0 125 -47 190.5t-138 65.5q-117 0 -190.5 -125t-73.5 -330q0 -117 47.5 -179.5t137.5 -62.5q114 0 189 125.5t75 315.5z" />
    <glyph glyph-name="summation" unicode="&#x2211;" horiz-adv-x="1384" 
d="M8 1473h1090l80 -304h-68l-55 209q-5 16 -16.5 23.5t-32.5 7.5h-824l951 -879v-36l-914 -789h895q67 0 84.5 13t30.5 53l71 229h68l-119 -393h-1237v10l1018 872l-1022 941v43z" />
    <glyph glyph-name="product" unicode="&#x220f;" horiz-adv-x="1538" 
d="M61 1473h1416v-64h-187v-1739h187v-63h-494v63h207v1739h-842v-1739h207v-63h-494v63h187v1739h-187v64z" />
    <glyph glyph-name="pi" unicode="&#x3c0;" horiz-adv-x="1298" 
d="M1268 885l-25 -109h-311q-45 -219 -78 -520q-34 -299 -113 -299q-34 0 -54.5 22t-20.5 58q0 29 77.5 273.5t133.5 465.5h-361q-44 -219 -78 -520q-33 -299 -112 -299q-35 0 -55.5 22t-20.5 58q0 29 77.5 273.5t133.5 465.5h-189q-72 0 -111 -50.5t-71 -197.5h-65
q32 191 108.5 274t218.5 83h916z" />
    <glyph glyph-name="integral" unicode="&#x222b;" horiz-adv-x="948" 
d="M401 578q0 498 86.5 733t268.5 235q65 0 106 -35t41 -90q0 -45 -27.5 -71.5t-74.5 -26.5q-77 0 -101.5 64.5t-33.5 64.5q-67 0 -93 -159t-26 -687q0 -509 -85.5 -743t-268.5 -234q-64 0 -106 34.5t-42 84.5q0 48 28.5 77.5t76.5 29.5q33 0 56 -13.5t40 -42.5
q7 -12 12 -43t25 -32q66 0 92 165t26 689z" />
    <glyph glyph-name="ordfeminine" unicode="&#xaa;" horiz-adv-x="551" 
d="M420 1151h-25q-146 0 -244 -68.5t-98 -162.5q0 -49 28.5 -75t82.5 -26q26 0 50.5 8.5t53.5 28.5q24 76 61 149t91 146zM495 1163q-73 -123 -113 -206.5t-40 -114.5q0 -21 11.5 -33t29.5 -12q35 0 47 26.5t16 26.5q6 -1 7.5 -2t1.5 -4q0 -25 -21 -44.5t-53 -19.5
q-8 0 -38 5.5t-52 5.5q-12 0 -17.5 -0.5t-11.5 -1.5l-10 38q-38 -24 -70 -35.5t-61 -11.5q-62 0 -98.5 34.5t-36.5 92.5q0 103 118 183.5t279 80.5q47 0 70 -1.5t42 -6.5z" />
    <glyph glyph-name="ordmasculine" unicode="&#xba;" horiz-adv-x="477" 
d="M256 1149q-74 0 -136.5 -79.5t-62.5 -170.5q0 -44 24.5 -68t68.5 -24q71 0 133.5 81.5t62.5 166.5q0 44 -23.5 69t-66.5 25zM-12 934q0 97 76 168.5t182 71.5q77 0 120.5 -40t43.5 -110q0 -100 -76.5 -172t-183.5 -72q-74 0 -118 42t-44 112z" />
    <glyph glyph-name="Omega" unicode="&#x3a9;" horiz-adv-x="1565" 
d="M1079 123v-23h318l78 232h59l-98 -332h-492q160 266 236.5 477.5t76.5 386.5q0 264 -125.5 416t-345.5 152q-219 0 -346 -152.5t-127 -415.5q0 -177 76.5 -388.5t237.5 -475.5h-492l-98 332h59l78 -232h318v23q-152 202 -224.5 388t-72.5 372q0 277 163.5 445.5
t427.5 168.5q265 0 428.5 -168.5t163.5 -445.5q0 -184 -73 -370t-226 -390z" />
    <glyph glyph-name="ae" unicode="&#xe6;" horiz-adv-x="1073" 
d="M659 512l-20 -37q54 26 108.5 38.5t114.5 12.5q72 0 108 -27.5t36 -82.5q0 -87 -105.5 -159.5t-230.5 -72.5q-41 0 -79.5 8.5t-76.5 24.5v-22q0 -84 51 -132.5t140 -48.5q77 0 167 48q19 10 23 10q3 0 6.5 -3.5t3.5 -7.5q0 -22 -88 -58t-178 -36q-72 0 -125 32.5
t-72 86.5q-71 -60 -138 -88.5t-138 -28.5q-94 0 -137 41.5t-43 130.5q0 156 154 269.5t370 113.5q49 0 84 -3t65 -9zM569 496h-49q-191 0 -320.5 -99t-129.5 -233q0 -70 37.5 -107t109.5 -37q35 0 74 14.5t86 45.5q35 123 82.5 225.5t109.5 190.5zM516 252
q37 -14 64.5 -20.5t52.5 -6.5q103 0 192.5 59t89.5 119q0 42 -27.5 65.5t-76.5 23.5q-99 0 -181.5 -66.5t-113.5 -173.5z" />
    <glyph glyph-name="oslash" unicode="&#xf8;" horiz-adv-x="635" 
d="M90 74l338 385q-18 16 -39.5 24.5t-48.5 8.5q-98 0 -181 -115t-83 -244q0 -17 3.5 -31.5t10.5 -27.5zM449 421l-338 -382q17 -18 39 -26.5t49 -8.5q95 0 179.5 117.5t84.5 238.5q0 12 -3 25t-11 36zM78 -2l-66 -76q-8 -8 -14 -12t-10 -4q-8 0 -13.5 4t-5.5 10q1 9 5 17
t8 12l65 76q-31 27 -46 66.5t-15 90.5q0 142 101 244t243 102q34 0 66.5 -8.5t61.5 -25.5l66 77q6 8 11 11.5t10 3.5q8 -1 13 -6.5t5 -14.5q0 -5 -2 -10t-6 -10l-63 -76q27 -28 41 -66t14 -88q0 -144 -102 -247t-246 -103q-36 0 -65.5 8t-55.5 25z" />
    <glyph glyph-name="questiondown" unicode="&#xbf;" horiz-adv-x="631" 
d="M754 1169q22 0 38.5 -16.5t16.5 -38.5q0 -23 -16 -39t-39 -16q-22 0 -39 16.5t-17 38.5q0 23 17 39t39 16zM356 324q24 -19 37 -49t13 -66q0 -110 -63 -179t-161 -69q-81 0 -130.5 60t-49.5 159q0 215 415 426h1q128 65 178.5 107t50.5 82q0 19 -12 30t-33 11h-12
q-17 0 -21.5 3t-5.5 13q0 16 13.5 23.5t44.5 7.5q36 0 57.5 -23.5t21.5 -62.5q0 -45 -38 -86t-158 -113q-273 -166 -355.5 -256.5t-82.5 -189.5q0 -61 32.5 -99.5t83.5 -38.5q72 0 120.5 84.5t53.5 225.5z" />
    <glyph glyph-name="exclamdown" unicode="&#xa1;" horiz-adv-x="426" 
d="M600 1171q23 0 40 -16.5t17 -38.5t-16.5 -38.5t-40.5 -16.5q-22 0 -37.5 16t-15.5 39t16 39t37 16zM23 -37q-19 0 -30 10.5t-11 28.5q0 69 276 516l104 170q36 59 76 135q33 64 45 64q8 -1 12.5 -5t4.5 -10q0 -9 -23 -52l-4 -7q-72 -135 -146.5 -308.5l-80.5 -187.5
q-83 -179 -138 -266.5t-85 -87.5z" />
    <glyph glyph-name="logicalnot" unicode="&#xac;" horiz-adv-x="1706" 
d="M254 856h1198v-502h-78v420h-1120v82z" />
    <glyph glyph-name="radical" unicode="&#x221a;" horiz-adv-x="1264" 
d="M1092 1626h172v-61h-129l-596 -1606h-31l-330 907l-110 -39l-15 50l230 79l278 -759z" />
    <glyph glyph-name="florin" unicode="&#x192;" horiz-adv-x="711" 
d="M605 715q11 3 17.5 9.5t6.5 14.5q0 9 -10.5 17t-22.5 8q-53 0 -103 -77.5t-149 -334.5h115q6 0 14 3.5t14 8.5l-16 -36q-3 -5 -8 -6.5t-14 -2.5h-115l-66 -167q-111 -281 -178 -367t-151 -86q-40 0 -67.5 20.5t-27.5 49.5q0 17 12 29t29 12t26 -7.5t9 -21.5l1 -4
q-12 -4 -19.5 -11t-7.5 -14t11 -15.5t23 -8.5q48 0 102.5 81t112.5 238l101 272h-111q-3 0 -7.5 -1l-4.5 -1q-5 0 -11 -2.5t-15 -8.5l18 34q3 7 7.5 9.5t12.5 2.5h121q99 255 171.5 348t162.5 93q39 0 64.5 -19.5t25.5 -48.5q0 -18 -12 -30.5t-29 -12.5q-15 0 -24 8.5
t-8 24.5z" />
    <glyph glyph-name="approxequal" unicode="&#x2248;" horiz-adv-x="1706" 
d="M1530 578v-93q-106 -74 -202 -110.5t-185 -36.5q-106 0 -295.5 70.5t-282.5 70.5q-83 0 -171 -35.5t-216 -124.5v93q105 73 201 109t186 36q106 0 295.5 -69.5t282.5 -69.5q83 0 171 35.5t216 124.5zM1530 903v-94q-105 -73 -200.5 -109t-186.5 -36q-106 0 -295.5 69.5
t-282.5 69.5q-83 0 -171 -35.5t-216 -124.5v92q106 75 202 111.5t185 36.5q106 0 295.5 -71t282.5 -71q81 0 168.5 36t218.5 126z" />
    <glyph glyph-name="Delta" unicode="&#x2206;" horiz-adv-x="995" 
d="M485 1272l-391 -1172h768zM492 1497h26l486 -1497h-1010z" />
    <glyph glyph-name="guillemotleft" unicode="&#xab;" horiz-adv-x="537" 
d="M244 291l195 166q8 7 13 9.5t9 2.5q10 0 16 -5t6 -13q0 -5 -2.5 -9.5t-13.5 -15.5l-148 -147q0 -1 -2 -3q-10 -9 -10 -22q0 -5 4 -12.5t4 -10.5l64 -165l10 -23q0 -9 -5.5 -16t-12.5 -7q-13 0 -22 17q-1 3 -3 6l-106 195q-4 7 -6.5 14.5t-2.5 11.5q1 11 3.5 16t9.5 11z
M25 291l192 166q8 6 14 9t11 3q9 0 14.5 -5t5.5 -13q0 -6 -3 -11.5t-11 -13.5l-150 -147q-1 -1 -2 -3q-10 -9 -10 -22q0 -5 3.5 -12t4.5 -11l66 -165l8 -23q0 -9 -5.5 -16t-12.5 -7q-12 1 -19 15q-2 5 -4 8l-106 194q-5 10 -8 17t-3 10q0 9 3 14.5t12 12.5z" />
    <glyph glyph-name="guillemotright" unicode="&#xbb;" horiz-adv-x="535" 
d="M410 203l-195 -166q-8 -6 -14 -9t-11 -3q-9 0 -14.5 5t-5.5 13q0 9 13 21q2 2 3 4l148 147l3 3q9 9 9 22q0 3 -1.5 7.5t-6.5 14.5l-64 167q-1 3 -5 11q-5 11 -5 13q1 9 6 14.5t13 5.5q13 0 22 -17l2 -3l106 -196q4 -8 6.5 -16t2.5 -12q0 -10 -2.5 -15t-9.5 -11zM189 203
l-195 -166q-9 -7 -13.5 -9.5t-9.5 -2.5q-8 -1 -13.5 4t-6.5 14q0 6 3 11t11 14l150 147q7 8 8.5 12t1.5 13q0 3 -1.5 7.5t-6.5 14.5l-64 166l-5.5 15t-2.5 10q0 9 4.5 14.5t11.5 5.5q14 0 23 -17l2 -3l106 -196q4 -8 6.5 -16t2.5 -12q0 -10 -3 -15.5t-9 -10.5z" />
    <glyph glyph-name="ellipsis" unicode="&#x2026;" horiz-adv-x="2048" 
d="M252 76q22 0 38.5 -16.5t16.5 -39.5q0 -22 -16 -38.5t-39 -16.5q-22 0 -39 16.5t-17 38.5t17.5 39t38.5 17zM934 76q22 0 38.5 -16.5t16.5 -39.5q0 -22 -16 -38.5t-39 -16.5q-22 0 -39 16.5t-17 38.5t17.5 39t38.5 17zM1618 76q22 0 38.5 -16.5t16.5 -39.5
q0 -22 -16 -38.5t-39 -16.5q-22 0 -39 16.5t-17 38.5t17.5 39t38.5 17z" />
    <glyph glyph-name="nonbreakingspace" unicode="&#xa0;" horiz-adv-x="743" 
 />
    <glyph glyph-name="Agrave" unicode="&#xc0;" horiz-adv-x="1305" 
d="M1180 1157q-64 -66 -146 -96.5t-190 -30.5q-92 0 -224 23.5t-171 23.5q-124 0 -196.5 -72t-72.5 -194q0 -51 15.5 -105t15.5 -59q0 -7 -3 -10.5t-9 -3.5q-14 0 -35 63.5t-21 126.5q0 152 104.5 250t266.5 98q55 0 192.5 -26.5t217.5 -26.5q49 0 112 9.5t144 29.5z
M1333 1104q-169 -33 -463 -494l-71 -110h8q34 0 97 -11.5t93 -11.5q23 0 34.5 0.5t23.5 2.5q83 266 144 397.5t134 226.5zM1405 1143q-75 -97 -159 -392q-47 -164 -79 -253q-40 -114 -110 -260t-70 -183q0 -21 11.5 -31t37.5 -10q17 0 35 8.5t21 8.5q6 0 10 -5.5t4 -13.5
q0 -13 -27 -30t-57 -17q-9 0 -56 11.5t-94 11.5q-33 0 -67 -16q-10 -5 -12 -5q-4 1 -5.5 4t-1.5 9q0 3 16 17q147 143 236 449q-8 -1 -15.5 -1.5t-23.5 -0.5q-31 0 -100 11.5t-106 11.5h-17q-162 -263 -312.5 -383.5t-316.5 -120.5q-117 0 -194.5 61.5t-77.5 149.5
q2 7 6.5 10t12.5 2q12 0 14 -20l2 -15q13 -64 75 -106.5t146 -42.5q89 0 172 46.5t168 144.5q28 31 157 221l232 334q145 204 272 300.5t248 96.5q4 0 12.5 -1t12.5 -1zM1132 1454q0 22 10.5 33.5t28.5 11.5q34 0 60 -65q13 -33 22 -47q28 -47 74.5 -80t46.5 -37
q0 -5 -3 -7.5t-9 -2.5q-42 0 -136 71t-94 123z" />
    <glyph glyph-name="Atilde" unicode="&#xc3;" horiz-adv-x="1305" 
d="M1180 1157q-64 -66 -146 -96.5t-190 -30.5q-92 0 -224 23.5t-171 23.5q-124 0 -196.5 -72t-72.5 -194q0 -51 15.5 -105t15.5 -59q0 -7 -3 -10.5t-9 -3.5q-14 0 -35 63.5t-21 126.5q0 152 104.5 250t266.5 98q55 0 192.5 -26.5t217.5 -26.5q49 0 112 9.5t144 29.5z
M1333 1104q-169 -33 -463 -494l-71 -110h8q34 0 97 -11.5t93 -11.5q23 0 34.5 0.5t23.5 2.5q83 266 144 397.5t134 226.5zM1405 1143q-75 -97 -159 -392q-47 -164 -79 -253q-40 -114 -110 -260t-70 -183q0 -21 11.5 -31t37.5 -10q17 0 35 8.5t21 8.5q6 0 10 -5.5t4 -13.5
q0 -13 -27 -30t-57 -17q-9 0 -56 11.5t-94 11.5q-33 0 -67 -16q-10 -5 -12 -5q-4 1 -5.5 4t-1.5 9q0 3 16 17q147 143 236 449q-8 -1 -15.5 -1.5t-23.5 -0.5q-31 0 -100 11.5t-106 11.5h-17q-162 -263 -312.5 -383.5t-316.5 -120.5q-117 0 -194.5 61.5t-77.5 149.5
q2 7 6.5 10t12.5 2q12 0 14 -20l2 -15q13 -64 75 -106.5t146 -42.5q89 0 172 46.5t168 144.5q28 31 157 221l232 334q145 204 272 300.5t248 96.5q4 0 12.5 -1t12.5 -1zM1095 1309q0 42 32.5 83.5t74.5 41.5q39 0 101.5 -24.5t88.5 -24.5q36 0 58.5 30.5t27.5 30.5t9 -3
t4 -7q0 -37 -34.5 -80t-80.5 -43q-30 0 -92.5 24.5t-89.5 24.5q-34 0 -58 -31.5t-28 -31.5q-5 0 -8.5 2.5t-4.5 7.5z" />
    <glyph glyph-name="Otilde" unicode="&#xd5;" horiz-adv-x="1253" 
d="M829 1135q-101 0 -182 -62t-125 -174q-8 -21 -19 -57q-16 -51 -28 -51q-7 0 -10.5 5t-3.5 15q0 131 110.5 245.5t259.5 114.5q158 0 255.5 -122t97.5 -324q0 -143 -49.5 -287.5t-135.5 -253.5q-87 -111 -199 -167t-245 -56q-203 0 -319.5 120t-116.5 329q0 148 68 304
t190 287q54 58 102.5 97t63.5 39q4 0 7 -2.5t3 -6.5q0 -13 -40 -55q-35 -37 -56 -63q-109 -133 -169.5 -295.5t-60.5 -321.5q0 -186 81.5 -288.5t228.5 -102.5q118 0 217.5 70.5t189.5 218.5q73 121 112.5 250t39.5 247q0 165 -70 256t-197 91zM643 1309q0 42 32.5 83.5
t74.5 41.5q39 0 101.5 -24.5t88.5 -24.5q36 0 58.5 30.5t27.5 30.5t9 -3t4 -7q0 -37 -34.5 -80t-80.5 -43q-30 0 -92.5 24.5t-89.5 24.5q-34 0 -58 -31.5t-28 -31.5q-5 0 -8.5 2.5t-4.5 7.5z" />
    <glyph glyph-name="OE" unicode="&#x152;" horiz-adv-x="2066" 
d="M1178 672q48 35 110 56.5t152 33.5q-63 22 -97 68.5t-34 109.5q0 107 85 169t232 62q138 0 234 -67.5t96 -157.5q0 -54 -28 -84.5t-79 -30.5q-54 0 -100.5 44.5t-46.5 78.5q0 8 4 11.5t12 3.5q1 0 32.5 -33t72.5 -33q29 0 44 16.5t15 49.5q0 65 -67.5 114.5t-163.5 49.5
q-108 0 -171 -49.5t-63 -133.5q0 -72 51.5 -130.5t51.5 -67.5q-1 -20 -49 -31q-47 -11 -79 -25q-146 -63 -214 -152t-68 -216q0 -148 104.5 -237t278.5 -89q204 0 334.5 130t130.5 327q0 11 -2 30t-2 27q0 6 5 10t11 4q12 0 16.5 -17.5t4.5 -74.5q0 -210 -146.5 -343.5
t-388.5 -133.5q-165 0 -279 70.5t-147 191.5q-89 -133 -206 -197.5t-271 -64.5q-206 0 -320 116.5t-114 325.5q0 155 67.5 311.5t190.5 286.5q53 58 101.5 96t64.5 38q5 -1 7 -2t3 -5q0 -13 -40 -55q-35 -37 -56 -63q-109 -133 -169.5 -295.5t-60.5 -321.5
q0 -186 81.5 -288.5t228.5 -102.5q118 0 217.5 70.5t189.5 218.5q73 121 112.5 250t39.5 247q0 165 -70 256t-197 91q-101 0 -182.5 -63t-124.5 -173q-8 -21 -19 -57q-16 -51 -28 -51q-7 0 -10.5 5t-3.5 15q0 131 110.5 245.5t259.5 114.5q151 0 253 -119.5t102 -295.5
q0 -24 -7 -73q-1 -8 -1 -11z" />
    <glyph glyph-name="oe" unicode="&#x153;" horiz-adv-x="1087" 
d="M532 389q61 67 150.5 103t194.5 36q71 0 107 -28t36 -84q0 -87 -105.5 -159.5t-230.5 -72.5q-42 0 -79.5 8t-76.5 25v-22q0 -84 51.5 -132.5t139.5 -48.5q78 0 167 48q19 10 23 10q3 0 7 -3.5t4 -7.5q0 -22 -88 -58t-179 -36q-69 0 -123.5 31.5t-78.5 85.5
q-48 -60 -110.5 -89.5t-141.5 -29.5q-100 0 -157.5 58.5t-57.5 158.5q0 140 102 243t242 103q79 0 132.5 -36t71.5 -103zM530 252q38 -14 65.5 -20.5t51.5 -6.5q103 0 192 59t89 119q0 43 -26.5 66t-76.5 23q-99 0 -181.5 -66.5t-113.5 -173.5zM348 492q-106 0 -189 -111.5
t-83 -245.5q0 -62 32.5 -96.5t90.5 -34.5t103.5 30t90.5 99q36 56 56 115.5t20 107.5q0 64 -32 100t-89 36z" />
    <glyph glyph-name="endash" unicode="&#x2013;" 
d="M33 293h991l-33 -64h-991z" />
    <glyph glyph-name="emdash" unicode="&#x2014;" horiz-adv-x="2048" 
d="M-117 229l33 64h2048l-33 -64h-2048z" />
    <glyph glyph-name="quotedblleft" unicode="&#x201c;" horiz-adv-x="516" 
d="M465 782q-33 0 -52.5 24.5t-19.5 67.5q0 91 78.5 194t118.5 103q8 0 11 -2.5t3 -9.5t-30 -38q-105 -108 -105 -189q0 -22 30.5 -37t30.5 -53q0 -25 -18.5 -42.5t-46.5 -17.5zM242 782q-34 0 -53 24.5t-19 67.5q0 89 78.5 193t118.5 104q8 0 12 -3t4 -9q0 -7 -31 -38
q-106 -108 -106 -189q0 -22 30.5 -37t30.5 -53q0 -25 -19 -42.5t-46 -17.5z" />
    <glyph glyph-name="quotedblright" unicode="&#x201d;" horiz-adv-x="516" 
d="M618 1171q33 0 52.5 -24.5t19.5 -67.5q0 -89 -78 -193t-120 -104q-7 1 -10.5 4t-4.5 9q0 6 29 35q108 110 108 192q0 21 -30.5 36.5t-30.5 49.5q0 28 18.5 45.5t46.5 17.5zM395 1171q33 0 52.5 -24.5t19.5 -67.5q0 -89 -78.5 -193t-120.5 -104q-6 1 -10 4.5t-4 8.5
q0 6 29 35q108 110 108 192q0 21 -30.5 36.5t-30.5 49.5q0 28 18 45.5t47 17.5z" />
    <glyph glyph-name="quoteleft" unicode="&#x2018;" horiz-adv-x="295" 
d="M242 782q-33 0 -52.5 25t-19.5 67q0 91 78.5 194t118.5 103q8 0 12 -3t4 -9q0 -7 -31 -38q-106 -108 -106 -189q0 -22 30.5 -37t30.5 -53q0 -25 -19 -42.5t-46 -17.5z" />
    <glyph glyph-name="quoteright" unicode="&#x2019;" horiz-adv-x="295" 
d="M395 1171q33 0 52.5 -24.5t19.5 -67.5q0 -89 -78.5 -193t-120.5 -104q-6 1 -10 4.5t-4 8.5q0 6 29 35q108 110 108 192q0 21 -30.5 36.5t-30.5 49.5q0 28 18 45.5t47 17.5z" />
    <glyph glyph-name="divide" unicode="&#xf7;" horiz-adv-x="1706" 
d="M854 365q41 0 69.5 -29.5t28.5 -71.5q0 -40 -28.5 -69t-69.5 -29t-69.5 28.5t-28.5 69.5t29 71t69 30zM254 651h1198v-82h-1198v82zM854 1055q41 0 69.5 -28.5t28.5 -70.5q0 -40 -28.5 -70t-69.5 -30t-69.5 29.5t-28.5 70.5t28.5 70t69.5 29z" />
    <glyph glyph-name="lozenge" unicode="&#x25ca;" horiz-adv-x="1012" 
d="M506 1409l-385 -817l385 -825l385 825zM506 1653l500 -1061l-500 -1069l-500 1069z" />
    <glyph glyph-name="ydieresis" unicode="&#xff;" horiz-adv-x="659" 
d="M274 508l-184 -395q-11 -23 -16.5 -38t-5.5 -22q0 -17 12 -27t33 -10q60 0 133 55t168 173q64 81 130.5 181.5t80.5 100.5q7 0 10.5 -3t3.5 -11q0 -5 -95 -184l-214 -391q-142 -250 -243.5 -339.5t-223.5 -89.5q-68 0 -115 25.5t-47 52.5q0 6 3 9.5t9 3.5q5 0 17 -13
q48 -47 106 -47q119 0 236.5 136.5t230.5 406.5q-60 -49 -111.5 -72.5t-95.5 -23.5q-52 0 -81 25t-29 71q0 22 15.5 64t43.5 96l100 188l-73 -20l-15 -2q-4 0 -7 3.5t-3 8.5t5 9t11 5zM533 676q0 33 19 54.5t48 21.5q25 0 38.5 -14.5t13.5 -41.5q0 -29 -19 -49t-47 -20
q-25 0 -39 13t-14 36zM267 678q0 30 19.5 52t47.5 22q25 0 39 -15t14 -41q0 -29 -19 -49t-48 -20q-25 0 -39 13.5t-14 37.5z" />
    <glyph glyph-name="Ydieresis" unicode="&#x178;" horiz-adv-x="1034" 
d="M365 1098q-40 -21 -73 -30t-67 -9q-46 0 -112.5 20.5t-85.5 20.5q-39 0 -72 -31t-35 -31q-4 0 -8 5t-4 10q0 30 64 74t143 44q32 0 97 -17t95 -17q42 0 88 18.5t49 18.5q6 0 10.5 -5t4.5 -12q0 -6 -36.5 -65t-66.5 -113q-71 -133 -107 -255.5t-36 -236.5
q0 -137 57 -215.5t156 -78.5q96 0 190 92t179 268q67 141 103 297t36 307v37q0 12 3.5 18t10.5 7q19 0 30 -73.5t11 -205.5q0 -198 -49.5 -400t-142.5 -382q-138 -268 -328.5 -422t-382.5 -154q-120 0 -203.5 72.5t-83.5 167.5q1 13 5 19.5t10 4.5q11 -7 17 -33.5t14 -45.5
q27 -66 82 -99t141 -33q237 0 476 290t335 720q-123 -279 -246 -412t-258 -133q-122 0 -189 87t-67 245q0 145 51.5 290.5t194.5 375.5zM795 1307q0 33 19 54.5t48 21.5q25 0 38.5 -14.5t13.5 -41.5q0 -29 -19 -49t-47 -20q-25 0 -39 13t-14 36zM529 1309q0 30 19.5 52
t47.5 22q25 0 39 -15t14 -41q0 -29 -19 -49t-48 -20q-25 0 -39 13.5t-14 37.5z" />
    <glyph glyph-name="fraction" unicode="&#x2215;" horiz-adv-x="342" 
d="M-186 -33h-72l872 826h74z" />
    <glyph glyph-name="currency" unicode="&#xa4;" horiz-adv-x="1241" 
d="M623 1217q-138 0 -235 -97t-97 -233q0 -138 97 -235t235 -97q137 0 234 97t97 235q0 137 -96.5 233.5t-234.5 96.5zM152 1411l206 -207q60 48 125 71t138 23q72 0 138 -23.5t126 -70.5l205 207l59 -59l-207 -205q45 -58 68.5 -124.5t23.5 -137.5q0 -73 -23 -138.5
t-69 -123.5l207 -205l-59 -60l-205 207q-58 -45 -125 -68.5t-139 -23.5q-74 0 -139 23t-124 69l-206 -207l-58 60l207 205q-45 57 -68.5 123.5t-23.5 138.5q0 71 23.5 137.5t68.5 124.5l-207 205z" />
    <glyph glyph-name="guilsinglleft" unicode="&#x2039;" horiz-adv-x="315" 
d="M25 291l192 166q8 6 14 9t11 3q9 0 14.5 -5t5.5 -13q0 -6 -3 -11.5t-11 -13.5l-150 -147q-1 -1 -2 -3q-10 -9 -10 -22q0 -5 3.5 -12t4.5 -11l66 -165l8 -23q0 -9 -5.5 -16t-12.5 -7q-12 1 -19 15q-2 5 -4 8l-106 194q-5 10 -8 17t-3 10q0 9 3 14.5t12 12.5z" />
    <glyph glyph-name="guilsinglright" unicode="&#x203a;" horiz-adv-x="315" 
d="M189 203l-195 -166q-9 -7 -13.5 -9.5t-9.5 -2.5q-8 -1 -13.5 4t-6.5 14q0 6 3 11t11 14l150 147q7 8 8.5 12t1.5 13q0 3 -1.5 7.5t-6.5 14.5l-64 166l-5.5 15t-2.5 10q0 9 4.5 14.5t11.5 5.5q14 0 23 -17l2 -3l106 -196q4 -8 6.5 -16t2.5 -12q0 -10 -3 -15.5t-9 -10.5z
" />
    <glyph glyph-name="fi" unicode="&#xf001;" horiz-adv-x="795" 
d="M299 510q26 11 46 15.5t40 4.5q31 0 49.5 -14.5t18.5 -38.5q0 -20 -11.5 -31.5t-31.5 -11.5q-25 0 -37.5 25.5t-30.5 25.5q-23 0 -42.5 -13.5t-33.5 -39.5q-1 -1 -90 -201t-199 -362q-116 -172 -261.5 -278.5t-239.5 -106.5q-4 0 -6 3.5t-2 8.5q0 6 29 15q179 56 321 243
q161 215 386 750q92 218 142 327q76 167 153 252.5t150 85.5q37 0 58.5 -19.5t21.5 -51.5q0 -21 -10 -32t-29 -11t-28 8t-9 24q0 6 1 15.5t1 11.5q0 16 -6.5 23.5t-21.5 7.5q-73 0 -213 -353zM592 449l-100 -33q-2 -1 -4.5 -1.5t-6.5 -0.5q-6 0 -9 3.5t-3 10.5q0 5 6.5 11.5
t16.5 9.5l223 75l-205 -438q-8 -17 -12 -30t-4 -19q0 -20 9 -29.5t27 -9.5q17 0 35.5 12.5t20.5 12.5q3 0 6.5 -3.5t3.5 -7.5q0 -10 -27.5 -26.5t-56.5 -16.5q-18 0 -50.5 7.5t-47.5 7.5q-20 0 -51 -7.5t-44 -7.5q-21 0 -28.5 3.5t-7.5 11.5q0 4 3.5 8t6.5 4h18
q71 0 199 279zM707 762q0 25 20.5 45t48.5 20q27 0 46.5 -20t19.5 -49q0 -27 -21 -46.5t-47 -19.5q-25 0 -46 21.5t-21 48.5z" />
    <glyph glyph-name="fl" unicode="&#xf002;" horiz-adv-x="782" 
d="M487 217l293 598q101 209 162.5 281.5t126.5 72.5q22 0 39.5 -9t17.5 -19q0 -4 -3 -7.5t-7 -3.5q-2 1 -9 4q-25 11 -46 11q-51 0 -145 -207l-11 -23l-364 -798q-14 -30 -21.5 -54t-7.5 -36q0 -14 7.5 -22.5t19.5 -8.5q10 0 22.5 6t13.5 6q5 0 8 -3t3 -7q0 -9 -21.5 -21
t-44.5 -12q-12 0 -42.5 9.5t-47.5 9.5q-9 0 -38 -7.5t-52 -7.5q-26 0 -43.5 6t-17.5 15q0 8 3.5 12t10.5 4t22 -3t25 -3q46 0 115 150zM299 510q26 11 46 15.5t40 4.5q31 0 49.5 -14.5t18.5 -38.5q0 -20 -11.5 -31.5t-31.5 -11.5q-25 0 -37.5 25.5t-30.5 25.5
q-23 0 -42.5 -13.5t-33.5 -39.5q-1 -1 -90 -201t-199 -362q-116 -172 -261.5 -278.5t-239.5 -106.5q-4 0 -6 3.5t-2 8.5q0 6 29 15q179 56 321 243q161 215 386 750q92 218 142 327q76 167 153 252.5t150 85.5q37 0 58.5 -19.5t21.5 -51.5q0 -21 -10 -32t-29 -11t-28 8
t-9 24q0 6 1 15.5t1 11.5q0 16 -6.5 23.5t-21.5 7.5q-73 0 -213 -353z" />
    <glyph glyph-name="daggerdbl" unicode="&#x2021;" horiz-adv-x="825" 
d="M303 96l185 17q38 3 59.5 4.5t25.5 1.5q34 0 49 -10.5t15 -32.5q0 -24 -20 -36.5t-56 -12.5h-8q-6 0 -50 5q-30 3 -48 5l-172 20l-90 -237q-39 -105 -59 -132.5t-46 -27.5q-20 0 -33.5 13t-13.5 32q0 27 49 103q19 28 29 45l131 206l-207 -26q-26 -4 -47 -6t-37 -2
q-35 0 -50 11t-15 36q0 21 20.5 34t56.5 13q6 0 26.5 -1.5t75.5 -4.5l189 -17q29 71 51.5 149t40.5 171q76 123 169 297l14 24l-185 -16q-20 -2 -40.5 -3t-45.5 -1q-34 0 -48.5 9.5t-14.5 31.5q0 25 21 38t63 13l98 -12l172 -19l90 236q40 106 59.5 133t45.5 27
q20 0 33.5 -12.5t13.5 -31.5q0 -28 -52 -109q-16 -24 -24 -38l-131 -209l205 29q26 4 49.5 6t36.5 2q33 0 48 -11.5t15 -37.5q0 -21 -19.5 -33t-56.5 -12q-10 0 -37.5 1.5t-66.5 4.5l-188 14q-28 -65 -51 -144t-42 -177l-101.5 -172.5t-80.5 -147.5z" />
    <glyph glyph-name="periodcentered" unicode="&#xb7;" horiz-adv-x="356" 
d="M135 434q23 0 39 -16.5t16 -38.5q0 -23 -15.5 -39t-39.5 -16q-22 0 -38.5 16t-16.5 39t16.5 39t38.5 16z" />
    <glyph glyph-name="quotesinglbase" unicode="&#x201a;" horiz-adv-x="295" 
d="M45 70q33 0 52.5 -24.5t19.5 -68.5q0 -88 -78.5 -192t-118.5 -104q-7 -1 -11 2.5t-5 11.5q0 7 30 38q107 108 107 189q0 22 -30.5 36t-30.5 52q0 25 18.5 42.5t46.5 17.5z" />
    <glyph glyph-name="quotedblbase" unicode="&#x201e;" horiz-adv-x="516" 
d="M268 70q33 0 52.5 -25t19.5 -68q0 -88 -79.5 -192t-119.5 -104q-6 0 -10 3t-4 7q0 3 68.5 82t68.5 149q0 22 -30.5 36t-30.5 48q0 28 18 46t47 18zM45 70q32 0 52 -25.5t20 -67.5q0 -88 -78.5 -192t-118.5 -104q-7 -1 -11 2.5t-5 11.5q0 6 29 35q108 110 108 192
q0 22 -30.5 36t-30.5 52q0 25 18.5 42.5t46.5 17.5z" />
    <glyph glyph-name="perthousand" unicode="&#x2030;" horiz-adv-x="1446" 
d="M1004 76q0 -36 17.5 -57t47.5 -21q31 0 60.5 26t64.5 87q39 65 59.5 122t20.5 97q0 31 -16.5 49t-45.5 18q-22 0 -46 -14.5t-46 -42.5q-46 -58 -81 -142t-35 -122zM1204 432q54 0 85.5 -34.5t31.5 -94.5q0 -121 -78 -229.5t-168 -108.5q-52 0 -86.5 39.5t-34.5 99.5
q0 106 85 217t165 111zM770 432q54 0 85.5 -34.5t31.5 -94.5q0 -121 -78.5 -229.5t-167.5 -108.5q-53 0 -87 39.5t-34 99.5q0 106 85 217t165 111zM569 76q0 -36 18 -57t48 -21q31 0 60.5 26t64.5 87q40 67 61 123.5t21 95.5q0 31 -17.5 49t-46.5 18q-22 0 -46 -14.5
t-46 -42.5q-46 -58 -81.5 -142t-35.5 -122zM90 436q0 -36 18 -57t48 -21t60 27t65 86q38 66 58.5 122.5t20.5 96.5q0 32 -16.5 50t-44.5 18q-22 0 -47 -15.5t-47 -44.5q-46 -57 -80.5 -140t-34.5 -122zM403 713q1 -6 2 -14q3 -21 3 -27q0 -126 -79 -237t-173 -111
q-53 0 -85 39t-32 104q0 104 85 214t165 110q15 0 105 -35t188 -35q49 0 116.5 8.5t141.5 24.5q-102 -105 -192.5 -210.5t-172.5 -213.5l-37 -50q-204 -275 -370 -319q120 102 325.5 370.5t356.5 377.5q-54 -11 -96.5 -16t-75.5 -5q-38 0 -79.5 6t-95.5 19z" />
    <glyph glyph-name="Acircumflex" unicode="&#xc2;" horiz-adv-x="1305" 
d="M1180 1157q-64 -66 -146 -96.5t-190 -30.5q-92 0 -224 23.5t-171 23.5q-124 0 -196.5 -72t-72.5 -194q0 -51 15.5 -105t15.5 -59q0 -7 -3 -10.5t-9 -3.5q-14 0 -35 63.5t-21 126.5q0 152 104.5 250t266.5 98q55 0 192.5 -26.5t217.5 -26.5q49 0 112 9.5t144 29.5z
M1333 1104q-169 -33 -463 -494l-71 -110h8q34 0 97 -11.5t93 -11.5q23 0 34.5 0.5t23.5 2.5q83 266 144 397.5t134 226.5zM1405 1143q-75 -97 -159 -392q-47 -164 -79 -253q-40 -114 -110 -260t-70 -183q0 -21 11.5 -31t37.5 -10q17 0 35 8.5t21 8.5q6 0 10 -5.5t4 -13.5
q0 -13 -27 -30t-57 -17q-9 0 -56 11.5t-94 11.5q-33 0 -67 -16q-10 -5 -12 -5q-4 1 -5.5 4t-1.5 9q0 3 16 17q147 143 236 449q-8 -1 -15.5 -1.5t-23.5 -0.5q-31 0 -100 11.5t-106 11.5h-17q-162 -263 -312.5 -383.5t-316.5 -120.5q-117 0 -194.5 61.5t-77.5 149.5
q2 7 6.5 10t12.5 2q12 0 14 -20l2 -15q13 -64 75 -106.5t146 -42.5q89 0 172 46.5t168 144.5q28 31 157 221l232 334q145 204 272 300.5t248 96.5q4 0 12.5 -1t12.5 -1zM1286 1399q-76 -66 -142.5 -112t-80.5 -46q-10 0 -13.5 2.5t-3.5 8.5t42 38t77 66q52 50 95 106t50 56
q11 0 18 -31.5t19 -60.5q22 -55 56 -110t34 -60q0 -7 -3 -11t-9 -4q-17 0 -52 40t-87 118z" />
    <glyph glyph-name="Ecircumflex" unicode="&#xca;" horiz-adv-x="1174" 
d="M547 762q-64 23 -98.5 69.5t-34.5 108.5q0 106 86 168.5t233 62.5q138 0 235 -68t97 -157q0 -53 -29.5 -84t-81.5 -31q-54 0 -99.5 44t-45.5 79q0 8 3.5 11.5t10.5 3.5q1 0 32.5 -33t72.5 -33q29 0 45 17t16 49q0 65 -68.5 114.5t-164.5 49.5q-108 0 -170 -49t-62 -134
q0 -72 50.5 -130.5t50.5 -67.5q0 -20 -48 -31q-46 -11 -78 -25q-145 -63 -214.5 -152.5t-69.5 -215.5q0 -148 105.5 -237t279.5 -89q205 0 334 129.5t129 327.5q0 11 -1 30t-1 27q0 6 4 10t10 4q12 0 16.5 -17.5t4.5 -74.5q0 -206 -142.5 -340.5t-371.5 -134.5
q-223 0 -355.5 104.5t-132.5 276.5q0 164 123 278.5t330 139.5zM787 1399q-76 -66 -142.5 -112t-80.5 -46q-10 0 -13.5 2.5t-3.5 8.5t42 38t77 66q52 50 95 106t50 56q11 0 18 -31.5t19 -60.5q22 -55 56 -110t34 -60q0 -7 -3 -11t-9 -4q-17 0 -52 40t-87 118z" />
    <glyph glyph-name="Aacute" unicode="&#xc1;" horiz-adv-x="1305" 
d="M1180 1157q-64 -66 -146 -96.5t-190 -30.5q-92 0 -224 23.5t-171 23.5q-124 0 -196.5 -72t-72.5 -194q0 -51 15.5 -105t15.5 -59q0 -7 -3 -10.5t-9 -3.5q-14 0 -35 63.5t-21 126.5q0 152 104.5 250t266.5 98q55 0 192.5 -26.5t217.5 -26.5q49 0 112 9.5t144 29.5z
M1333 1104q-169 -33 -463 -494l-71 -110h8q34 0 97 -11.5t93 -11.5q23 0 34.5 0.5t23.5 2.5q83 266 144 397.5t134 226.5zM1405 1143q-75 -97 -159 -392q-47 -164 -79 -253q-40 -114 -110 -260t-70 -183q0 -21 11.5 -31t37.5 -10q17 0 35 8.5t21 8.5q6 0 10 -5.5t4 -13.5
q0 -13 -27 -30t-57 -17q-9 0 -56 11.5t-94 11.5q-33 0 -67 -16q-10 -5 -12 -5q-4 1 -5.5 4t-1.5 9q0 3 16 17q147 143 236 449q-8 -1 -15.5 -1.5t-23.5 -0.5q-31 0 -100 11.5t-106 11.5h-17q-162 -263 -312.5 -383.5t-316.5 -120.5q-117 0 -194.5 61.5t-77.5 149.5
q2 7 6.5 10t12.5 2q12 0 14 -20l2 -15q13 -64 75 -106.5t146 -42.5q89 0 172 46.5t168 144.5q28 31 157 221l232 334q145 204 272 300.5t248 96.5q4 0 12.5 -1t12.5 -1zM1218 1262q-8 0 -11 2t-3 8q0 8 52 37.5t77 69.5q12 18 26 60q24 75 66 75q16 0 26.5 -13t10.5 -32
q0 -60 -94 -133.5t-150 -73.5z" />
    <glyph glyph-name="Edieresis" unicode="&#xcb;" horiz-adv-x="1174" 
d="M547 762q-64 23 -98.5 69.5t-34.5 108.5q0 106 86 168.5t233 62.5q138 0 235 -68t97 -157q0 -53 -29.5 -84t-81.5 -31q-54 0 -99.5 44t-45.5 79q0 8 3.5 11.5t10.5 3.5q1 0 32.5 -33t72.5 -33q29 0 45 17t16 49q0 65 -68.5 114.5t-164.5 49.5q-108 0 -170 -49t-62 -134
q0 -72 50.5 -130.5t50.5 -67.5q0 -20 -48 -31q-46 -11 -78 -25q-145 -63 -214.5 -152.5t-69.5 -215.5q0 -148 105.5 -237t279.5 -89q205 0 334 129.5t129 327.5q0 11 -1 30t-1 27q0 6 4 10t10 4q12 0 16.5 -17.5t4.5 -74.5q0 -206 -142.5 -340.5t-371.5 -134.5
q-223 0 -355.5 104.5t-132.5 276.5q0 164 123 278.5t330 139.5zM867 1307q0 33 19 54.5t48 21.5q25 0 38.5 -14.5t13.5 -41.5q0 -29 -19 -49t-47 -20q-25 0 -39 13t-14 36zM601 1309q0 30 19.5 52t47.5 22q25 0 39 -15t14 -41q0 -29 -19 -49t-48 -20q-25 0 -39 13.5
t-14 37.5z" />
    <glyph glyph-name="Egrave" unicode="&#xc8;" horiz-adv-x="1174" 
d="M547 762q-64 23 -98.5 69.5t-34.5 108.5q0 106 86 168.5t233 62.5q138 0 235 -68t97 -157q0 -53 -29.5 -84t-81.5 -31q-54 0 -99.5 44t-45.5 79q0 8 3.5 11.5t10.5 3.5q1 0 32.5 -33t72.5 -33q29 0 45 17t16 49q0 65 -68.5 114.5t-164.5 49.5q-108 0 -170 -49t-62 -134
q0 -72 50.5 -130.5t50.5 -67.5q0 -20 -48 -31q-46 -11 -78 -25q-145 -63 -214.5 -152.5t-69.5 -215.5q0 -148 105.5 -237t279.5 -89q205 0 334 129.5t129 327.5q0 11 -1 30t-1 27q0 6 4 10t10 4q12 0 16.5 -17.5t4.5 -74.5q0 -206 -142.5 -340.5t-371.5 -134.5
q-223 0 -355.5 104.5t-132.5 276.5q0 164 123 278.5t330 139.5zM633 1454q0 22 10.5 33.5t28.5 11.5q34 0 60 -65q13 -33 22 -47q28 -47 74.5 -80t46.5 -37q0 -5 -3 -7.5t-9 -2.5q-42 0 -136 71t-94 123z" />
    <glyph glyph-name="Iacute" unicode="&#xcd;" horiz-adv-x="930" 
d="M1067 1108q-132 -25 -290 -34.5t-183 -14.5q-157 -33 -246.5 -128.5t-89.5 -228.5q0 -75 33.5 -139t91.5 -102q16 -10 42 -22q30 -14 30 -25q-1 -7 -4 -9.5t-11 -3.5q-63 0 -142 90.5t-79 210.5q0 186 160 329t379 143q62 0 158 -10.5t131 -10.5q29 0 58 6t30 6
q7 0 10 -2.5t4 -9.5q0 -5 -22 -33q-129 -167 -226 -407l-40 -106q-100 -264 -183 -380q-93 -129 -220 -199.5t-268 -70.5q-107 0 -186.5 49.5t-79.5 97.5q0 7 4 11t11 4q4 0 17 -18q90 -115 255 -115q131 0 257.5 124.5t242.5 368.5q24 51 68 155q142 333 288 474zM936 1262
q-8 0 -11 2t-3 8q0 8 52 37.5t77 69.5q12 18 26 60q24 75 66 75q16 0 26.5 -13t10.5 -32q0 -60 -94 -133.5t-150 -73.5z" />
    <glyph glyph-name="Icircumflex" unicode="&#xce;" horiz-adv-x="930" 
d="M1067 1108q-132 -25 -290 -34.5t-183 -14.5q-157 -33 -246.5 -128.5t-89.5 -228.5q0 -75 33.5 -139t91.5 -102q16 -10 42 -22q30 -14 30 -25q-1 -7 -4 -9.5t-11 -3.5q-63 0 -142 90.5t-79 210.5q0 186 160 329t379 143q62 0 158 -10.5t131 -10.5q29 0 58 6t30 6
q7 0 10 -2.5t4 -9.5q0 -5 -22 -33q-129 -167 -226 -407l-40 -106q-100 -264 -183 -380q-93 -129 -220 -199.5t-268 -70.5q-107 0 -186.5 49.5t-79.5 97.5q0 7 4 11t11 4q4 0 17 -18q90 -115 255 -115q131 0 257.5 124.5t242.5 368.5q24 51 68 155q142 333 288 474z
M1004 1399q-76 -66 -142.5 -112t-80.5 -46q-10 0 -13.5 2.5t-3.5 8.5t42 38t77 66q52 50 95 106t50 56q11 0 18 -31.5t19 -60.5q22 -55 56 -110t34 -60q0 -7 -3 -11t-9 -4q-17 0 -52 40t-87 118z" />
    <glyph glyph-name="Idieresis" unicode="&#xcf;" horiz-adv-x="930" 
d="M1067 1108q-132 -25 -290 -34.5t-183 -14.5q-157 -33 -246.5 -128.5t-89.5 -228.5q0 -75 33.5 -139t91.5 -102q16 -10 42 -22q30 -14 30 -25q-1 -7 -4 -9.5t-11 -3.5q-63 0 -142 90.5t-79 210.5q0 186 160 329t379 143q62 0 158 -10.5t131 -10.5q29 0 58 6t30 6
q7 0 10 -2.5t4 -9.5q0 -5 -22 -33q-129 -167 -226 -407l-40 -106q-100 -264 -183 -380q-93 -129 -220 -199.5t-268 -70.5q-107 0 -186.5 49.5t-79.5 97.5q0 7 4 11t11 4q4 0 17 -18q90 -115 255 -115q131 0 257.5 124.5t242.5 368.5q24 51 68 155q142 333 288 474z
M1084 1307q0 33 19 54.5t48 21.5q25 0 38.5 -14.5t13.5 -41.5q0 -29 -19 -49t-47 -20q-25 0 -39 13t-14 36zM818 1309q0 30 19.5 52t47.5 22q25 0 39 -15t14 -41q0 -29 -19 -49t-48 -20q-25 0 -39 13.5t-14 37.5z" />
    <glyph glyph-name="Igrave" unicode="&#xcc;" horiz-adv-x="930" 
d="M1067 1108q-132 -25 -290 -34.5t-183 -14.5q-157 -33 -246.5 -128.5t-89.5 -228.5q0 -75 33.5 -139t91.5 -102q16 -10 42 -22q30 -14 30 -25q-1 -7 -4 -9.5t-11 -3.5q-63 0 -142 90.5t-79 210.5q0 186 160 329t379 143q62 0 158 -10.5t131 -10.5q29 0 58 6t30 6
q7 0 10 -2.5t4 -9.5q0 -5 -22 -33q-129 -167 -226 -407l-40 -106q-100 -264 -183 -380q-93 -129 -220 -199.5t-268 -70.5q-107 0 -186.5 49.5t-79.5 97.5q0 7 4 11t11 4q4 0 17 -18q90 -115 255 -115q131 0 257.5 124.5t242.5 368.5q24 51 68 155q142 333 288 474zM850 1454
q0 22 10.5 33.5t28.5 11.5q34 0 60 -65q13 -33 22 -47q28 -47 74.5 -80t46.5 -37q0 -5 -3 -7.5t-9 -2.5q-42 0 -136 71t-94 123z" />
    <glyph glyph-name="Oacute" unicode="&#xd3;" horiz-adv-x="1253" 
d="M829 1135q-101 0 -182 -62t-125 -174q-8 -21 -19 -57q-16 -51 -28 -51q-7 0 -10.5 5t-3.5 15q0 131 110.5 245.5t259.5 114.5q158 0 255.5 -122t97.5 -324q0 -143 -49.5 -287.5t-135.5 -253.5q-87 -111 -199 -167t-245 -56q-203 0 -319.5 120t-116.5 329q0 148 68 304
t190 287q54 58 102.5 97t63.5 39q4 0 7 -2.5t3 -6.5q0 -13 -40 -55q-35 -37 -56 -63q-109 -133 -169.5 -295.5t-60.5 -321.5q0 -186 81.5 -288.5t228.5 -102.5q118 0 217.5 70.5t189.5 218.5q73 121 112.5 250t39.5 247q0 165 -70 256t-197 91zM766 1262q-8 0 -11 2t-3 8
q0 8 52 37.5t77 69.5q12 18 26 60q24 75 66 75q16 0 26.5 -13t10.5 -32q0 -60 -94 -133.5t-150 -73.5z" />
    <glyph glyph-name="Ocircumflex" unicode="&#xd4;" horiz-adv-x="1253" 
d="M829 1135q-101 0 -182 -62t-125 -174q-8 -21 -19 -57q-16 -51 -28 -51q-7 0 -10.5 5t-3.5 15q0 131 110.5 245.5t259.5 114.5q158 0 255.5 -122t97.5 -324q0 -143 -49.5 -287.5t-135.5 -253.5q-87 -111 -199 -167t-245 -56q-203 0 -319.5 120t-116.5 329q0 148 68 304
t190 287q54 58 102.5 97t63.5 39q4 0 7 -2.5t3 -6.5q0 -13 -40 -55q-35 -37 -56 -63q-109 -133 -169.5 -295.5t-60.5 -321.5q0 -186 81.5 -288.5t228.5 -102.5q118 0 217.5 70.5t189.5 218.5q73 121 112.5 250t39.5 247q0 165 -70 256t-197 91zM834 1399
q-76 -66 -142.5 -112t-80.5 -46q-10 0 -13.5 2.5t-3.5 8.5t42 38t77 66q52 50 95 106t50 56q11 0 18 -31.5t19 -60.5q22 -55 56 -110t34 -60q0 -7 -3 -11t-9 -4q-17 0 -52 40t-87 118z" />
    <glyph glyph-name="apple" unicode="&#xf000;" horiz-adv-x="1618" 
d="M836 1216q-1 6 -1.5 14t-0.5 23q0 124 95 229.5t236 131.5q1 -10 1.5 -23t0.5 -39q0 -131 -103.5 -234.5t-203.5 -103.5h-8q-3 0 -7.5 1t-8.5 1zM1505 403q-114 -247 -205 -342.5t-204 -95.5q-50 0 -131.5 33t-122.5 33q-45 0 -131 -33t-127 -33q-64 0 -128.5 44
t-129.5 132q-102 140 -157.5 295.5t-55.5 300.5q0 219 125 356.5t323 137.5q68 0 155 -34t124 -34q34 0 121.5 35t152.5 35q110 0 198 -40t161 -124q-102 -65 -151.5 -145.5t-49.5 -182.5q0 -113 60 -200t173 -138z" />
    <glyph glyph-name="Ograve" unicode="&#xd2;" horiz-adv-x="1253" 
d="M829 1135q-101 0 -182 -62t-125 -174q-8 -21 -19 -57q-16 -51 -28 -51q-7 0 -10.5 5t-3.5 15q0 131 110.5 245.5t259.5 114.5q158 0 255.5 -122t97.5 -324q0 -143 -49.5 -287.5t-135.5 -253.5q-87 -111 -199 -167t-245 -56q-203 0 -319.5 120t-116.5 329q0 148 68 304
t190 287q54 58 102.5 97t63.5 39q4 0 7 -2.5t3 -6.5q0 -13 -40 -55q-35 -37 -56 -63q-109 -133 -169.5 -295.5t-60.5 -321.5q0 -186 81.5 -288.5t228.5 -102.5q118 0 217.5 70.5t189.5 218.5q73 121 112.5 250t39.5 247q0 165 -70 256t-197 91zM680 1454q0 22 10.5 33.5
t28.5 11.5q34 0 60 -65q13 -33 22 -47q28 -47 74.5 -80t46.5 -37q0 -5 -3 -7.5t-9 -2.5q-42 0 -136 71t-94 123z" />
    <glyph glyph-name="Uacute" unicode="&#xda;" horiz-adv-x="1313" 
d="M1536 1165q-100 -106 -201.5 -303t-187.5 -452l-106 -317q-2 -6 -7 -19q-8 -24 -8 -35q0 -15 8 -23t23 -8q16 0 37.5 21.5t27.5 21.5t10.5 -4t4.5 -10q0 -26 -29.5 -50t-67.5 -24q-13 0 -51 9.5t-63 9.5q-11 0 -55.5 -8.5t-77.5 -8.5q-15 0 -22 3.5t-7 11.5q0 7 4.5 12.5
t9.5 5.5q8 0 19 -1t16 -1q49 0 78.5 25.5t56.5 99.5l90 239l98 255l72 178l-151 -242q-366 -588 -551 -588q-59 0 -91 31.5t-32 89.5q0 57 44 178.5t122 276.5q32 64 91 172q110 198 110 270q0 69 -42.5 112.5t-109.5 43.5q-141 0 -263 -163t-122 -353q0 -141 106 -227
q15 -12 15 -15q0 -5 -3 -7.5t-9 -2.5t-28.5 12.5t-43.5 30.5q-70 55 -100.5 116t-30.5 144q0 191 141.5 345t319.5 154q105 0 166 -63.5t61 -173.5q0 -112 -150 -401l-12 -23q-100 -193 -139 -288.5t-39 -141.5q0 -37 17 -54.5t53 -17.5q69 0 169.5 100t211.5 279l12 21
q411 671 606 757zM1056 1262q-8 0 -11 2t-3 8q0 8 52 37.5t77 69.5q12 18 26 60q24 75 66 75q16 0 26.5 -13t10.5 -32q0 -60 -94 -133.5t-150 -73.5z" />
    <glyph glyph-name="Ucircumflex" unicode="&#xdb;" horiz-adv-x="1313" 
d="M1536 1165q-100 -106 -201.5 -303t-187.5 -452l-106 -317q-2 -6 -7 -19q-8 -24 -8 -35q0 -15 8 -23t23 -8q16 0 37.5 21.5t27.5 21.5t10.5 -4t4.5 -10q0 -26 -29.5 -50t-67.5 -24q-13 0 -51 9.5t-63 9.5q-11 0 -55.5 -8.5t-77.5 -8.5q-15 0 -22 3.5t-7 11.5q0 7 4.5 12.5
t9.5 5.5q8 0 19 -1t16 -1q49 0 78.5 25.5t56.5 99.5l90 239l98 255l72 178l-151 -242q-366 -588 -551 -588q-59 0 -91 31.5t-32 89.5q0 57 44 178.5t122 276.5q32 64 91 172q110 198 110 270q0 69 -42.5 112.5t-109.5 43.5q-141 0 -263 -163t-122 -353q0 -141 106 -227
q15 -12 15 -15q0 -5 -3 -7.5t-9 -2.5t-28.5 12.5t-43.5 30.5q-70 55 -100.5 116t-30.5 144q0 191 141.5 345t319.5 154q105 0 166 -63.5t61 -173.5q0 -112 -150 -401l-12 -23q-100 -193 -139 -288.5t-39 -141.5q0 -37 17 -54.5t53 -17.5q69 0 169.5 100t211.5 279l12 21
q411 671 606 757zM1124 1399q-76 -66 -142.5 -112t-80.5 -46q-10 0 -13.5 2.5t-3.5 8.5t42 38t77 66q52 50 95 106t50 56q11 0 18 -31.5t19 -60.5q22 -55 56 -110t34 -60q0 -7 -3 -11t-9 -4q-17 0 -52 40t-87 118z" />
    <glyph glyph-name="Ugrave" unicode="&#xd9;" horiz-adv-x="1313" 
d="M1536 1165q-100 -106 -201.5 -303t-187.5 -452l-106 -317q-2 -6 -7 -19q-8 -24 -8 -35q0 -15 8 -23t23 -8q16 0 37.5 21.5t27.5 21.5t10.5 -4t4.5 -10q0 -26 -29.5 -50t-67.5 -24q-13 0 -51 9.5t-63 9.5q-11 0 -55.5 -8.5t-77.5 -8.5q-15 0 -22 3.5t-7 11.5q0 7 4.5 12.5
t9.5 5.5q8 0 19 -1t16 -1q49 0 78.5 25.5t56.5 99.5l90 239l98 255l72 178l-151 -242q-366 -588 -551 -588q-59 0 -91 31.5t-32 89.5q0 57 44 178.5t122 276.5q32 64 91 172q110 198 110 270q0 69 -42.5 112.5t-109.5 43.5q-141 0 -263 -163t-122 -353q0 -141 106 -227
q15 -12 15 -15q0 -5 -3 -7.5t-9 -2.5t-28.5 12.5t-43.5 30.5q-70 55 -100.5 116t-30.5 144q0 191 141.5 345t319.5 154q105 0 166 -63.5t61 -173.5q0 -112 -150 -401l-12 -23q-100 -193 -139 -288.5t-39 -141.5q0 -37 17 -54.5t53 -17.5q69 0 169.5 100t211.5 279l12 21
q411 671 606 757zM970 1454q0 22 10.5 33.5t28.5 11.5q34 0 60 -65q13 -33 22 -47q28 -47 74.5 -80t46.5 -37q0 -5 -3 -7.5t-9 -2.5q-42 0 -136 71t-94 123z" />
    <glyph glyph-name="dotlessi" unicode="&#x131;" horiz-adv-x="403" 
d="M201 451l-100 -35q-2 -1 -5 -1.5t-6 -0.5q-6 0 -9 4.5t-3 11.5q0 6 6 10.5t17 8.5l223 75l-205 -438q-9 -20 -13 -31.5t-4 -19.5q0 -17 9.5 -25t27.5 -8t36 11.5t20 11.5q3 -1 6 -4.5t4 -8.5q0 -11 -31.5 -26t-64.5 -15q-16 0 -46.5 6.5t-46.5 6.5h-4q-8 0 -38 -6.5
t-52 -6.5q-15 0 -22 3.5t-9 11.5q0 4 4 8.5t7 3.5q7 0 15 -2h3q69 0 188 260z" />
    <glyph glyph-name="circumflex" unicode="&#x2c6;" 
d="M635 768q-76 -66 -142.5 -112t-80.5 -46q-10 0 -13.5 2.5t-3.5 8.5t42 38t77 66q52 50 95 106t50 56q11 0 18 -31.5t19 -60.5q22 -55 56 -110t34 -60q0 -7 -3 -11t-9 -4q-17 0 -52 40t-87 118z" />
    <glyph glyph-name="tilde" unicode="&#x2dc;" 
d="M444 678q0 42 32.5 83.5t74.5 41.5q39 0 101.5 -24.5t88.5 -24.5q36 0 58.5 30.5t27.5 30.5t9 -3t4 -7q0 -37 -34.5 -80t-80.5 -43q-30 0 -92.5 24.5t-89.5 24.5q-34 0 -58 -31.5t-28 -31.5q-5 0 -8.5 2.5t-4.5 7.5z" />
    <glyph glyph-name="macron" unicode="&#xaf;" 
d="M801 697q-2 -8 -7.5 -11.5t-15.5 -3.5h-336q-9 0 -14.5 4.5t-5.5 11.5v2l8 31q2 9 7 12.5t16 4.5h335q9 0 14 -4t5 -11v-4z" />
    <glyph glyph-name="breve" unicode="&#x2d8;" 
d="M496 870q4 0 37.5 -57t95.5 -57q58 0 134.5 55t84.5 55q5 0 7.5 -3.5t2.5 -10.5q0 -32 -83 -98t-150 -66q-60 0 -103 50t-43 110q1 11 5 16.5t12 5.5z" />
    <glyph glyph-name="dotaccent" unicode="&#x2d9;" 
d="M537 702q0 35 20.5 57.5t50.5 22.5q25 0 40.5 -15t15.5 -38q0 -36 -20 -58t-52 -22q-24 0 -39.5 15t-15.5 38z" />
    <glyph glyph-name="ring" unicode="&#x2da;" 
d="M492 766q0 -52 35 -87.5t87 -35.5q51 0 86 35.5t35 87.5q0 51 -35 86t-86 35q-52 0 -87 -34.5t-35 -86.5zM438 764q0 73 50.5 123.5t123.5 50.5t123.5 -50.5t50.5 -123.5t-50.5 -123.5t-123.5 -50.5t-123.5 50.5t-50.5 123.5z" />
    <glyph glyph-name="cedilla" unicode="&#xb8;" 
d="M236 -133l83 133h35l-65 -106q26 7 47 10.5t41 3.5q50 0 82.5 -32t32.5 -85q0 -67 -48.5 -103t-138.5 -36q-86 0 -160.5 29.5t-74.5 50.5q0 6 5 11t11 5q3 0 65 -29.5t134 -29.5q66 0 101.5 23.5t35.5 68.5q0 42 -22 62t-68 20q-11 0 -27.5 -3t-33.5 -7z" />
    <glyph glyph-name="hungarumlaut" unicode="&#x2dd;" 
d="M487 618q-6 1 -9 3.5t-3 7.5q0 6 38.5 37t66.5 73q9 16 27.5 69.5t47.5 53.5q17 0 27 -11.5t10 -31.5q0 -58 -84.5 -129.5t-120.5 -71.5zM670 618q-6 0 -8.5 2.5t-2.5 8.5t42 40.5t67 78.5q9 15 20 50q21 64 52 64q17 0 27 -11t10 -32q0 -56 -86.5 -128.5t-120.5 -72.5z
" />
    <glyph glyph-name="ogonek" unicode="&#x2db;" 
d="M424 31q-85 -65 -123.5 -123t-38.5 -123q0 -52 25.5 -81.5t70.5 -29.5q57 0 103 48q13 14 18 14q6 0 10.5 -2.5t4.5 -5.5q0 -27 -55.5 -69t-116.5 -42q-60 0 -98 37.5t-38 95.5q0 72 56.5 145.5t158.5 135.5h23z" />
    <glyph glyph-name="caron" unicode="&#x2c7;" 
d="M645 733q75 67 140 110.5t85 43.5q7 0 11 -3t4 -7q0 -8 -43 -40.5t-76 -64.5q-52 -51 -95 -106.5t-50 -55.5q-10 0 -17.5 31t-19.5 61q-22 53 -56 109t-34 61q0 7 4 11t10 4q16 0 48.5 -36.5t88.5 -117.5z" />
    <glyph glyph-name="Lslash" unicode="&#x141;" horiz-adv-x="1057" 
d="M588 690q1 0 3 1t3 1q3 0 5.5 -3.5t2.5 -6.5v-25q0 -5 -2 -8.5t-6 -5.5l-295 -78q-54 -114 -114 -212t-130 -185q-53 -66 -114.5 -111t-61.5 -53q2 -6 6 -8.5t11 -1.5l97 46t210 46q31 0 158 -17.5t221 -17.5q160 0 253 71.5t93 192.5q0 81 -58 132t-149 51
q-73 0 -157 -22q-19 -5 -23 -5q-7 0 -12 5t-5 11q0 18 55.5 29.5t141.5 11.5q110 0 176 -63t66 -168q0 -151 -119 -239.5t-324 -88.5q-93 0 -231 27t-180 27q-72 0 -145 -32t-85 -32q-17 0 -28 10t-11 25q0 9 41 58q178 216 301 483l-121 -33q-1 0 -3 -1t-3 -1q-3 0 -5.5 3
t-2.5 7v25q0 5 2.5 8.5t7.5 5.5l154 41q162 335 292 457t304 122q127 0 211 -73.5t84 -184.5q0 -72 -50.5 -127t-93.5 -55q-7 1 -10 3.5t-4 8.5q0 8 27 24q92 53 92 138q0 98 -67 158.5t-175 60.5q-136 0 -247.5 -111t-245.5 -390z" />
    <glyph glyph-name="lslash" unicode="&#x142;" horiz-adv-x="473" 
d="M111 217l157 322l-190 -52h-6q-4 0 -6.5 2.5t-2.5 6.5v24q1 7 3.5 11t6.5 5l222 60l108 219q108 219 167 289t122 70q21 0 39.5 -11.5t18.5 -21.5q0 -4 -3.5 -7.5t-7.5 -3.5q-2 0 -9 4q-25 13 -46 13q-50 0 -142 -202l-14 -30l-133 -292l197 53h6q3 0 5.5 -2.5t2.5 -5.5
v-27q0 -5 -2 -8.5t-6 -5.5l-227 -60l-207 -450q-14 -30 -21.5 -54t-7.5 -36q0 -14 8 -22.5t19 -8.5t23 6t14 6q4 0 7 -3t3 -7q0 -9 -21.5 -21t-44.5 -12q-12 0 -42.5 9.5t-47.5 9.5q-9 0 -39 -7.5t-53 -7.5q-26 0 -42.5 6.5t-16.5 16.5q0 6 4 10t10 4q5 0 21 -3t26 -3
q45 0 113 145z" />
    <glyph glyph-name="Scaron" unicode="&#x160;" horiz-adv-x="1204" 
d="M561 467q-42 15 -75.5 22t-61.5 7q-84 0 -136 -57.5t-52 -149.5q0 -127 111.5 -209t287.5 -82q165 0 271 92t106 234q0 63 -34 135.5t-97 142.5q-33 37 -99 99q-157 147 -157 257q0 95 72 154t190 59q114 0 190 -52t76 -128q0 -36 -22.5 -58t-61.5 -22q-40 0 -63.5 25.5
t-26.5 70.5q15 -10 29 -16t24 -6q20 0 32.5 13t12.5 34q0 44 -50 75.5t-124 31.5q-102 0 -161.5 -42.5t-59.5 -113.5q0 -84 147 -211q48 -41 74 -65q120 -111 160.5 -183.5t40.5 -158.5q0 -171 -135 -286.5t-336 -115.5q-221 0 -351 93t-130 247q0 109 65.5 176.5
t171.5 67.5q59 0 102.5 -20.5t69.5 -59.5zM1010 1364q75 67 140 110.5t85 43.5q7 0 11 -3t4 -7q0 -8 -43 -40.5t-76 -64.5q-52 -51 -95 -106.5t-50 -55.5q-10 0 -17.5 31t-19.5 61q-22 53 -56 109t-34 61q0 7 4 11t10 4q16 0 48.5 -36.5t88.5 -117.5z" />
    <glyph glyph-name="scaron" unicode="&#x161;" horiz-adv-x="494" 
d="M256 530q64 0 111 -37t47 -83q0 -24 -15.5 -38t-42.5 -14q-23 0 -38 15.5t-15 38.5q0 60 -11 77t-36 17q-33 0 -51.5 -18.5t-18.5 -51.5q0 -36 63.5 -138.5t63.5 -172.5q0 -71 -53 -114.5t-139 -43.5q-76 0 -130 39t-54 90q0 22 12.5 35.5t32.5 13.5t31.5 -13.5
t11.5 -39.5l-1 -5.5t-1 -10.5q0 -38 22.5 -58t65.5 -20q46 0 76 32t30 81q0 48 -52 143.5t-52 140.5q0 57 42 96t101 39zM381 733q75 67 140 110.5t85 43.5q7 0 11 -3t4 -7q0 -8 -43 -40.5t-76 -64.5q-52 -51 -95 -106.5t-50 -55.5q-10 0 -17.5 31t-19.5 61q-22 53 -56 109
t-34 61q0 7 4 11t10 4q16 0 48.5 -36.5t88.5 -117.5z" />
    <glyph glyph-name="Zcaron" unicode="&#x17d;" horiz-adv-x="1157" 
d="M821 1012q-7 -1 -22 -4q-57 -9 -82 -9q-88 0 -231.5 51.5t-194.5 51.5q-55 0 -94 -38.5t-39 -92.5q0 -51 25 -99q5 -11 5 -14q0 -6 -5 -11t-11 -5q-17 0 -35 36.5t-18 79.5q0 98 65 155.5t176 57.5q70 0 220 -43t231 -43q32 0 75 6.5t115 22.5q-223 -184 -443 -463
l-36 -45l-2 -2q-355 -436 -514 -557q57 22 114 32.5t113 10.5q100 0 252 -40t207 -40q139 0 234.5 107.5t95.5 259.5q0 28 -6 57.5t-6 30.5q0 4 4 7t10 3q13 0 22 -36t9 -89q0 -175 -118 -281t-319 -106q-69 0 -217.5 22.5t-226.5 22.5q-128 0 -256 -37q-27 -8 -33 -8
q-3 0 -5.5 3t-4.5 9q0 4 23 25q136 125 282 324l20 26q358 488 621 662zM721 1364q75 67 140 110.5t85 43.5q7 0 11 -3t4 -7q0 -8 -43 -40.5t-76 -64.5q-52 -51 -95 -106.5t-50 -55.5q-10 0 -17.5 31t-19.5 61q-22 53 -56 109t-34 61q0 7 4 11t10 4q16 0 48.5 -36.5
t88.5 -117.5z" />
    <glyph glyph-name="zcaron" unicode="&#x17e;" horiz-adv-x="545" 
d="M393 459q-50 19 -91.5 29t-72.5 10q-87 0 -171 -74q-21 -18 -27 -18q-4 0 -7 4.5t-4 9.5q0 22 70 64t135 42q43 0 98.5 -14t67.5 -14q37 0 72 21q9 5 12 5q5 0 7.5 -2.5t2.5 -7.5q0 -7 -68.5 -100t-131.5 -160q-56 -59 -144 -125t-88 -74q0 -5 3 -8t7 -4q9 0 46.5 10
t66.5 10q36 0 82.5 -12t56.5 -12q65 0 84.5 44t22.5 44q6 0 10 -3t4 -7q0 -68 -47 -109t-127 -41q-30 0 -104 16.5t-119 16.5q-37 0 -78 -14q-12 -4 -16 -4q-5 -1 -7 1.5t-4 10.5q0 1 30.5 31.5t64.5 72.5q12 16 35 44q197 247 329 317zM405 733q75 67 140 110.5t85 43.5
q7 0 11 -3t4 -7q0 -8 -43 -40.5t-76 -64.5q-52 -51 -95 -106.5t-50 -55.5q-10 0 -17.5 31t-19.5 61q-22 53 -56 109t-34 61q0 7 4 11t10 4q16 0 48.5 -36.5t88.5 -117.5z" />
    <glyph glyph-name="brokenbar" unicode="&#xa6;" 
d="M467 408h90v-758h-90v758zM467 1432h90v-758h-90v758z" />
    <glyph glyph-name="Eth" unicode="&#xd0;" horiz-adv-x="1245" 
d="M440 553h-215q-3 0 -5.5 3t-2.5 7l4 20q2 9 4.5 11t10.5 2h221q63 173 166 294.5t157 121.5q7 0 11.5 -2.5t5.5 -5.5q0 -5 -20 -25q-140 -139 -210 -383h230q8 0 12 -3t4 -9v-2l-4 -17q-2 -8 -4 -10t-8 -2h-242q-54 -191 -164 -319t-182 -128q-6 0 -10 3.5t-4 7.5
q0 3 44 36.5t78 88.5q33 52 65.5 133.5t57.5 177.5zM119 768q0 177 129 290t336 113q246 0 418 -159.5t172 -384.5q0 -288 -188 -476t-484 -188q-168 0 -317.5 78.5t-149.5 124.5q0 7 3.5 10.5t10.5 3.5q5 0 31 -21q185 -151 405 -151q140 0 242.5 45t183.5 142
q77 92 119.5 210.5t42.5 239.5q0 222 -139.5 353.5t-372.5 131.5q-179 0 -292 -104t-113 -266q0 -42 11 -81.5l11 -39.5q0 -7 -3.5 -10.5t-10.5 -3.5q-16 0 -30.5 43t-14.5 100z" />
    <glyph glyph-name="eth" unicode="&#xf0;" horiz-adv-x="635" 
d="M319 465q-93 0 -171 -107t-78 -231q0 -59 29.5 -91t84.5 -32q90 0 170 109.5t80 222.5q0 60 -30.5 94.5t-84.5 34.5zM438 459q1 10 1.5 23.5t0.5 39.5q0 44 -3 89t-9 91l-170 -30q-4 0 -7 2.5t-3 5.5l-4 20v9q0 2 2 4t6 2l168 30q-18 102 -54 197.5t-36 97.5q0 4 3 6.5
t9 2.5q16 0 64 -88.5t83 -202.5l179 30h6q5 0 7.5 -1.5t2.5 -4.5l4 -22q0 -4 -3.5 -7.5t-9.5 -5.5l-173 -30q17 -73 26 -144.5t9 -140.5q0 -212 -96.5 -338.5t-256.5 -126.5q-93 0 -147.5 56.5t-54.5 152.5q0 128 95 226t222 98q40 0 75 -10.5t64 -30.5z" />
    <glyph glyph-name="Yacute" unicode="&#xdd;" horiz-adv-x="1034" 
d="M365 1098q-40 -21 -73 -30t-67 -9q-46 0 -112.5 20.5t-85.5 20.5q-39 0 -72 -31t-35 -31q-4 0 -8 5t-4 10q0 30 64 74t143 44q32 0 97 -17t95 -17q42 0 88 18.5t49 18.5q6 0 10.5 -5t4.5 -12q0 -6 -36.5 -65t-66.5 -113q-71 -133 -107 -255.5t-36 -236.5
q0 -137 57 -215.5t156 -78.5q96 0 190 92t179 268q67 141 103 297t36 307v37q0 12 3.5 18t10.5 7q19 0 30 -73.5t11 -205.5q0 -198 -49.5 -400t-142.5 -382q-138 -268 -328.5 -422t-382.5 -154q-120 0 -203.5 72.5t-83.5 167.5q1 13 5 19.5t10 4.5q11 -7 17 -33.5t14 -45.5
q27 -66 82 -99t141 -33q237 0 476 290t335 720q-123 -279 -246 -412t-258 -133q-122 0 -189 87t-67 245q0 145 51.5 290.5t194.5 375.5zM647 1262q-8 0 -11 2t-3 8q0 8 52 37.5t77 69.5q12 18 26 60q24 75 66 75q16 0 26.5 -13t10.5 -32q0 -60 -94 -133.5t-150 -73.5z" />
    <glyph glyph-name="yacute" unicode="&#xfd;" horiz-adv-x="659" 
d="M274 508l-184 -395q-11 -23 -16.5 -38t-5.5 -22q0 -17 12 -27t33 -10q60 0 133 55t168 173q64 81 130.5 181.5t80.5 100.5q7 0 10.5 -3t3.5 -11q0 -5 -95 -184l-214 -391q-142 -250 -243.5 -339.5t-223.5 -89.5q-68 0 -115 25.5t-47 52.5q0 6 3 9.5t9 3.5q5 0 17 -13
q48 -47 106 -47q119 0 236.5 136.5t230.5 406.5q-60 -49 -111.5 -72.5t-95.5 -23.5q-52 0 -81 25t-29 71q0 22 15.5 64t43.5 96l100 188l-73 -20l-15 -2q-4 0 -7 3.5t-3 8.5t5 9t11 5zM385 631q-8 0 -11 2t-3 8q0 8 52 37.5t77 69.5q12 18 26 60q24 75 66 75q16 0 26.5 -13
t10.5 -32q0 -60 -94 -133.5t-150 -73.5z" />
    <glyph glyph-name="Thorn" unicode="&#xde;" horiz-adv-x="1352" 
d="M721 909q54 93 109 158t112 104q-32 -44 -65 -107t-76 -167l27 -6q110 -27 141 -27q48 0 116 21.5t86 21.5q47 0 89.5 -94t42.5 -197q0 -159 -124.5 -265.5t-312.5 -106.5q-45 0 -85 8t-74 24h12q236 0 364.5 113t128.5 318q0 80 -15.5 123.5t-43.5 43.5q-3 0 -99 -45
t-202 -45q-17 0 -39.5 1.5t-50.5 4.5q-129 -467 -266 -647t-349 -180q-94 0 -168.5 36t-74.5 64q0 6 3 10.5t7 4.5q3 -1 15 -10q94 -72 202 -72q86 0 166.5 50t126.5 132q61 114 214 548l27 79q-52 9 -90 13.5t-63 4.5q-152 0 -256 -92t-104 -229q0 -34 7 -69.5t7 -37.5
q0 -4 -3.5 -7t-8.5 -3q-15 0 -25 39t-10 100q0 173 137.5 283.5t353.5 110.5q33 0 105 -8q4 0 6 -1z" />
    <glyph glyph-name="thorn" unicode="&#xfe;" horiz-adv-x="666" 
d="M233 428q34 49 78.5 74.5t96.5 25.5q74 0 118.5 -55.5t44.5 -146.5q0 -148 -93.5 -254.5t-227.5 -106.5q-50 0 -91 19t-69 55q-77 -198 -179 -337.5t-144 -139.5q-5 0 -21 -9.5t-25 -9.5q-2 0 -5 2t-5 6q0 8 41 36t68 63q64 80 183.5 402.5t217.5 529.5
q176 371 254 481.5t146 110.5q31 0 51 -10t20 -23q0 -5 -2 -7.5t-6 -3.5q-2 0 -10 4q-26 13 -47 13q-43 0 -126 -173l-28 -59zM102 74q21 -38 50 -55t71 -17q104 0 184 104t80 236q0 69 -28.5 108t-77.5 39q-74 0 -139.5 -97t-139.5 -318z" />
    <glyph glyph-name="minus" unicode="&#x2212;" horiz-adv-x="1706" 
d="M254 651h1198v-82h-1198v82z" />
    <glyph glyph-name="multiply" unicode="&#xd7;" horiz-adv-x="1706" 
d="M367 1155l487 -487l487 487l58 -57l-488 -488l488 -487l-58 -57l-487 487l-487 -487l-58 57l488 487l-488 488z" />
    <glyph glyph-name="onesuperior" unicode="&#xb9;" horiz-adv-x="336" 
d="M307 778l-225 -432q-5 -8 -6.5 -12.5t-1.5 -9.5q0 -9 5.5 -14t16.5 -5h19q8 0 11 -2t3 -6q0 -7 -8 -10.5t-23 -3.5q-7 0 -28.5 5t-34.5 5q-16 0 -39 -5t-31 -5q-6 -1 -10 2.5t-4 9.5q0 4 2.5 7t5.5 3q26 0 39 8t31 43l204 381l-63 -14h-8q-3 0 -5.5 3.5t-2.5 6.5
q0 6 3 8.5t10 3.5z" />
    <glyph glyph-name="twosuperior" unicode="&#xb2;" horiz-adv-x="420" 
d="M3 328l21 3q36 5 50 5t56 -7t69 -7q55 0 91 27q7 5 9 5t4 -1.5t2 -4.5q0 -25 -35 -44t-90 -19q-31 0 -79 9t-64 9q-37 0 -76 -16q-10 -4 -12 -4q-5 0 -7.5 2.5t-2.5 7.5t7 15t29 34q58 64 171 146l51 38q60 48 78 77t18 65q0 38 -24.5 62t-63.5 24q-41 0 -70 -26.5
t-29 -63.5q0 -10 1.5 -20.5t1.5 -12.5q0 -11 -2.5 -14t-8.5 -3q-10 0 -17 15t-7 35q0 52 36.5 83t98.5 31q65 0 106 -34t41 -87q0 -73 -149 -169l-33 -21q-51 -33 -95 -68.5t-76 -70.5z" />
    <glyph glyph-name="threesuperior" unicode="&#xb3;" horiz-adv-x="469" 
d="M-70 422l56 -4q7 -55 47 -87t100 -32q45 0 76 17.5t55 58.5q19 31 30 69t11 72t-11.5 46.5t-41.5 12.5h-25q-5 1 -7 2t-3 5q0 10 19 15q10 3 16 5q58 17 79 35t21 47q0 30 -24.5 49t-63.5 19q-64 0 -107.5 -52.5l-43.5 -52.5q-6 1 -8 4t-3 13q0 32 51 73t117 41
q67 0 110.5 -29t43.5 -73q0 -38 -33.5 -64t-88.5 -31q31 -16 48 -44t17 -64q0 -78 -64 -135t-158 -57q-84 0 -143 39t-72 102z" />
    <glyph glyph-name="onehalf" unicode="&#xbd;" horiz-adv-x="1063" 
d="M664 23q5 0 17 2q38 6 52 6q13 0 52.5 -7.5t66.5 -7.5q52 0 86 28q6 5 8 5t4 -2t2 -4q0 -25 -32.5 -42t-85.5 -17q-31 0 -76 10t-60 10q-35 0 -74 -18q-9 -4 -12 -4q-5 0 -7 1.5t-3 6.5q0 4 6.5 12t30.5 33q54 60 161 137q35 25 50 37q56 43 73 70t17 61q0 36 -22.5 58
t-59.5 22q-39 0 -66.5 -24t-27.5 -58q0 -10 1 -20.5t1 -12.5q0 -10 -2.5 -12t-9.5 -2q-9 0 -16 14t-7 33q0 48 35.5 76t95.5 28q62 0 100.5 -31t38.5 -79q0 -69 -140 -159q-22 -14 -34 -21q-46 -30 -87.5 -62.5t-75.5 -66.5zM133 -33h-72l873 826h74zM295 778l-217 -403
q-4 -7 -6 -12t-2 -11q0 -8 5 -12t17 -4h19q6 0 9 -2t3 -6q0 -6 -7.5 -9.5t-21.5 -3.5q-7 0 -27.5 4.5t-33.5 4.5q-15 0 -37 -4.5t-29 -4.5t-10.5 3t-3.5 8q1 5 3 7.5t5 2.5q41 0 65 46l1 1l194 356l-59 -12h-6q-5 0 -8 2.5t-3 5.5q0 4 2.5 6.5t12.5 6.5z" />
    <glyph glyph-name="onequarter" unicode="&#xbc;" horiz-adv-x="1130" 
d="M1049 395q-59 -18 -174.5 -116.5t-196.5 -145.5q33 3 50 3.5t34 0.5q39 0 75 -2.5t70 -7.5zM1124 442l-172 -319h15q24 0 50.5 4.5t57.5 13.5q-19 -27 -53.5 -42t-77.5 -15h-12l-25 -52q-2 -3 -3 -6t-1 -8q0 -6 3.5 -9t11.5 -3q10 0 22 8.5t16 8.5q4 -1 5 -1.5t2 -5.5
q0 -13 -13.5 -21.5t-36.5 -8.5q-8 0 -24.5 2t-24.5 2q-11 0 -33 -2t-32 -2q-25 0 -30 1t-5 5t4 10t8 6q2 0 6.5 -1t8.5 -1q34 0 58.5 21t37.5 63q-43 6 -104.5 9t-141.5 3h-6q-7 0 -10.5 3t-3.5 8q0 10 44 38t78 54q38 28 103 85q164 142 278 152zM133 -33h-72l873 826h74z
M295 778l-217 -403q-4 -7 -6 -12t-2 -11q0 -8 5 -12t17 -4h19q6 0 9 -2t3 -6q0 -6 -7.5 -9.5t-21.5 -3.5q-7 0 -27.5 4.5t-33.5 4.5q-15 0 -37 -4.5t-29 -4.5t-10.5 3t-3.5 8q1 5 3 7.5t5 2.5q41 0 65 46l1 1l194 356l-59 -12h-6q-5 0 -8 2.5t-3 5.5q0 4 2.5 6.5t12.5 6.5z
" />
    <glyph glyph-name="threequarters" unicode="&#xbe;" horiz-adv-x="1257" 
d="M1178 395q-59 -18 -174 -116.5t-197 -145.5q33 3 50 3.5t34 0.5q39 0 75 -2.5t70 -7.5zM1253 442l-172 -319h15q24 0 50.5 4.5t57.5 13.5q-19 -27 -53.5 -42t-77.5 -15h-12l-25 -52q-2 -3 -3 -6t-1 -8q1 -6 3.5 -8t11.5 -2q10 0 22 7.5t16 7.5q4 -1 5 -1.5t2 -5.5
q0 -12 -14 -21t-36 -9q-8 0 -24.5 2t-24.5 2q-11 0 -33 -2t-32 -2q-25 0 -30 1t-5 5t4 9t8 5q2 0 6.5 -1t8.5 -1q34 0 58.5 22t37.5 64q-43 6 -104.5 9t-141.5 3h-6q-7 0 -10.5 3t-3.5 8q0 10 44 38t78 54q38 28 103 85q165 142 278 152zM262 -33h-72l873 826h74zM-66 444
l53 -13q7 -47 44.5 -74t95.5 -27q44 0 73 16t52 53q20 32 31.5 68t11.5 65t-12.5 42.5t-40.5 13.5h-25q-5 0 -7.5 1.5t-2.5 4.5q0 10 24 16q6 1 11 2q54 15 75 33t21 45q0 28 -24 45t-62 17q-61 0 -102.5 -48.5t-43.5 -48.5q-4 0 -7 4t-3 11q0 31 49 69.5t113 38.5
q62 0 101.5 -27t39.5 -69q0 -37 -29 -60.5t-83 -27.5q31 -17 47 -43t16 -59q0 -73 -61.5 -126t-151.5 -53q-80 0 -136 36.5t-67 94.5z" />
    <glyph glyph-name="franc" unicode="&#x20a3;" horiz-adv-x="1720" 
d="M877 541q-152 -323 -296 -451.5t-341 -128.5q-147 0 -250 72t-103 166q2 5 5 7.5t8 2.5q6 0 16 -27t21 -43q39 -60 119 -98.5t165 -38.5q142 0 256.5 103t259.5 376q-77 -42 -155 -99.5t-88 -57.5q-7 0 -11 3t-4 9q0 14 79 71t212 138q93 192 174.5 315t163.5 195
q-62 -29 -110 -42.5t-93 -13.5q-69 0 -196 42t-185 42q-108 0 -182 -69.5t-74 -171.5q0 -74 49 -152q13 -21 13 -26q0 -8 -2 -11.5t-6 -3.5q-21 0 -56 74t-35 143q0 130 96 217.5t240 87.5q76 0 226 -47t215 -47q88 0 178 52q14 8 16 8q8 -1 11 -3.5t4 -9.5q0 -6 -35 -53
q-167 -223 -291 -487q27 10 53.5 15t54.5 5q53 0 85 -20.5t32 -53.5q0 -22 -14 -35.5t-39 -13.5q-23 0 -62.5 34t-80.5 34q-8 0 -16.5 -1.5t-26.5 -6.5zM1286 442l-86 -18q-5 -1 -9 -1.5t-9 -0.5q-4 0 -6 3.5t-2 8.5q0 9 5 14t20 9l214 53l-61 -117q69 67 128.5 99t115.5 32
q51 0 80.5 -26.5t29.5 -71.5q0 -37 -21.5 -59.5t-58.5 -22.5q-20 0 -36.5 8.5t-28.5 24.5q22 9 34.5 24t12.5 33q0 22 -12.5 32.5t-38.5 10.5q-44 0 -99.5 -34t-107.5 -95q-65 -76 -113.5 -174.5t-48.5 -130.5q0 -20 10.5 -30.5t30.5 -10.5q18 0 43.5 13.5t28.5 13.5
q3 -1 5 -3.5t3 -5.5q0 -15 -32.5 -34t-69.5 -19q-12 0 -47.5 8.5t-59.5 8.5q-15 0 -49 -6.5t-53 -6.5q-24 0 -44 8.5t-20 16.5q0 6 3 10t7 4q3 0 16.5 -4t22.5 -4q77 0 129 102l4 8z" />
    <glyph glyph-name="Gbreve" unicode="&#x11e;" horiz-adv-x="999" 
d="M1042 588q-40 -42 -91.5 -135t-71.5 -123q-128 -199 -260 -283t-314 -84q-156 0 -295 76t-139 131q0 5 4.5 9t9.5 3q3 0 19 -16q157 -164 377 -164q113 0 200.5 42t178.5 143q13 15 93.5 132.5l151.5 214.5q-55 -8 -202 -44.5t-230 -36.5q-155 0 -246.5 79t-91.5 213
q0 195 166 310.5t451 115.5q185 0 291 -59.5t106 -161.5q0 -66 -37.5 -107.5t-95.5 -41.5q-53 0 -90 32.5t-37 75.5q0 10 3.5 21.5t10.5 25.5q8 -33 26.5 -50t47.5 -17q37 0 61.5 25.5t24.5 64.5q0 70 -79.5 112t-215.5 42q-235 0 -383.5 -111t-148.5 -279q0 -117 73 -182
t205 -65q52 0 226 42t302 50zM758 1501q4 0 37.5 -57t95.5 -57q58 0 134.5 55t84.5 55q5 0 7.5 -3.5t2.5 -10.5q0 -32 -83 -98t-150 -66q-60 0 -103 50t-43 110q1 11 5 16.5t12 5.5z" />
    <glyph glyph-name="gbreve" unicode="&#x11f;" horiz-adv-x="653" 
d="M569 489h-28q-200 0 -331.5 -103t-131.5 -249q0 -59 27.5 -91t78.5 -32q27 0 57.5 12.5t63.5 36.5q49 143 113.5 246.5t150.5 179.5zM290 26q-33 -21 -69 -31.5t-76 -10.5q-77 0 -117 40t-40 117q0 161 147.5 272t374.5 111q29 0 61.5 -4t36.5 -4q26 0 50 7q4 1 6 1
q3 0 5 -3.5t3 -8.5q0 -2 -10 -11q-108 -95 -207 -313q-53 -114 -126 -291t-102 -221q-53 -81 -129 -125.5t-164 -44.5q-51 0 -95 21t-44 39q0 2 3 4t7 2q2 0 11 -6q48 -31 98 -31q195 0 374 484zM312 870q4 0 37.5 -57t95.5 -57q58 0 134.5 55t84.5 55q5 0 7.5 -3.5
t2.5 -10.5q0 -32 -83 -98t-150 -66q-60 0 -103 50t-43 110q1 11 5 16.5t12 5.5z" />
    <glyph glyph-name="Idotaccent" unicode="&#x130;" horiz-adv-x="930" 
d="M1067 1108q-132 -25 -290 -34.5t-183 -14.5q-157 -33 -246.5 -128.5t-89.5 -228.5q0 -75 33.5 -139t91.5 -102q16 -10 42 -22q30 -14 30 -25q-1 -7 -4 -9.5t-11 -3.5q-63 0 -142 90.5t-79 210.5q0 186 160 329t379 143q62 0 158 -10.5t131 -10.5q29 0 58 6t30 6
q7 0 10 -2.5t4 -9.5q0 -5 -22 -33q-129 -167 -226 -407l-40 -106q-100 -264 -183 -380q-93 -129 -220 -199.5t-268 -70.5q-107 0 -186.5 49.5t-79.5 97.5q0 7 4 11t11 4q4 0 17 -18q90 -115 255 -115q131 0 257.5 124.5t242.5 368.5q24 51 68 155q142 333 288 474zM906 1333
q0 35 20.5 57.5t50.5 22.5q25 0 40.5 -15t15.5 -38q0 -36 -20 -58t-52 -22q-24 0 -39.5 15t-15.5 38z" />
    <glyph glyph-name="Scedilla" unicode="&#x15e;" horiz-adv-x="1204" 
d="M561 467q-42 15 -75.5 22t-61.5 7q-84 0 -136 -57.5t-52 -149.5q0 -127 111.5 -209t287.5 -82q165 0 271 92t106 234q0 63 -34 135.5t-97 142.5q-33 37 -99 99q-157 147 -157 257q0 95 72 154t190 59q114 0 190 -52t76 -128q0 -36 -22.5 -58t-61.5 -22q-40 0 -63.5 25.5
t-26.5 70.5q15 -10 29 -16t24 -6q20 0 32.5 13t12.5 34q0 44 -50 75.5t-124 31.5q-102 0 -161.5 -42.5t-59.5 -113.5q0 -84 147 -211q48 -41 74 -65q120 -111 160.5 -183.5t40.5 -158.5q0 -171 -135 -286.5t-336 -115.5q-221 0 -351 93t-130 247q0 109 65.5 176.5
t171.5 67.5q59 0 102.5 -20.5t69.5 -59.5zM386 -133l83 133h35l-65 -106q26 7 47 10.5t41 3.5q50 0 82.5 -32t32.5 -85q0 -67 -48.5 -103t-138.5 -36q-86 0 -160.5 29.5t-74.5 50.5q0 6 5 11t11 5q3 0 65 -29.5t134 -29.5q66 0 101.5 23.5t35.5 68.5q0 42 -22 62t-68 20
q-11 0 -27.5 -3t-33.5 -7z" />
    <glyph glyph-name="scedilla" unicode="&#x15f;" horiz-adv-x="494" 
d="M256 530q64 0 111 -37t47 -83q0 -24 -15.5 -38t-42.5 -14q-23 0 -38 15.5t-15 38.5q0 60 -11 77t-36 17q-33 0 -51.5 -18.5t-18.5 -51.5q0 -36 63.5 -138.5t63.5 -172.5q0 -71 -53 -114.5t-139 -43.5q-76 0 -130 39t-54 90q0 22 12.5 35.5t32.5 13.5t31.5 -13.5
t11.5 -39.5l-1 -5.5t-1 -10.5q0 -38 22.5 -58t65.5 -20q46 0 76 32t30 81q0 48 -52 143.5t-52 140.5q0 57 42 96t101 39zM-28 -133l83 133h35l-65 -106q26 7 47 10.5t41 3.5q50 0 82.5 -32t32.5 -85q0 -67 -48.5 -103t-138.5 -36q-86 0 -160.5 29.5t-74.5 50.5q0 6 5 11
t11 5q3 0 65 -29.5t134 -29.5q66 0 101.5 23.5t35.5 68.5q0 42 -22 62t-68 20q-11 0 -27.5 -3t-33.5 -7z" />
    <glyph glyph-name="Cacute" unicode="&#x106;" horiz-adv-x="1176" 
d="M1145 1178q43 -53 64.5 -107t21.5 -110q0 -74 -40.5 -117t-109.5 -43q-42 0 -73 18t-50 53q26 -18 46.5 -26t42.5 -8q42 0 65 26.5t23 77.5t-21 96.5t-63 85.5q-29 -3 -47 -4.5t-29 -1.5q-39 0 -91 4t-65 4q-248 0 -420 -196t-172 -469q0 -204 112.5 -331.5t289.5 -127.5
q167 0 283 132.5t116 320.5q0 67 -35 138q-8 17 -8 21q0 8 4.5 12.5t11.5 4.5q19 0 46.5 -72.5t27.5 -150.5q0 -195 -130.5 -321t-340.5 -126q-218 0 -351.5 138.5t-133.5 367.5q0 287 191 495.5t452 208.5q40 0 113.5 -6t107.5 -6q39 0 78 4.5t84 14.5zM835 1262
q-8 0 -11 2t-3 8q0 8 52 37.5t77 69.5q12 18 26 60q24 75 66 75q16 0 26.5 -13t10.5 -32q0 -60 -94 -133.5t-150 -73.5z" />
    <glyph glyph-name="cacute" unicode="&#x107;" horiz-adv-x="592" 
d="M504 522q10 -22 15 -40t5 -31q0 -52 -31 -84.5t-77 -32.5q-30 0 -49 16.5t-25 46.5q2 0 7 -1q29 -7 38 -7q31 0 47.5 16.5t16.5 47.5q0 7 -3 22q-1 5 -2 8q-28 3 -50 4.5t-31 1.5q-116 0 -197.5 -92t-81.5 -215q0 -80 40.5 -128t106.5 -48q104 0 182 113q15 22 19 22
q5 0 7.5 -2t2.5 -6q0 -48 -77 -106t-181 -58q-90 0 -145 61t-55 160q0 132 96 234t221 102q25 0 72 -6t67 -6q18 0 53 7q6 1 9 1zM352 631q-8 0 -11 2t-3 8q0 8 52 37.5t77 69.5q12 18 26 60q24 75 66 75q16 0 26.5 -13t10.5 -32q0 -60 -94 -133.5t-150 -73.5z" />
    <glyph glyph-name="Ccaron" unicode="&#x10c;" horiz-adv-x="1176" 
d="M1145 1178q43 -53 64.5 -107t21.5 -110q0 -74 -40.5 -117t-109.5 -43q-42 0 -73 18t-50 53q26 -18 46.5 -26t42.5 -8q42 0 65 26.5t23 77.5t-21 96.5t-63 85.5q-29 -3 -47 -4.5t-29 -1.5q-39 0 -91 4t-65 4q-248 0 -420 -196t-172 -469q0 -204 112.5 -331.5t289.5 -127.5
q167 0 283 132.5t116 320.5q0 67 -35 138q-8 17 -8 21q0 8 4.5 12.5t11.5 4.5q19 0 46.5 -72.5t27.5 -150.5q0 -195 -130.5 -321t-340.5 -126q-218 0 -351.5 138.5t-133.5 367.5q0 287 191 495.5t452 208.5q40 0 113.5 -6t107.5 -6q39 0 78 4.5t84 14.5zM913 1364
q75 67 140 110.5t85 43.5q7 0 11 -3t4 -7q0 -8 -43 -40.5t-76 -64.5q-52 -51 -95 -106.5t-50 -55.5q-10 0 -17.5 31t-19.5 61q-22 53 -56 109t-34 61q0 7 4 11t10 4q16 0 48.5 -36.5t88.5 -117.5z" />
    <glyph glyph-name="ccaron" unicode="&#x10d;" horiz-adv-x="592" 
d="M504 522q10 -22 15 -40t5 -31q0 -52 -31 -84.5t-77 -32.5q-30 0 -49 16.5t-25 46.5q2 0 7 -1q29 -7 38 -7q31 0 47.5 16.5t16.5 47.5q0 7 -3 22q-1 5 -2 8q-28 3 -50 4.5t-31 1.5q-116 0 -197.5 -92t-81.5 -215q0 -80 40.5 -128t106.5 -48q104 0 182 113q15 22 19 22
q5 0 7.5 -2t2.5 -6q0 -48 -77 -106t-181 -58q-90 0 -145 61t-55 160q0 132 96 234t221 102q25 0 72 -6t67 -6q18 0 53 7q6 1 9 1zM430 733q75 67 140 110.5t85 43.5q7 0 11 -3t4 -7q0 -8 -43 -40.5t-76 -64.5q-52 -51 -95 -106.5t-50 -55.5q-10 0 -17.5 31t-19.5 61
q-22 53 -56 109t-34 61q0 7 4 11t10 4q16 0 48.5 -36.5t88.5 -117.5z" />
    <glyph glyph-name="dcroat" unicode="&#x111;" horiz-adv-x="721" 
d="M508 410l95.5 220l82.5 201h-192q-4 1 -6.5 4.5t-2.5 8.5l5 21q1 6 4 9t10 3h203q81 193 121.5 243.5t91.5 50.5q25 0 48 -18.5t23 -30.5q0 -4 -4.5 -9t-9.5 -5q-3 0 -22 14.5t-35 14.5q-45 0 -101 -170q-19 -57 -31 -90h187q8 -1 12 -3.5t4 -7.5v-2l-2 -17q-2 -8 -5 -12
t-7 -4h-203q-197 -572 -309.5 -721t-271.5 -149q-99 0 -154 51t-55 142q0 136 113.5 254t250.5 118q66 0 103 -26.5t57 -89.5zM74 133q0 -76 29 -110.5t92 -34.5q50 0 103.5 40t98.5 111q37 59 58.5 123t21.5 109q0 57 -30 87.5t-87 30.5q-101 0 -193.5 -111.5t-92.5 -244.5
z" />
    <glyph glyph-name="periodcentered" unicode="&#x2219;" horiz-adv-x="356" 
d="M135 434q23 0 39 -16.5t16 -38.5q0 -23 -15.5 -39t-39.5 -16q-22 0 -38.5 16t-16.5 39t16.5 39t38.5 16z" />
    <glyph glyph-name="sfthyphen" unicode="&#xad;" horiz-adv-x="797" 
d="M61 188l39 84q7 15 17 21t30 6h512q26 0 46 7t40 24l-39 -85q-5 -11 -15 -16.5t-32 -5.5h-512q-29 0 -47.5 -7.5t-38.5 -27.5z" />
    </font>
</defs>
</svg>
